<svg aria-hidden="true" style="width:0;height:0;position:absolute;overflow:hidden" xmlns="http://www.w3.org/2000/svg"><defs><symbol id="Account" viewBox="0 0 31 32"><path d="M23.51 9.469a7.837 7.837 0 1 0-15.675 0 7.837 7.837 0 0 0 15.675 0zm-2.612 0a5.224 5.224 0 1 1-10.448 0 5.224 5.224 0 0 1 10.448 0zM15.674 18.612c-3.834 0-6.598.795-8.58 1.988-1.991 1.197-3.109 2.744-3.726 4.096-.52 1.14-.284 2.302.408 3.13.659.789 1.684 1.235 2.756 1.235h18.286c1.072 0 2.097-.446 2.756-1.235.692-.828.928-1.99.408-3.13-.617-1.353-1.735-2.899-3.726-4.097-1.983-1.192-4.747-1.988-8.581-1.988zm-9.931 7.169c.429-.939 1.216-2.052 2.696-2.943 1.488-.895 3.76-1.614 7.234-1.614s5.746.719 7.234 1.614c1.48.89 2.267 2.004 2.696 2.943a.367.367 0 0 1 .043.212.328.328 0 0 1-.08.159c-.118.141-.38.297-.751.297H6.529c-.371 0-.633-.156-.751-.297a.328.328 0 0 1-.08-.159.376.376 0 0 1 .043-.212z"/></symbol><symbol id="Arrow-Left" viewBox="0 0 31 32"><path d="M10.066 8.546c.51.51.51 1.337 0 1.847l-4.301 4.301h22.969a1.306 1.306 0 0 1 0 2.612H5.765l4.301 4.301a1.306 1.306 0 0 1-1.847 1.847l-6.531-6.531a1.306 1.306 0 0 1 0-1.847l6.531-6.531c.51-.51 1.337-.51 1.847 0z"/></symbol><symbol id="Arrow-Right" viewBox="0 0 31 32"><path d="M21.281 21.607a1.306 1.306 0 0 0 1.847 1.847l6.531-6.531c.51-.51.51-1.337 0-1.847l-6.531-6.531a1.306 1.306 0 0 0-1.847 1.847l4.301 4.301H2.613a1.306 1.306 0 0 0 0 2.612h22.969l-4.301 4.301z"/></symbol><symbol id="burger-2" viewBox="0 0 31 32"><path d="M3.918 14.694h23.51a1.308 1.308 0 0 0 0-2.614H3.918a1.308 1.308 0 0 0 0 2.614zm23.511 2.612H3.919a1.308 1.308 0 0 0 0 2.614h23.51a1.308 1.308 0 0 0 0-2.614z"/></symbol><symbol id="burger" viewBox="0 0 31 32"><path d="M2.612 8.163c0-.721.585-1.306 1.306-1.306h23.51a1.306 1.306 0 0 1 0 2.612H3.918a1.306 1.306 0 0 1-1.306-1.306zM2.612 16c0-.721.585-1.306 1.306-1.306h23.51a1.306 1.306 0 0 1 0 2.612H3.918A1.306 1.306 0 0 1 2.612 16zM3.918 22.531a1.306 1.306 0 0 0 0 2.612h23.51a1.306 1.306 0 0 0 0-2.612H3.918z"/></symbol><symbol id="chat-dots-fill" viewBox="0 0 31 32"><path d="M29.67 15.185c0 6.764-6.266 12.247-13.996 12.247-1.429 0-2.808-.187-4.106-.536-1.021.518-3.368 1.513-7.315 2.159-.348.057-.615-.307-.477-.632.619-1.463 1.178-3.412 1.349-5.19-2.146-2.152-3.446-4.967-3.446-8.048 0-6.764 6.266-12.247 13.996-12.247s13.996 5.483 13.996 12.247zm-19.245 0a1.75 1.75 0 1 0-3.5 0 1.75 1.75 0 0 0 3.5 0zm6.998 0a1.75 1.75 0 1 0-3.5 0 1.75 1.75 0 0 0 3.5 0zm5.249 1.75a1.75 1.75 0 1 0 0-3.5 1.75 1.75 0 0 0 0 3.5z"/></symbol><symbol id="Check" viewBox="0 0 31 32"><path d="M28.352 7.24c.51.51.51 1.337 0 1.847L12.679 24.76c-.51.51-1.337.51-1.847 0l-7.837-7.837a1.306 1.306 0 0 1 1.847-1.847l6.913 6.913 14.75-14.75c.51-.51 1.337-.51 1.847 0z"/></symbol><symbol id="Chevron-Down" viewBox="0 0 31 32"><path d="M4.301 11.158c.51-.51 1.337-.51 1.847 0l9.525 9.525 9.525-9.525a1.306 1.306 0 0 1 1.847 1.847L16.596 23.454c-.51.51-1.337.51-1.847 0L4.3 13.005a1.306 1.306 0 0 1 0-1.847z"/></symbol><symbol id="Chevron-Left" viewBox="0 0 31 32"><path d="M20.515 4.627c.51.51.51 1.337 0 1.847l-9.525 9.525 9.525 9.525a1.306 1.306 0 0 1-1.847 1.847L8.219 16.922a1.306 1.306 0 0 1 0-1.847L18.668 4.626c.51-.51 1.337-.51 1.847 0z"/></symbol><symbol id="Chevron-Right" viewBox="0 0 31 32"><path d="M10.832 4.627c.51-.51 1.337-.51 1.847 0l10.449 10.449c.51.51.51 1.337 0 1.847L12.679 27.372a1.306 1.306 0 0 1-1.847-1.847L20.357 16l-9.525-9.525a1.306 1.306 0 0 1 0-1.847z"/></symbol><symbol id="Chevron-UP" viewBox="0 0 31 32"><path d="M14.75 8.546c.51-.51 1.337-.51 1.847 0l10.449 10.449a1.306 1.306 0 0 1-1.847 1.847l-9.525-9.525-9.525 9.525a1.306 1.306 0 0 1-1.847-1.847L14.751 8.546z"/></symbol><symbol id="Clock" viewBox="0 0 31 32"><path d="M15.673 2.939a13.065 13.065 0 0 0-8.986 3.618V4.245a1.308 1.308 0 0 0-2.614 0v5.878A1.308 1.308 0 0 0 5.38 11.43h5.878a1.308 1.308 0 0 0 0-2.614H8.123a10.446 10.446 0 0 1 13.219-1.552 10.442 10.442 0 0 1 4.02 12.688A10.45 10.45 0 0 1 5.225 16a1.308 1.308 0 0 0-2.614 0A13.062 13.062 0 1 0 15.673 2.938zm0 7.836a1.308 1.308 0 0 0-1.307 1.307V16a1.308 1.308 0 0 0 1.307 1.307h2.612a1.308 1.308 0 0 0 0-2.614h-1.306v-2.612a1.308 1.308 0 0 0-1.307-1.307z"/></symbol><symbol id="close" viewBox="0 0 31 32"><path d="m17.515 16 8.229-8.216A1.312 1.312 0 0 0 23.89 5.93l-8.216 8.229L7.458 5.93a1.312 1.312 0 0 0-1.854 1.854L13.833 16l-8.229 8.215a1.305 1.305 0 0 0 0 1.854 1.305 1.305 0 0 0 1.854 0l8.216-8.229 8.216 8.229a1.305 1.305 0 0 0 1.854 0 1.31 1.31 0 0 0 0-1.854l-8.229-8.216z"/></symbol><symbol id="Digit" viewBox="0 0 31 32"><path d="M14.878 23.184h2.86V9.38h-2.87L11.3 11.858v2.602l3.52-2.43h.057v11.154z"/></symbol><symbol id="down-right" viewBox="0 0 31 32"><path d="M8.219 8.546c.51-.51 1.337-.51 1.847 0l10.832 10.832V9.47a1.306 1.306 0 0 1 2.612 0v13.061c0 .721-.585 1.306-1.306 1.306H9.143a1.306 1.306 0 0 1 0-2.612h9.908L8.219 10.393a1.306 1.306 0 0 1 0-1.847z"/></symbol><symbol id="Eclipse-activate" viewBox="0 0 31 32"><path d="M22.204 16a6.531 6.531 0 1 1-13.062 0 6.531 6.531 0 0 1 13.062 0z"/></symbol><symbol id="Eclipse-normal" viewBox="0 0 31 32"><path fill="#ddd" style="fill:var(--color1,#ddd)" d="M22.204 16a6.531 6.531 0 1 1-13.062 0 6.531 6.531 0 0 1 13.062 0z"/></symbol><symbol id="Error" viewBox="0 0 31 32"><path d="M16.899 3.183c.388.161.741.397 1.038.694l9.86 9.859a3.187 3.187 0 0 1 .939 2.265 3.204 3.204 0 0 1-.939 2.265l-9.86 9.859a3.207 3.207 0 0 1-2.263.938 3.199 3.199 0 0 1-2.263-.938l-9.86-9.859a3.187 3.187 0 0 1-.939-2.265 3.204 3.204 0 0 1 .939-2.265l9.86-9.859a3.207 3.207 0 0 1 2.263-.938c.42 0 .837.083 1.225.244zm-2.356 15.545a1.597 1.597 0 0 0 2.728-1.13V9.605a1.595 1.595 0 0 0-1.598-1.598 1.595 1.595 0 0 0-1.598 1.598v7.993c0 .424.168.831.468 1.13zm0 4.796a1.597 1.597 0 1 0 2.259-2.258 1.597 1.597 0 0 0-2.259 2.258z"/></symbol><symbol id="facebook" viewBox="0 0 31 32"><path d="M28.815 16.079A13.145 13.145 0 0 0 13.87 3.063a13.146 13.146 0 0 0-10.774 9.205 13.139 13.139 0 0 0 3.849 13.638 13.14 13.14 0 0 0 6.674 3.155v-9.184h-3.336v-3.799h3.336v-2.895c0-3.294 1.962-5.113 4.964-5.113.986.014 1.969.099 2.942.256v3.235h-1.658a1.898 1.898 0 0 0-2.141 2.053v2.464h3.645l-.583 3.799h-3.062v9.184a13.144 13.144 0 0 0 11.089-12.982z"/></symbol><symbol id="Git" viewBox="0 0 31 32"><path d="M15.673 2.776c-7.364 0-13.39 6.025-13.39 13.39 0 5.942 3.849 10.963 9.122 12.72.67.084.921-.251.921-.669v-2.259c-3.766.837-4.519-1.757-4.519-1.757-.586-1.506-1.506-1.925-1.506-1.925-1.255-.837.084-.837.084-.837 1.339.084 2.092 1.339 2.092 1.339 1.172 2.008 3.096 1.423 3.933 1.088a2.886 2.886 0 0 1 .837-1.757c-3.013-.335-6.109-1.506-6.109-6.611 0-1.423.502-2.678 1.339-3.598-.167-.335-.586-1.674.167-3.515 0 0 1.088-.335 3.682 1.339 1.088-.335 2.176-.418 3.347-.418s2.259.167 3.347.418c2.594-1.757 3.682-1.423 3.682-1.423.753 1.841.251 3.18.167 3.515.837.921 1.339 2.092 1.339 3.598 0 5.105-3.096 6.276-6.109 6.611.502.418.921 1.255.921 2.511v3.682c0 .335.251.753.921.669 5.272-1.757 9.122-6.778 9.122-12.72 0-7.364-6.025-13.39-13.389-13.39z"/></symbol><symbol id="Home" viewBox="0 0 31 32"><path d="m26.123 10.775-7.837-6.87a3.915 3.915 0 0 0-5.224 0l-7.837 6.87a3.912 3.912 0 0 0-1.306 2.952v11.415a3.92 3.92 0 0 0 3.919 3.919h15.673a3.92 3.92 0 0 0 3.919-3.919V13.713a3.919 3.919 0 0 0-1.306-2.939zm-7.837 15.674h-5.224v-6.531a1.308 1.308 0 0 1 1.307-1.307h2.612a1.308 1.308 0 0 1 1.307 1.307v6.531zm6.53-1.306a1.308 1.308 0 0 1-1.307 1.307h-2.612v-6.531A3.92 3.92 0 0 0 16.978 16h-2.612a3.92 3.92 0 0 0-3.919 3.919v6.531H7.835a1.308 1.308 0 0 1-1.307-1.307V13.714a1.3 1.3 0 0 1 .445-.98l7.837-6.857a1.308 1.308 0 0 1 1.724 0l7.837 6.857a1.313 1.313 0 0 1 .444.98v11.429z"/></symbol><symbol id="info" viewBox="0 0 31 32"><path d="M15.673 5.314C9.771 5.314 4.987 10.098 4.987 16s4.784 10.686 10.686 10.686S26.359 21.902 26.359 16 21.575 5.314 15.673 5.314zM2.612 16c0-7.214 5.848-13.061 13.061-13.061S28.734 8.787 28.734 16c0 7.214-5.848 13.061-13.061 13.061S2.612 23.213 2.612 16zm11.874-4.75c0-.656.532-1.187 1.187-1.187h.012a1.187 1.187 0 0 1 0 2.374h-.012a1.187 1.187 0 0 1-1.187-1.187zm1.187 3.563c.656 0 1.187.532 1.187 1.187v4.75a1.187 1.187 0 0 1-2.374 0V16c0-.656.532-1.187 1.187-1.187z"/></symbol><symbol id="instagram" viewBox="0 0 31 32"><path d="M15.671 5.29c3.483 0 3.901.013 5.277.076.828.01 1.649.162 2.426.45.567.209 1.08.543 1.501.977.434.421.768.934.977 1.501.288.777.44 1.597.45 2.426.063 1.379.078 1.797.078 5.28s-.013 3.901-.076 5.277a7.233 7.233 0 0 1-.45 2.426 4.32 4.32 0 0 1-2.478 2.478 7.228 7.228 0 0 1-2.426.45c-1.377.063-1.79.076-5.277.076s-3.901-.013-5.277-.076a7.233 7.233 0 0 1-2.426-.45 4.037 4.037 0 0 1-1.501-.977 4.037 4.037 0 0 1-.977-1.501 7.228 7.228 0 0 1-.45-2.426c-.065-1.377-.081-1.79-.081-5.277s.013-3.901.076-5.277c.01-.828.162-1.649.45-2.426.21-.567.545-1.08.979-1.501a4.037 4.037 0 0 1 1.501-.977 7.228 7.228 0 0 1 2.426-.45c1.377-.063 1.794-.078 5.277-.078zm0-2.351c-3.547 0-3.992.015-5.384.078a9.626 9.626 0 0 0-3.171.609 6.4 6.4 0 0 0-2.312 1.505 6.4 6.4 0 0 0-1.507 2.313 9.6 9.6 0 0 0-.609 3.171c-.061 1.392-.076 1.837-.076 5.384s.015 3.992.078 5.384a9.626 9.626 0 0 0 .609 3.171 6.43 6.43 0 0 0 1.507 2.313 6.405 6.405 0 0 0 2.312 1.507 9.626 9.626 0 0 0 3.171.609c1.393.064 1.837.078 5.384.078s3.992-.015 5.384-.078a9.626 9.626 0 0 0 3.171-.609 6.69 6.69 0 0 0 3.82-3.82 9.627 9.627 0 0 0 .61-3.171c.064-1.393.078-1.837.078-5.384s-.015-3.992-.078-5.384a9.602 9.602 0 0 0-.61-3.171 6.418 6.418 0 0 0-1.507-2.313 6.4 6.4 0 0 0-2.313-1.507 9.6 9.6 0 0 0-3.171-.609c-1.395-.061-1.84-.076-5.387-.076z"/><path d="M15.671 9.295a6.704 6.704 0 1 0 .002 13.41 6.704 6.704 0 0 0-.003-13.411zm0 11.057a4.35 4.35 0 0 1-4.022-2.688 4.357 4.357 0 0 1 .943-4.744 4.354 4.354 0 1 1 3.079 7.432zM22.642 10.594a1.567 1.567 0 1 0 0-3.134 1.567 1.567 0 0 0 0 3.134z"/></symbol><symbol id="linkedin" viewBox="0 0 31 32"><path d="M2.612 4.647c0-1.033.859-1.871 1.918-1.871h22.286c1.059 0 1.918.838 1.918 1.871v22.38c0 1.033-.859 1.871-1.918 1.871H4.53c-1.059 0-1.918-.838-1.918-1.871V4.647zm8.071 19.996V12.847H6.762v11.796h3.921zm-1.96-13.407c1.367 0 2.218-.906 2.218-2.038-.025-1.157-.851-2.038-2.192-2.038s-2.218.881-2.218 2.038c0 1.132.851 2.038 2.167 2.038h.026zm8.014 13.407v-6.587c0-.353.025-.705.129-.957.283-.704.929-1.434 2.012-1.434 1.419 0 1.986 1.082 1.986 2.667v6.31h3.92v-6.764c0-3.623-1.934-5.309-4.514-5.309-2.08 0-3.012 1.143-3.533 1.947v.041h-.026l.026-.041v-1.67h-3.921c.051 1.107 0 11.796 0 11.796h3.921z"/></symbol><symbol id="Mail-Fill" viewBox="0 0 31 32"><path d="M1.395 8.018a3.593 3.593 0 0 1 3.503-2.793h21.551a3.594 3.594 0 0 1 3.503 2.793l-14.278 8.726L1.396 8.018zm-.089 2.05v12.757l10.422-6.388-10.422-6.369zm12.143 7.421L1.651 24.721a3.592 3.592 0 0 0 3.247 2.055h21.551c1.434 0 2.671-.84 3.247-2.055l-11.798-7.232-2.224 1.359-2.224-1.359zm6.17-1.052 10.422 6.388V10.068l-10.422 6.369z"/></symbol><symbol id="Mail" viewBox="0 0 31 32"><path d="M1.306 8.163a3.918 3.918 0 0 1 3.918-3.918h20.898a3.918 3.918 0 0 1 3.918 3.918v15.673a3.918 3.918 0 0 1-3.918 3.918H5.224a3.918 3.918 0 0 1-3.918-3.918V8.163zm3.918-1.306c-.721 0-1.306.585-1.306 1.306v1.873l11.755 7.053 11.755-7.053V8.163c0-.721-.585-1.306-1.306-1.306H5.224zm22.205 6.225-10.411 6.247a2.614 2.614 0 0 1-2.688 0L3.919 13.082v10.754c0 .721.585 1.306 1.306 1.306h20.898c.721 0 1.306-.585 1.306-1.306V13.082z"/></symbol><symbol id="paperclip" viewBox="0 0 31 32"><path d="M8.816 6.204a4.898 4.898 0 0 1 9.796 0v17.633a2.94 2.94 0 0 1-5.878 0V10.123a.98.98 0 0 1 1.96 0v13.714a.98.98 0 0 0 1.96 0V6.204a2.94 2.94 0 0 0-5.878 0v17.633a4.898 4.898 0 0 0 9.796 0V10.123a.98.98 0 0 1 1.96 0v13.714a6.857 6.857 0 0 1-13.714 0V6.204z"/></symbol><symbol id="Person" viewBox="0 0 31 32"><path d="M4.789 29.061s-2.177 0-2.177-2.177 2.177-8.708 13.061-8.708 13.061 6.531 13.061 8.708c0 2.177-2.177 2.177-2.177 2.177H4.788zM15.673 16a6.531 6.531 0 1 0 0-13.062 6.531 6.531 0 0 0 0 13.062z"/></symbol><symbol id="Phone" viewBox="0 0 31 32"><path d="m26.175 20.753-3.694-.422a2.895 2.895 0 0 0-2.385.829l-2.676 2.676a21.88 21.88 0 0 1-9.583-9.583l2.69-2.69a2.895 2.895 0 0 0 .829-2.385l-.422-3.665A2.91 2.91 0 0 0 8.04 2.939H5.524c-1.643 0-3.01 1.367-2.908 3.01.771 12.419 10.703 22.336 23.107 23.107 1.643.102 3.01-1.265 3.01-2.908v-2.516c.015-1.469-1.091-2.705-2.559-2.879z"/></symbol><symbol id="Play-Field" viewBox="0 0 31 32"><path d="M25.569 12.623c2.576 1.515 2.576 5.24 0 6.755l-14.44 8.494c-2.612 1.537-5.905-.347-5.905-3.377V7.507c0-3.031 3.293-4.914 5.905-3.377l14.44 8.494z"/></symbol><symbol id="Play" viewBox="0 0 31 32"><path d="M24.245 17.126a1.307 1.307 0 0 0 0-2.252L9.805 6.38a1.306 1.306 0 0 0-1.968 1.126v16.988a1.306 1.306 0 0 0 1.968 1.126l14.44-8.494zm1.324-4.503c2.576 1.515 2.576 5.24 0 6.755l-14.44 8.494c-2.612 1.537-5.905-.347-5.905-3.377V7.507c0-3.031 3.293-4.914 5.905-3.377l14.44 8.494z"/></symbol><symbol id="Plus" viewBox="0 0 31 32"><path d="M16.98 6.857a1.306 1.306 0 0 0-2.612 0v7.837H6.531a1.306 1.306 0 0 0 0 2.612h7.837v7.837a1.306 1.306 0 0 0 2.612 0v-7.837h7.837a1.306 1.306 0 0 0 0-2.612H16.98V6.857z"/></symbol><symbol id="search" viewBox="0 0 31 32"><path d="m21.467 20.029 5.146 5.238a1.303 1.303 0 0 1-.043 1.818 1.304 1.304 0 0 1-1.819.013l-5.143-5.232a9.795 9.795 0 1 1 1.858-1.837zm-7.753 1.195a7.187 7.187 0 0 0 7.184-7.184 7.187 7.187 0 0 0-7.184-7.184A7.187 7.187 0 0 0 6.53 14.04a7.187 7.187 0 0 0 7.184 7.184z"/></symbol><symbol id="Skype" viewBox="0 0 31 32"><path d="M10.359 2.939a7.64 7.64 0 0 1 4.028 1.147 12.12 12.12 0 0 1 5.911.847 12.08 12.08 0 0 1 3.919 2.61 12.03 12.03 0 0 1 3.538 8.513c0 .562-.039 1.122-.118 1.676a7.59 7.59 0 0 1 .397 6.634c-.383.923-.945 1.761-1.654 2.467a7.642 7.642 0 0 1-5.395 2.227 7.652 7.652 0 0 1-3.87-1.051 12.143 12.143 0 0 1-6.064-.83 12.08 12.08 0 0 1-3.919-2.61 12.03 12.03 0 0 1-3.539-8.513c0-.592.044-1.182.13-1.765a7.59 7.59 0 0 1 1.241-9.126 7.64 7.64 0 0 1 5.393-2.226zm.729 11.444c.295.505.702.934 1.19 1.256.647.423 1.334.781 2.052 1.067.803.336 1.426.62 1.869.853.375.184.714.432 1.005.731.22.233.342.542.341.862a1.425 1.425 0 0 1-.545 1.18 2.569 2.569 0 0 1-1.617.431 4.323 4.323 0 0 1-1.711-.336 18.326 18.326 0 0 1-.868-.413 2.092 2.092 0 0 0-.958-.246c-.3-.012-.593.091-.819.289a1.026 1.026 0 0 0-.318.801c-.007.282.078.558.242.787.197.25.453.449.744.578a8.366 8.366 0 0 0 3.613.684 7.434 7.434 0 0 0 2.651-.432 3.743 3.743 0 0 0 1.763-1.309 3.61 3.61 0 0 0 .63-2.166 3.416 3.416 0 0 0-.455-1.797 4.132 4.132 0 0 0-1.261-1.294 11.757 11.757 0 0 0-2.048-1.053 1.803 1.803 0 0 0-.237-.095 27.885 27.885 0 0 1-1.654-.73 2.999 2.999 0 0 1-.882-.631 1.186 1.186 0 0 1-.327-.83 1.313 1.313 0 0 1 .631-1.18 2.884 2.884 0 0 1 1.58-.404c.425-.004.849.048 1.261.157a10 10 0 0 1 1.309.479c.172.08.36.122.549.124a.979.979 0 0 0 .74-.308 1.133 1.133 0 0 0 .295-.811 1.176 1.176 0 0 0-.279-.778 2.24 2.24 0 0 0-.906-.578 5.998 5.998 0 0 0-1.157-.299 9.811 9.811 0 0 0-1.668-.128 7.41 7.41 0 0 0-2.508.422c-.74.25-1.401.692-1.916 1.28a3.122 3.122 0 0 0-.735 2.1 3.46 3.46 0 0 0 .408 1.735z"/></symbol><symbol id="Star-Field" viewBox="0 0 31 32"><path d="M13.319 4.653c.737-2.286 3.971-2.286 4.708 0l2.05 6.358h6.654c2.392 0 3.391 3.057 1.461 4.469l-5.399 3.953 2.059 6.384c.736 2.282-1.881 4.172-3.815 2.755l-5.363-3.926-5.363 3.926c-1.935 1.417-4.551-.473-3.815-2.755l2.059-6.384-5.399-3.953c-1.93-1.413-.93-4.469 1.461-4.469h6.654l2.05-6.358z"/></symbol><symbol id="Star" viewBox="0 0 31 32"><path d="M13.319 4.653c.737-2.286 3.971-2.286 4.708 0l2.05 6.358h6.654c2.392 0 3.391 3.057 1.461 4.469l-5.399 3.953 2.059 6.384c.736 2.282-1.881 4.172-3.815 2.755l-5.363-3.926-5.363 3.926c-1.935 1.417-4.551-.473-3.815-2.755l2.059-6.384-5.399-3.953c-1.93-1.413-.93-4.469 1.461-4.469h6.654l2.05-6.358zm4.405 7.117-2.05-6.358-2.05 6.358a2.474 2.474 0 0 1-2.354 1.714H4.616l5.399 3.953c.86.63 1.22 1.74.893 2.755l-2.059 6.384 5.363-3.926a2.473 2.473 0 0 1 2.922 0l5.363 3.926-2.059-6.384a2.474 2.474 0 0 1 .893-2.755l5.399-3.953h-6.654a2.473 2.473 0 0 1-2.354-1.714z"/></symbol><symbol id="success" viewBox="0 0 31 32"><path d="M15.673 29.061a13.061 13.061 0 1 1 0-26.122 13.061 13.061 0 0 1 0 26.122zm2.227-17.9-3.513 6.71-2.519-2.269c-.159-.143-.346-.254-.548-.326s-.416-.103-.631-.091a1.644 1.644 0 0 0-1.127.538 1.648 1.648 0 0 0-.326.548c-.072.202-.103.416-.091.631s.065.424.157.618.222.367.381.51l4.082 3.673a1.62 1.62 0 0 0 1.381.394 1.63 1.63 0 0 0 1.158-.85l4.49-8.571a1.634 1.634 0 0 0-2.893-1.515z"/></symbol><symbol id="Tel" viewBox="0 0 31 32"><path d="M4.539 5.195a3.698 3.698 0 0 1 5.832-.239l2.49 2.943c.722.854.821 2.073.246 3.031l-1.918 3.197c.154.252.362.552.629.895a21.757 21.757 0 0 0 1.76 1.966c1.141 1.141 2.418 2.218 3.517 2.946l3.135-1.881a2.613 2.613 0 0 1 3.031.246l3.085 2.61a3.553 3.553 0 0 1-.23 5.603c-2.907 2.076-6.813 2.57-10.014.616-2.206-1.347-4.91-3.248-7.329-5.667a32.797 32.797 0 0 1-5.018-6.501c-1.879-3.185-1.218-6.965.783-9.767zm3.838 1.448a1.086 1.086 0 0 0-1.712.07c-1.556 2.179-1.89 4.835-.659 6.922a30.153 30.153 0 0 0 4.615 5.981c2.226 2.226 4.746 4.005 6.843 5.284 2.16 1.318 4.931 1.062 7.134-.512a.94.94 0 0 0 .061-1.483l-3.085-2.61-3.816 2.29a1.309 1.309 0 0 1-1.317.016c-1.5-.852-3.253-2.305-4.711-3.763a24.48 24.48 0 0 1-1.975-2.209c-.54-.694-1.018-1.419-1.275-2.078-.147-.377-.111-.8.097-1.147l2.29-3.816-2.49-2.943z"/></symbol><symbol id="Telegram" viewBox="0 0 31 32"><path d="M28.735 16c0 7.214-5.848 13.061-13.061 13.061S2.613 23.213 2.613 16c0-7.214 5.848-13.061 13.061-13.061S28.735 8.787 28.735 16zm-12.594-3.419c-1.27.528-3.809 1.622-7.617 3.281-.618.246-.942.486-.972.722-.05.398.448.554 1.126.767l.286.091c.667.217 1.564.47 2.03.48.423.009.895-.165 1.416-.523 3.558-2.401 5.394-3.615 5.509-3.641.081-.018.194-.042.27.026s.069.196.061.231c-.049.21-2.003 2.027-3.014 2.967-.315.293-.539.501-.585.548-.102.106-.207.207-.307.304-.62.597-1.084 1.045.026 1.777.533.351.96.642 1.386.932.465.317.929.633 1.529 1.026.153.1.299.204.441.306.541.386 1.027.732 1.628.677.349-.032.709-.36.893-1.339.433-2.313 1.283-7.325 1.48-9.39.017-.181-.004-.413-.022-.514s-.054-.247-.186-.354c-.156-.127-.398-.154-.506-.152-.491.009-1.245.271-4.872 1.779z"/></symbol><symbol id="Twitter-Field" viewBox="0 0 31 32"><path d="M30.367 6.936c-1.099.458-2.197.824-3.479.916 1.282-.732 2.197-1.923 2.655-3.296-1.19.732-2.472 1.19-3.845 1.465-1.099-1.19-2.655-1.923-4.303-1.923-3.296 0-6.042 2.655-6.042 6.042 0 .458.092.916.183 1.373-5.035-.275-9.43-2.655-12.451-6.317a5.765 5.765 0 0 0-.824 3.021c0 2.106 1.099 3.937 2.655 5.035a5.603 5.603 0 0 1-2.747-.732v.092c0 2.93 2.106 5.31 4.852 5.859-.549.092-1.007.183-1.556.183-.366 0-.732 0-1.099-.092.732 2.38 3.021 4.12 5.585 4.211-2.014 1.648-4.669 2.563-7.507 2.563-.458 0-1.007 0-1.465-.092 2.747 1.648 5.951 2.655 9.338 2.655 11.078 0 17.12-9.155 17.12-17.12v-.732c1.099-.915 2.106-1.923 2.93-3.113z"/></symbol><symbol id="up-right" viewBox="0 0 31 32"><path d="M9.143 10.775a1.306 1.306 0 0 1 0-2.612h13.061c.721 0 1.306.585 1.306 1.306V22.53a1.306 1.306 0 0 1-2.612 0v-9.908L10.066 23.454a1.306 1.306 0 0 1-1.847-1.847l10.832-10.832H9.143z"/></symbol><symbol id="whatsapp" viewBox="0 0 31 32"><path d="M24.877 6.737a12.82 12.82 0 0 0-9.154-3.798c-7.131 0-12.94 5.809-12.946 12.94 0 2.284.596 4.506 1.725 6.473l-1.831 6.709 6.864-1.8a12.956 12.956 0 0 0 6.188 1.576h.006c7.131 0 12.94-5.809 12.946-12.946a12.894 12.894 0 0 0-3.798-9.154zm-9.154 19.91c-1.936 0-3.829-.521-5.48-1.502l-.391-.236-4.071 1.067 1.086-3.972-.254-.41a10.711 10.711 0 0 1-1.645-5.722c0-5.921 4.829-10.749 10.762-10.749 2.874 0 5.573 1.123 7.609 3.153a10.703 10.703 0 0 1 3.147 7.609c-.006 5.939-4.835 10.762-10.762 10.762zm5.902-8.056c-.323-.161-1.912-.943-2.209-1.055-.298-.106-.515-.161-.726.161-.217.323-.838 1.055-1.024 1.266-.186.217-.379.242-.701.081s-1.365-.503-2.6-1.607c-.962-.857-1.607-1.918-1.8-2.241-.186-.323-.019-.497.143-.658.143-.143.323-.379.484-.565s.217-.323.323-.54c.106-.217.056-.403-.025-.565s-.726-1.756-.999-2.402c-.261-.633-.528-.546-.726-.552-.186-.012-.403-.012-.621-.012s-.565.081-.863.403c-.298.323-1.13 1.105-1.13 2.7s1.161 3.128 1.322 3.345c.161.217 2.278 3.482 5.524 4.884.77.335 1.372.534 1.843.683.776.248 1.477.211 2.036.13.621-.093 1.912-.782 2.185-1.539.267-.757.267-1.403.186-1.539s-.298-.217-.621-.379z"/></symbol><symbol id="logo-small" viewBox="0 0 92 32"><path d="M11.635 3.182v9.533H9.894V6.861c0-.123.002-.254.007-.394.009-.14.022-.282.039-.427l-2.727 5.171c-.149.285-.379.427-.69.427h-.276a.783.783 0 0 1-.407-.105.781.781 0 0 1-.282-.322l-2.74-5.19c.013.153.024.302.033.447.009.14.013.272.013.394v5.854H1.123V3.183h1.498c.083 0 .158.002.223.007s.123.018.171.039a.317.317 0 0 1 .138.092.61.61 0 0 1 .125.171l2.667 5.085c.083.153.16.311.23.473.074.162.145.329.21.499.066-.175.134-.346.204-.512.074-.166.153-.326.237-.48l2.648-5.065a.62.62 0 0 1 .125-.171.388.388 0 0 1 .138-.092.534.534 0 0 1 .171-.039c.066-.004.142-.007.23-.007h1.498zM19.246 9.049v3.666h-1.971V9.049l-3.462-5.867h1.735c.171 0 .307.042.407.125a.84.84 0 0 1 .25.309l1.564 3.003c.105.201.199.39.283.565.088.175.164.35.23.526.061-.175.131-.35.21-.526.083-.18.175-.368.276-.565l1.551-3.002c.053-.105.131-.204.237-.296s.241-.138.407-.138h1.748L19.249 9.05zM26.87 7.117h.388c.324 0 .559-.101.703-.302l2.411-3.226a.924.924 0 0 1 .375-.315c.136-.061.302-.092.499-.092h1.708l-3.035 3.909c-.197.254-.401.436-.611.545.153.061.291.142.414.243.123.096.241.226.355.388l3.114 4.448h-1.754a1.5 1.5 0 0 1-.296-.026c-.079-.018-.149-.042-.21-.072s-.114-.068-.158-.112a1.282 1.282 0 0 1-.125-.164l-2.451-3.43a.7.7 0 0 0-.296-.25c-.114-.053-.274-.079-.48-.079h-.552v4.133h-1.971V3.182h1.971v3.935zM43.515 3.182v9.533h-1.984V8.609h-4.198v4.106h-1.984V3.182h1.984v4.047h4.198V3.182h1.984zM51.858 9.095l-1.032-2.917a11.218 11.218 0 0 1-.197-.539 12.024 12.024 0 0 1-.191-.67 9.174 9.174 0 0 1-.197.683 7.983 7.983 0 0 1-.191.539l-1.025 2.904h2.832zm3.312 3.62h-1.531a.703.703 0 0 1-.421-.118.774.774 0 0 1-.237-.315l-.644-1.82H48.54l-.644 1.82a.767.767 0 0 1-.23.302.637.637 0 0 1-.414.131h-1.544l3.725-9.533h2.017l3.719 9.533zM59.35 12.715h-1.984V3.182h1.984v9.533zM68.315 11.112v1.603h-5.657V3.182h1.971v7.93h3.686zM79.753 7.945c0 .696-.118 1.342-.355 1.938a4.479 4.479 0 0 1-.992 1.544 4.593 4.593 0 0 1-1.537 1.025c-.6.245-1.266.368-1.997.368s-1.397-.123-1.997-.368c-.6-.25-1.115-.591-1.544-1.025s-.762-.948-.999-1.544c-.232-.596-.348-1.242-.348-1.938s.116-1.34.348-1.932c.237-.596.569-1.11.999-1.544s.944-.773 1.544-1.018c.6-.25 1.266-.374 1.997-.374s1.397.125 1.997.374c.6.245 1.112.587 1.537 1.025.429.434.76.948.992 1.544.236.591.355 1.233.355 1.925zm-2.017 0c0-.499-.066-.946-.197-1.34a2.773 2.773 0 0 0-.572-1.012 2.354 2.354 0 0 0-.9-.637c-.35-.149-.749-.223-1.196-.223s-.847.074-1.202.223a2.429 2.429 0 0 0-.907.637 2.834 2.834 0 0 0-.565 1.012A4.239 4.239 0 0 0 72 7.945c0 .504.066.955.197 1.353.131.394.32.729.565 1.005.25.276.552.488.907.637.355.145.755.217 1.202.217s.845-.072 1.196-.217c.355-.149.655-.361.9-.637.25-.276.44-.611.572-1.005.131-.399.197-.85.197-1.353zM5.433 24.817v3.666H3.462v-3.666L0 18.95h1.734c.171 0 .307.042.407.125a.84.84 0 0 1 .25.309l1.564 3.002c.105.201.199.39.282.565.088.175.164.35.23.526.061-.175.131-.35.21-.526.083-.18.175-.368.276-.565l1.551-3.002c.053-.105.131-.204.237-.296s.241-.138.407-.138h1.748l-3.462 5.867zM15.105 24.863l-1.031-2.917a11.218 11.218 0 0 1-.197-.539 12.024 12.024 0 0 1-.191-.67 9.174 9.174 0 0 1-.197.683 7.983 7.983 0 0 1-.191.539l-1.025 2.904h2.832zm3.311 3.62h-1.531a.705.705 0 0 1-.42-.118.774.774 0 0 1-.237-.315l-.644-1.82h-3.797l-.644 1.82a.767.767 0 0 1-.23.302.64.64 0 0 1-.414.131H8.955l3.725-9.533h2.017l3.719 9.533zM22.584 22.885h.388c.324 0 .558-.101.703-.302l2.411-3.226a.924.924 0 0 1 .375-.315c.136-.061.302-.092.499-.092h1.708l-3.035 3.909c-.197.254-.401.436-.611.545.153.061.291.142.414.243.123.096.241.226.355.388l3.114 4.448h-1.754a1.5 1.5 0 0 1-.296-.026c-.079-.017-.149-.042-.21-.072s-.114-.068-.158-.112a1.282 1.282 0 0 1-.125-.164l-2.451-3.43a.7.7 0 0 0-.296-.25c-.114-.053-.274-.079-.48-.079h-.552v4.133h-1.971V18.95h1.971v3.935zM39.812 23.713c0 .696-.118 1.342-.355 1.938a4.479 4.479 0 0 1-.992 1.544 4.593 4.593 0 0 1-1.537 1.025c-.6.245-1.266.368-1.997.368s-1.397-.123-1.997-.368c-.6-.25-1.115-.591-1.544-1.025s-.762-.948-.999-1.544c-.232-.596-.348-1.242-.348-1.938s.116-1.34.348-1.932c.237-.596.569-1.11.999-1.544s.944-.773 1.544-1.018c.6-.25 1.266-.374 1.997-.374s1.397.125 1.997.374c.6.245 1.113.587 1.537 1.025.429.434.76.948.992 1.544.237.591.355 1.233.355 1.925zm-2.017 0c0-.499-.066-.946-.197-1.34a2.773 2.773 0 0 0-.572-1.012 2.354 2.354 0 0 0-.9-.637c-.35-.149-.749-.223-1.196-.223s-.848.074-1.202.223a2.429 2.429 0 0 0-.907.637 2.834 2.834 0 0 0-.565 1.012 4.239 4.239 0 0 0-.197 1.34c0 .504.066.955.197 1.353.131.394.32.729.565 1.005.25.276.552.488.907.637.355.145.756.217 1.202.217s.845-.072 1.196-.217c.355-.149.655-.361.9-.637.25-.276.44-.611.572-1.005.131-.399.197-.85.197-1.353zM50.576 18.95l-3.837 9.533h-1.787l-3.837-9.533h1.59c.171 0 .309.042.414.125.11.079.191.182.243.309l2.063 5.492c.079.206.155.431.23.677.079.241.151.495.217.762.057-.267.118-.521.184-.762.07-.245.145-.471.223-.677l2.05-5.492a.725.725 0 0 1 .23-.296.648.648 0 0 1 .421-.138h1.596zM54.756 20.494v2.451h3.18v1.491h-3.18v2.503h4.087v1.544h-6.071V18.95h6.071v1.544h-4.087zM69.798 18.95v9.533H68.78a.933.933 0 0 1-.388-.072.986.986 0 0 1-.309-.263l-4.75-6.044c.013.153.022.304.026.453.009.149.013.287.013.414v5.512h-1.741V18.95h1.038c.083 0 .153.004.21.013.061.004.116.02.164.046.048.022.094.053.138.092s.092.092.145.158l4.783 6.071a9.76 9.76 0 0 1-.052-.927V18.95h1.741zM75.079 22.885h.388c.324 0 .558-.101.703-.302l2.411-3.226a.924.924 0 0 1 .375-.315c.136-.061.302-.092.499-.092h1.708l-3.035 3.909c-.197.254-.401.436-.611.545.153.061.291.142.414.243.123.096.241.226.355.388l3.114 4.448h-1.754a1.5 1.5 0 0 1-.296-.026c-.079-.017-.149-.042-.21-.072s-.114-.068-.158-.112a1.282 1.282 0 0 1-.125-.164l-2.451-3.43a.7.7 0 0 0-.296-.25c-.114-.053-.274-.079-.48-.079h-.552v4.133h-1.971V18.95h1.971v3.935zM92.308 23.713c0 .696-.118 1.342-.355 1.938a4.479 4.479 0 0 1-.992 1.544 4.593 4.593 0 0 1-1.537 1.025c-.6.245-1.266.368-1.997.368s-1.397-.123-1.997-.368c-.6-.25-1.115-.591-1.544-1.025s-.762-.948-.999-1.544c-.232-.596-.348-1.242-.348-1.938s.116-1.34.348-1.932c.236-.596.569-1.11.999-1.544s.944-.773 1.544-1.018c.6-.25 1.266-.374 1.997-.374s1.397.125 1.997.374c.6.245 1.112.587 1.537 1.025.429.434.76.948.992 1.544.237.591.355 1.233.355 1.925zm-2.017 0c0-.499-.066-.946-.197-1.34a2.773 2.773 0 0 0-.572-1.012 2.354 2.354 0 0 0-.9-.637c-.35-.149-.749-.223-1.196-.223s-.847.074-1.202.223a2.429 2.429 0 0 0-.907.637 2.834 2.834 0 0 0-.565 1.012 4.239 4.239 0 0 0-.197 1.34c0 .504.066.955.197 1.353.131.394.32.729.565 1.005.25.276.552.488.907.637.355.145.756.217 1.202.217s.845-.072 1.196-.217c.355-.149.655-.361.9-.637.25-.276.44-.611.572-1.005.131-.399.197-.85.197-1.353z"/></symbol><symbol id="close-icon" viewBox="0 0 30 32"><path d="m16.94 15.439 7.958-7.945A1.268 1.268 0 1 0 23.104 5.7l-7.945 7.958L7.214 5.7A1.268 1.268 0 1 0 5.42 7.494l7.958 7.945-7.958 7.945a1.247 1.247 0 0 0-.374.897 1.266 1.266 0 0 0 .374.897 1.247 1.247 0 0 0 .897.374 1.266 1.266 0 0 0 .897-.374l7.945-7.958 7.945 7.958a1.247 1.247 0 0 0 .897.374 1.266 1.266 0 0 0 .897-.374 1.247 1.247 0 0 0 .374-.897 1.266 1.266 0 0 0-.374-.897l-7.958-7.945z"/></symbol></defs></svg>