<svg aria-hidden="true" style="width:0;height:0;position:absolute;overflow:hidden" xmlns="http://www.w3.org/2000/svg"><defs><symbol id="account" viewBox="0 0 31 32"><path d="M23.51 9.469a7.837 7.837 0 1 0-15.675 0 7.837 7.837 0 0 0 15.675 0zm-2.612 0a5.224 5.224 0 1 1-10.448 0 5.224 5.224 0 0 1 10.448 0zM15.674 18.612c-3.834 0-6.598.795-8.58 1.988-1.991 1.197-3.109 2.744-3.726 4.096-.52 1.14-.284 2.302.408 3.13.659.789 1.684 1.235 2.756 1.235h18.286c1.072 0 2.097-.446 2.756-1.235.692-.828.928-1.99.408-3.13-.617-1.353-1.735-2.899-3.726-4.097-1.983-1.192-4.747-1.988-8.581-1.988zm-9.931 7.169c.429-.939 1.216-2.052 2.696-2.943 1.488-.895 3.76-1.614 7.234-1.614s5.746.719 7.234 1.614c1.48.89 2.267 2.004 2.696 2.943a.367.367 0 0 1 .043.212.328.328 0 0 1-.08.159c-.118.141-.38.297-.751.297H6.529c-.371 0-.633-.156-.751-.297a.328.328 0 0 1-.08-.159.376.376 0 0 1 .043-.212z"/></symbol><symbol id="Arrow-Left" viewBox="0 0 31 32"><path d="M10.066 8.546c.51.51.51 1.337 0 1.847l-4.301 4.301h22.969a1.306 1.306 0 0 1 0 2.612H5.765l4.301 4.301a1.306 1.306 0 0 1-1.847 1.847l-6.531-6.531a1.306 1.306 0 0 1 0-1.847l6.531-6.531c.51-.51 1.337-.51 1.847 0z"/></symbol><symbol id="arrow-right" viewBox="0 0 31 32"><path d="M21.281 21.607a1.306 1.306 0 0 0 1.847 1.847l6.531-6.531c.51-.51.51-1.337 0-1.847l-6.531-6.531a1.306 1.306 0 0 0-1.847 1.847l4.301 4.301H2.613a1.306 1.306 0 0 0 0 2.612h22.969l-4.301 4.301z"/></symbol><symbol id="burger-2" viewBox="0 0 31 32"><path d="M3.918 14.694h23.51a1.308 1.308 0 0 0 0-2.614H3.918a1.308 1.308 0 0 0 0 2.614zm23.511 2.612H3.919a1.308 1.308 0 0 0 0 2.614h23.51a1.308 1.308 0 0 0 0-2.614z"/></symbol><symbol id="burger" viewBox="0 0 31 32"><path d="M2.612 8.163c0-.721.585-1.306 1.306-1.306h23.51a1.306 1.306 0 0 1 0 2.612H3.918a1.306 1.306 0 0 1-1.306-1.306zM2.612 16c0-.721.585-1.306 1.306-1.306h23.51a1.306 1.306 0 0 1 0 2.612H3.918A1.306 1.306 0 0 1 2.612 16zM3.918 22.531a1.306 1.306 0 0 0 0 2.612h23.51a1.306 1.306 0 0 0 0-2.612H3.918z"/></symbol><symbol id="chat-dots-fill" viewBox="0 0 31 32"><path d="M29.67 15.185c0 6.764-6.266 12.247-13.996 12.247-1.429 0-2.808-.187-4.106-.536-1.021.518-3.368 1.513-7.315 2.159-.348.057-.615-.307-.477-.632.619-1.463 1.178-3.412 1.349-5.19-2.146-2.152-3.446-4.967-3.446-8.048 0-6.764 6.266-12.247 13.996-12.247s13.996 5.483 13.996 12.247zm-19.245 0a1.75 1.75 0 1 0-3.5 0 1.75 1.75 0 0 0 3.5 0zm6.998 0a1.75 1.75 0 1 0-3.5 0 1.75 1.75 0 0 0 3.5 0zm5.249 1.75a1.75 1.75 0 1 0 0-3.5 1.75 1.75 0 0 0 0 3.5z"/></symbol><symbol id="Check" viewBox="0 0 31 32"><path d="M28.352 7.24c.51.51.51 1.337 0 1.847L12.679 24.76c-.51.51-1.337.51-1.847 0l-7.837-7.837a1.306 1.306 0 0 1 1.847-1.847l6.913 6.913 14.75-14.75c.51-.51 1.337-.51 1.847 0z"/></symbol><symbol id="Chevron-Down" viewBox="0 0 31 32"><path d="M4.301 11.158c.51-.51 1.337-.51 1.847 0l9.525 9.525 9.525-9.525a1.306 1.306 0 0 1 1.847 1.847L16.596 23.454c-.51.51-1.337.51-1.847 0L4.3 13.005a1.306 1.306 0 0 1 0-1.847z"/></symbol><symbol id="Chevron-Left" viewBox="0 0 31 32"><path d="M20.515 4.627c.51.51.51 1.337 0 1.847l-9.525 9.525 9.525 9.525a1.306 1.306 0 0 1-1.847 1.847L8.219 16.922a1.306 1.306 0 0 1 0-1.847L18.668 4.626c.51-.51 1.337-.51 1.847 0z"/></symbol><symbol id="Chevron-Right" viewBox="0 0 31 32"><path d="M10.832 4.627c.51-.51 1.337-.51 1.847 0l10.449 10.449c.51.51.51 1.337 0 1.847L12.679 27.372a1.306 1.306 0 0 1-1.847-1.847L20.357 16l-9.525-9.525a1.306 1.306 0 0 1 0-1.847z"/></symbol><symbol id="Chevron-UP" viewBox="0 0 31 32"><path d="M14.75 8.546c.51-.51 1.337-.51 1.847 0l10.449 10.449a1.306 1.306 0 0 1-1.847 1.847l-9.525-9.525-9.525 9.525a1.306 1.306 0 0 1-1.847-1.847L14.751 8.546z"/></symbol><symbol id="Clock" viewBox="0 0 31 32"><path d="M15.673 2.939a13.065 13.065 0 0 0-8.986 3.618V4.245a1.308 1.308 0 0 0-2.614 0v5.878A1.308 1.308 0 0 0 5.38 11.43h5.878a1.308 1.308 0 0 0 0-2.614H8.123a10.446 10.446 0 0 1 13.219-1.552 10.442 10.442 0 0 1 4.02 12.688A10.45 10.45 0 0 1 5.225 16a1.308 1.308 0 0 0-2.614 0A13.062 13.062 0 1 0 15.673 2.938zm0 7.836a1.308 1.308 0 0 0-1.307 1.307V16a1.308 1.308 0 0 0 1.307 1.307h2.612a1.308 1.308 0 0 0 0-2.614h-1.306v-2.612a1.308 1.308 0 0 0-1.307-1.307z"/></symbol><symbol id="close" viewBox="0 0 31 32"><path d="m17.515 16 8.229-8.216A1.312 1.312 0 0 0 23.89 5.93l-8.216 8.229L7.458 5.93a1.312 1.312 0 0 0-1.854 1.854L13.833 16l-8.229 8.215a1.305 1.305 0 0 0 0 1.854 1.305 1.305 0 0 0 1.854 0l8.216-8.229 8.216 8.229a1.305 1.305 0 0 0 1.854 0 1.31 1.31 0 0 0 0-1.854l-8.229-8.216z"/></symbol><symbol id="Digit" viewBox="0 0 31 32"><path d="M14.878 23.184h2.86V9.38h-2.87L11.3 11.858v2.602l3.52-2.43h.057v11.154z"/></symbol><symbol id="down-right" viewBox="0 0 31 32"><path d="M8.219 8.546c.51-.51 1.337-.51 1.847 0l10.832 10.832V9.47a1.306 1.306 0 0 1 2.612 0v13.061c0 .721-.585 1.306-1.306 1.306H9.143a1.306 1.306 0 0 1 0-2.612h9.908L8.219 10.393a1.306 1.306 0 0 1 0-1.847z"/></symbol><symbol id="Eclipse-activate" viewBox="0 0 31 32"><path d="M22.204 16a6.531 6.531 0 1 1-13.062 0 6.531 6.531 0 0 1 13.062 0z"/></symbol><symbol id="Eclipse-normal" viewBox="0 0 31 32"><path fill="#ddd" style="fill:var(--color1,#ddd)" d="M22.204 16a6.531 6.531 0 1 1-13.062 0 6.531 6.531 0 0 1 13.062 0z"/></symbol><symbol id="Error" viewBox="0 0 31 32"><path d="M16.899 3.183c.388.161.741.397 1.038.694l9.86 9.859a3.187 3.187 0 0 1 .939 2.265 3.204 3.204 0 0 1-.939 2.265l-9.86 9.859a3.207 3.207 0 0 1-2.263.938 3.199 3.199 0 0 1-2.263-.938l-9.86-9.859a3.187 3.187 0 0 1-.939-2.265 3.204 3.204 0 0 1 .939-2.265l9.86-9.859a3.207 3.207 0 0 1 2.263-.938c.42 0 .837.083 1.225.244zm-2.356 15.545a1.597 1.597 0 0 0 2.728-1.13V9.605a1.595 1.595 0 0 0-1.598-1.598 1.595 1.595 0 0 0-1.598 1.598v7.993c0 .424.168.831.468 1.13zm0 4.796a1.597 1.597 0 1 0 2.259-2.258 1.597 1.597 0 0 0-2.259 2.258z"/></symbol><symbol id="facebook" viewBox="0 0 31 32"><path d="M28.815 16.079A13.145 13.145 0 0 0 13.87 3.063a13.146 13.146 0 0 0-10.774 9.205 13.139 13.139 0 0 0 3.849 13.638 13.14 13.14 0 0 0 6.674 3.155v-9.184h-3.336v-3.799h3.336v-2.895c0-3.294 1.962-5.113 4.964-5.113.986.014 1.969.099 2.942.256v3.235h-1.658a1.898 1.898 0 0 0-2.141 2.053v2.464h3.645l-.583 3.799h-3.062v9.184a13.144 13.144 0 0 0 11.089-12.982z"/></symbol><symbol id="Git" viewBox="0 0 31 32"><path d="M15.673 2.776c-7.364 0-13.39 6.025-13.39 13.39 0 5.942 3.849 10.963 9.122 12.72.67.084.921-.251.921-.669v-2.259c-3.766.837-4.519-1.757-4.519-1.757-.586-1.506-1.506-1.925-1.506-1.925-1.255-.837.084-.837.084-.837 1.339.084 2.092 1.339 2.092 1.339 1.172 2.008 3.096 1.423 3.933 1.088a2.886 2.886 0 0 1 .837-1.757c-3.013-.335-6.109-1.506-6.109-6.611 0-1.423.502-2.678 1.339-3.598-.167-.335-.586-1.674.167-3.515 0 0 1.088-.335 3.682 1.339 1.088-.335 2.176-.418 3.347-.418s2.259.167 3.347.418c2.594-1.757 3.682-1.423 3.682-1.423.753 1.841.251 3.18.167 3.515.837.921 1.339 2.092 1.339 3.598 0 5.105-3.096 6.276-6.109 6.611.502.418.921 1.255.921 2.511v3.682c0 .335.251.753.921.669 5.272-1.757 9.122-6.778 9.122-12.72 0-7.364-6.025-13.39-13.389-13.39z"/></symbol><symbol id="Home" viewBox="0 0 31 32"><path d="m26.123 10.775-7.837-6.87a3.915 3.915 0 0 0-5.224 0l-7.837 6.87a3.912 3.912 0 0 0-1.306 2.952v11.415a3.92 3.92 0 0 0 3.919 3.919h15.673a3.92 3.92 0 0 0 3.919-3.919V13.713a3.919 3.919 0 0 0-1.306-2.939zm-7.837 15.674h-5.224v-6.531a1.308 1.308 0 0 1 1.307-1.307h2.612a1.308 1.308 0 0 1 1.307 1.307v6.531zm6.53-1.306a1.308 1.308 0 0 1-1.307 1.307h-2.612v-6.531A3.92 3.92 0 0 0 16.978 16h-2.612a3.92 3.92 0 0 0-3.919 3.919v6.531H7.835a1.308 1.308 0 0 1-1.307-1.307V13.714a1.3 1.3 0 0 1 .445-.98l7.837-6.857a1.308 1.308 0 0 1 1.724 0l7.837 6.857a1.313 1.313 0 0 1 .444.98v11.429z"/></symbol><symbol id="info" viewBox="0 0 31 32"><path d="M15.673 5.314C9.771 5.314 4.987 10.098 4.987 16s4.784 10.686 10.686 10.686S26.359 21.902 26.359 16 21.575 5.314 15.673 5.314zM2.612 16c0-7.214 5.848-13.061 13.061-13.061S28.734 8.787 28.734 16c0 7.214-5.848 13.061-13.061 13.061S2.612 23.213 2.612 16zm11.874-4.75c0-.656.532-1.187 1.187-1.187h.012a1.187 1.187 0 0 1 0 2.374h-.012a1.187 1.187 0 0 1-1.187-1.187zm1.187 3.563c.656 0 1.187.532 1.187 1.187v4.75a1.187 1.187 0 0 1-2.374 0V16c0-.656.532-1.187 1.187-1.187z"/></symbol><symbol id="instagram" viewBox="0 0 31 32"><path d="M15.671 5.29c3.483 0 3.901.013 5.277.076.828.01 1.649.162 2.426.45.567.209 1.08.543 1.501.977.434.421.768.934.977 1.501.288.777.44 1.597.45 2.426.063 1.379.078 1.797.078 5.28s-.013 3.901-.076 5.277a7.233 7.233 0 0 1-.45 2.426 4.32 4.32 0 0 1-2.478 2.478 7.228 7.228 0 0 1-2.426.45c-1.377.063-1.79.076-5.277.076s-3.901-.013-5.277-.076a7.233 7.233 0 0 1-2.426-.45 4.037 4.037 0 0 1-1.501-.977 4.037 4.037 0 0 1-.977-1.501 7.228 7.228 0 0 1-.45-2.426c-.065-1.377-.081-1.79-.081-5.277s.013-3.901.076-5.277c.01-.828.162-1.649.45-2.426.21-.567.545-1.08.979-1.501a4.037 4.037 0 0 1 1.501-.977 7.228 7.228 0 0 1 2.426-.45c1.377-.063 1.794-.078 5.277-.078zm0-2.351c-3.547 0-3.992.015-5.384.078a9.626 9.626 0 0 0-3.171.609 6.4 6.4 0 0 0-2.312 1.505 6.4 6.4 0 0 0-1.507 2.313 9.6 9.6 0 0 0-.609 3.171c-.061 1.392-.076 1.837-.076 5.384s.015 3.992.078 5.384a9.626 9.626 0 0 0 .609 3.171 6.43 6.43 0 0 0 1.507 2.313 6.405 6.405 0 0 0 2.312 1.507 9.626 9.626 0 0 0 3.171.609c1.393.064 1.837.078 5.384.078s3.992-.015 5.384-.078a9.626 9.626 0 0 0 3.171-.609 6.69 6.69 0 0 0 3.82-3.82 9.627 9.627 0 0 0 .61-3.171c.064-1.393.078-1.837.078-5.384s-.015-3.992-.078-5.384a9.602 9.602 0 0 0-.61-3.171 6.418 6.418 0 0 0-1.507-2.313 6.4 6.4 0 0 0-2.313-1.507 9.6 9.6 0 0 0-3.171-.609c-1.395-.061-1.84-.076-5.387-.076z"/><path d="M15.671 9.295a6.704 6.704 0 1 0 .002 13.41 6.704 6.704 0 0 0-.003-13.411zm0 11.057a4.35 4.35 0 0 1-4.022-2.688 4.357 4.357 0 0 1 .943-4.744 4.354 4.354 0 1 1 3.079 7.432zM22.642 10.594a1.567 1.567 0 1 0 0-3.134 1.567 1.567 0 0 0 0 3.134z"/></symbol><symbol id="linkedin" viewBox="0 0 31 32"><path d="M2.612 4.647c0-1.033.859-1.871 1.918-1.871h22.286c1.059 0 1.918.838 1.918 1.871v22.38c0 1.033-.859 1.871-1.918 1.871H4.53c-1.059 0-1.918-.838-1.918-1.871V4.647zm8.071 19.996V12.847H6.762v11.796h3.921zm-1.96-13.407c1.367 0 2.218-.906 2.218-2.038-.025-1.157-.851-2.038-2.192-2.038s-2.218.881-2.218 2.038c0 1.132.851 2.038 2.167 2.038h.026zm8.014 13.407v-6.587c0-.353.025-.705.129-.957.283-.704.929-1.434 2.012-1.434 1.419 0 1.986 1.082 1.986 2.667v6.31h3.92v-6.764c0-3.623-1.934-5.309-4.514-5.309-2.08 0-3.012 1.143-3.533 1.947v.041h-.026l.026-.041v-1.67h-3.921c.051 1.107 0 11.796 0 11.796h3.921z"/></symbol><symbol id="mail-fill" viewBox="0 0 31 32"><path d="M1.395 8.018a3.593 3.593 0 0 1 3.503-2.793h21.551a3.594 3.594 0 0 1 3.503 2.793l-14.278 8.726L1.396 8.018zm-.089 2.05v12.757l10.422-6.388-10.422-6.369zm12.143 7.421L1.651 24.721a3.592 3.592 0 0 0 3.247 2.055h21.551c1.434 0 2.671-.84 3.247-2.055l-11.798-7.232-2.224 1.359-2.224-1.359zm6.17-1.052 10.422 6.388V10.068l-10.422 6.369z"/></symbol><symbol id="Mail" viewBox="0 0 31 32"><path d="M1.306 8.163a3.918 3.918 0 0 1 3.918-3.918h20.898a3.918 3.918 0 0 1 3.918 3.918v15.673a3.918 3.918 0 0 1-3.918 3.918H5.224a3.918 3.918 0 0 1-3.918-3.918V8.163zm3.918-1.306c-.721 0-1.306.585-1.306 1.306v1.873l11.755 7.053 11.755-7.053V8.163c0-.721-.585-1.306-1.306-1.306H5.224zm22.205 6.225-10.411 6.247a2.614 2.614 0 0 1-2.688 0L3.919 13.082v10.754c0 .721.585 1.306 1.306 1.306h20.898c.721 0 1.306-.585 1.306-1.306V13.082z"/></symbol><symbol id="paperclip" viewBox="0 0 31 32"><path d="M8.816 6.204a4.898 4.898 0 0 1 9.796 0v17.633a2.94 2.94 0 0 1-5.878 0V10.123a.98.98 0 0 1 1.96 0v13.714a.98.98 0 0 0 1.96 0V6.204a2.94 2.94 0 0 0-5.878 0v17.633a4.898 4.898 0 0 0 9.796 0V10.123a.98.98 0 0 1 1.96 0v13.714a6.857 6.857 0 0 1-13.714 0V6.204z"/></symbol><symbol id="Person" viewBox="0 0 31 32"><path d="M4.789 29.061s-2.177 0-2.177-2.177 2.177-8.708 13.061-8.708 13.061 6.531 13.061 8.708c0 2.177-2.177 2.177-2.177 2.177H4.788zM15.673 16a6.531 6.531 0 1 0 0-13.062 6.531 6.531 0 0 0 0 13.062z"/></symbol><symbol id="phone" viewBox="0 0 31 32"><path d="m26.175 20.753-3.694-.422a2.895 2.895 0 0 0-2.385.829l-2.676 2.676a21.88 21.88 0 0 1-9.583-9.583l2.69-2.69a2.895 2.895 0 0 0 .829-2.385l-.422-3.665A2.91 2.91 0 0 0 8.04 2.939H5.524c-1.643 0-3.01 1.367-2.908 3.01.771 12.419 10.703 22.336 23.107 23.107 1.643.102 3.01-1.265 3.01-2.908v-2.516c.015-1.469-1.091-2.705-2.559-2.879z"/></symbol><symbol id="Play-Field" viewBox="0 0 31 32"><path d="M25.569 12.623c2.576 1.515 2.576 5.24 0 6.755l-14.44 8.494c-2.612 1.537-5.905-.347-5.905-3.377V7.507c0-3.031 3.293-4.914 5.905-3.377l14.44 8.494z"/></symbol><symbol id="play" viewBox="0 0 31 32"><path d="M24.245 17.126a1.307 1.307 0 0 0 0-2.252L9.805 6.38a1.306 1.306 0 0 0-1.968 1.126v16.988a1.306 1.306 0 0 0 1.968 1.126l14.44-8.494zm1.324-4.503c2.576 1.515 2.576 5.24 0 6.755l-14.44 8.494c-2.612 1.537-5.905-.347-5.905-3.377V7.507c0-3.031 3.293-4.914 5.905-3.377l14.44 8.494z"/></symbol><symbol id="Plus" viewBox="0 0 31 32"><path d="M16.98 6.857a1.306 1.306 0 0 0-2.612 0v7.837H6.531a1.306 1.306 0 0 0 0 2.612h7.837v7.837a1.306 1.306 0 0 0 2.612 0v-7.837h7.837a1.306 1.306 0 0 0 0-2.612H16.98V6.857z"/></symbol><symbol id="search" viewBox="0 0 31 32"><path d="m21.467 20.029 5.146 5.238a1.303 1.303 0 0 1-.043 1.818 1.304 1.304 0 0 1-1.819.013l-5.143-5.232a9.795 9.795 0 1 1 1.858-1.837zm-7.753 1.195a7.187 7.187 0 0 0 7.184-7.184 7.187 7.187 0 0 0-7.184-7.184A7.187 7.187 0 0 0 6.53 14.04a7.187 7.187 0 0 0 7.184 7.184z"/></symbol><symbol id="Skype" viewBox="0 0 31 32"><path d="M10.359 2.939a7.64 7.64 0 0 1 4.028 1.147 12.12 12.12 0 0 1 5.911.847 12.08 12.08 0 0 1 3.919 2.61 12.03 12.03 0 0 1 3.538 8.513c0 .562-.039 1.122-.118 1.676a7.59 7.59 0 0 1 .397 6.634c-.383.923-.945 1.761-1.654 2.467a7.642 7.642 0 0 1-5.395 2.227 7.652 7.652 0 0 1-3.87-1.051 12.143 12.143 0 0 1-6.064-.83 12.08 12.08 0 0 1-3.919-2.61 12.03 12.03 0 0 1-3.539-8.513c0-.592.044-1.182.13-1.765a7.59 7.59 0 0 1 1.241-9.126 7.64 7.64 0 0 1 5.393-2.226zm.729 11.444c.295.505.702.934 1.19 1.256.647.423 1.334.781 2.052 1.067.803.336 1.426.62 1.869.853.375.184.714.432 1.005.731.22.233.342.542.341.862a1.425 1.425 0 0 1-.545 1.18 2.569 2.569 0 0 1-1.617.431 4.323 4.323 0 0 1-1.711-.336 18.326 18.326 0 0 1-.868-.413 2.092 2.092 0 0 0-.958-.246c-.3-.012-.593.091-.819.289a1.026 1.026 0 0 0-.318.801c-.007.282.078.558.242.787.197.25.453.449.744.578a8.366 8.366 0 0 0 3.613.684 7.434 7.434 0 0 0 2.651-.432 3.743 3.743 0 0 0 1.763-1.309 3.61 3.61 0 0 0 .63-2.166 3.416 3.416 0 0 0-.455-1.797 4.132 4.132 0 0 0-1.261-1.294 11.757 11.757 0 0 0-2.048-1.053 1.803 1.803 0 0 0-.237-.095 27.885 27.885 0 0 1-1.654-.73 2.999 2.999 0 0 1-.882-.631 1.186 1.186 0 0 1-.327-.83 1.313 1.313 0 0 1 .631-1.18 2.884 2.884 0 0 1 1.58-.404c.425-.004.849.048 1.261.157a10 10 0 0 1 1.309.479c.172.08.36.122.549.124a.979.979 0 0 0 .74-.308 1.133 1.133 0 0 0 .295-.811 1.176 1.176 0 0 0-.279-.778 2.24 2.24 0 0 0-.906-.578 5.998 5.998 0 0 0-1.157-.299 9.811 9.811 0 0 0-1.668-.128 7.41 7.41 0 0 0-2.508.422c-.74.25-1.401.692-1.916 1.28a3.122 3.122 0 0 0-.735 2.1 3.46 3.46 0 0 0 .408 1.735z"/></symbol><symbol id="Star-Field" viewBox="0 0 31 32"><path d="M13.319 4.653c.737-2.286 3.971-2.286 4.708 0l2.05 6.358h6.654c2.392 0 3.391 3.057 1.461 4.469l-5.399 3.953 2.059 6.384c.736 2.282-1.881 4.172-3.815 2.755l-5.363-3.926-5.363 3.926c-1.935 1.417-4.551-.473-3.815-2.755l2.059-6.384-5.399-3.953c-1.93-1.413-.93-4.469 1.461-4.469h6.654l2.05-6.358z"/></symbol><symbol id="Star" viewBox="0 0 31 32"><path d="M13.319 4.653c.737-2.286 3.971-2.286 4.708 0l2.05 6.358h6.654c2.392 0 3.391 3.057 1.461 4.469l-5.399 3.953 2.059 6.384c.736 2.282-1.881 4.172-3.815 2.755l-5.363-3.926-5.363 3.926c-1.935 1.417-4.551-.473-3.815-2.755l2.059-6.384-5.399-3.953c-1.93-1.413-.93-4.469 1.461-4.469h6.654l2.05-6.358zm4.405 7.117-2.05-6.358-2.05 6.358a2.474 2.474 0 0 1-2.354 1.714H4.616l5.399 3.953c.86.63 1.22 1.74.893 2.755l-2.059 6.384 5.363-3.926a2.473 2.473 0 0 1 2.922 0l5.363 3.926-2.059-6.384a2.474 2.474 0 0 1 .893-2.755l5.399-3.953h-6.654a2.473 2.473 0 0 1-2.354-1.714z"/></symbol><symbol id="success" viewBox="0 0 31 32"><path d="M15.673 29.061a13.061 13.061 0 1 1 0-26.122 13.061 13.061 0 0 1 0 26.122zm2.227-17.9-3.513 6.71-2.519-2.269c-.159-.143-.346-.254-.548-.326s-.416-.103-.631-.091a1.644 1.644 0 0 0-1.127.538 1.648 1.648 0 0 0-.326.548c-.072.202-.103.416-.091.631s.065.424.157.618.222.367.381.51l4.082 3.673a1.62 1.62 0 0 0 1.381.394 1.63 1.63 0 0 0 1.158-.85l4.49-8.571a1.634 1.634 0 0 0-2.893-1.515z"/></symbol><symbol id="tel" viewBox="0 0 31 32"><path d="M4.539 5.195a3.698 3.698 0 0 1 5.832-.239l2.49 2.943c.722.854.821 2.073.246 3.031l-1.918 3.197c.154.252.362.552.629.895a21.757 21.757 0 0 0 1.76 1.966c1.141 1.141 2.418 2.218 3.517 2.946l3.135-1.881a2.613 2.613 0 0 1 3.031.246l3.085 2.61a3.553 3.553 0 0 1-.23 5.603c-2.907 2.076-6.813 2.57-10.014.616-2.206-1.347-4.91-3.248-7.329-5.667a32.797 32.797 0 0 1-5.018-6.501c-1.879-3.185-1.218-6.965.783-9.767zm3.838 1.448a1.086 1.086 0 0 0-1.712.07c-1.556 2.179-1.89 4.835-.659 6.922a30.153 30.153 0 0 0 4.615 5.981c2.226 2.226 4.746 4.005 6.843 5.284 2.16 1.318 4.931 1.062 7.134-.512a.94.94 0 0 0 .061-1.483l-3.085-2.61-3.816 2.29a1.309 1.309 0 0 1-1.317.016c-1.5-.852-3.253-2.305-4.711-3.763a24.48 24.48 0 0 1-1.975-2.209c-.54-.694-1.018-1.419-1.275-2.078-.147-.377-.111-.8.097-1.147l2.29-3.816-2.49-2.943z"/></symbol><symbol id="Telegram" viewBox="0 0 31 32"><path d="M28.735 16c0 7.214-5.848 13.061-13.061 13.061S2.613 23.213 2.613 16c0-7.214 5.848-13.061 13.061-13.061S28.735 8.787 28.735 16zm-12.594-3.419c-1.27.528-3.809 1.622-7.617 3.281-.618.246-.942.486-.972.722-.05.398.448.554 1.126.767l.286.091c.667.217 1.564.47 2.03.48.423.009.895-.165 1.416-.523 3.558-2.401 5.394-3.615 5.509-3.641.081-.018.194-.042.27.026s.069.196.061.231c-.049.21-2.003 2.027-3.014 2.967-.315.293-.539.501-.585.548-.102.106-.207.207-.307.304-.62.597-1.084 1.045.026 1.777.533.351.96.642 1.386.932.465.317.929.633 1.529 1.026.153.1.299.204.441.306.541.386 1.027.732 1.628.677.349-.032.709-.36.893-1.339.433-2.313 1.283-7.325 1.48-9.39.017-.181-.004-.413-.022-.514s-.054-.247-.186-.354c-.156-.127-.398-.154-.506-.152-.491.009-1.245.271-4.872 1.779z"/></symbol><symbol id="Twitter-Field" viewBox="0 0 31 32"><path d="M30.367 6.936c-1.099.458-2.197.824-3.479.916 1.282-.732 2.197-1.923 2.655-3.296-1.19.732-2.472 1.19-3.845 1.465-1.099-1.19-2.655-1.923-4.303-1.923-3.296 0-6.042 2.655-6.042 6.042 0 .458.092.916.183 1.373-5.035-.275-9.43-2.655-12.451-6.317a5.765 5.765 0 0 0-.824 3.021c0 2.106 1.099 3.937 2.655 5.035a5.603 5.603 0 0 1-2.747-.732v.092c0 2.93 2.106 5.31 4.852 5.859-.549.092-1.007.183-1.556.183-.366 0-.732 0-1.099-.092.732 2.38 3.021 4.12 5.585 4.211-2.014 1.648-4.669 2.563-7.507 2.563-.458 0-1.007 0-1.465-.092 2.747 1.648 5.951 2.655 9.338 2.655 11.078 0 17.12-9.155 17.12-17.12v-.732c1.099-.915 2.106-1.923 2.93-3.113z"/></symbol><symbol id="up-right" viewBox="0 0 31 32"><path d="M9.143 10.775a1.306 1.306 0 0 1 0-2.612h13.061c.721 0 1.306.585 1.306 1.306V22.53a1.306 1.306 0 0 1-2.612 0v-9.908L10.066 23.454a1.306 1.306 0 0 1-1.847-1.847l10.832-10.832H9.143z"/></symbol><symbol id="whatsapp" viewBox="0 0 31 32"><path d="M24.877 6.737a12.82 12.82 0 0 0-9.154-3.798c-7.131 0-12.94 5.809-12.946 12.94 0 2.284.596 4.506 1.725 6.473l-1.831 6.709 6.864-1.8a12.956 12.956 0 0 0 6.188 1.576h.006c7.131 0 12.94-5.809 12.946-12.946a12.894 12.894 0 0 0-3.798-9.154zm-9.154 19.91c-1.936 0-3.829-.521-5.48-1.502l-.391-.236-4.071 1.067 1.086-3.972-.254-.41a10.711 10.711 0 0 1-1.645-5.722c0-5.921 4.829-10.749 10.762-10.749 2.874 0 5.573 1.123 7.609 3.153a10.703 10.703 0 0 1 3.147 7.609c-.006 5.939-4.835 10.762-10.762 10.762zm5.902-8.056c-.323-.161-1.912-.943-2.209-1.055-.298-.106-.515-.161-.726.161-.217.323-.838 1.055-1.024 1.266-.186.217-.379.242-.701.081s-1.365-.503-2.6-1.607c-.962-.857-1.607-1.918-1.8-2.241-.186-.323-.019-.497.143-.658.143-.143.323-.379.484-.565s.217-.323.323-.54c.106-.217.056-.403-.025-.565s-.726-1.756-.999-2.402c-.261-.633-.528-.546-.726-.552-.186-.012-.403-.012-.621-.012s-.565.081-.863.403c-.298.323-1.13 1.105-1.13 2.7s1.161 3.128 1.322 3.345c.161.217 2.278 3.482 5.524 4.884.77.335 1.372.534 1.843.683.776.248 1.477.211 2.036.13.621-.093 1.912-.782 2.185-1.539.267-.757.267-1.403.186-1.539s-.298-.217-.621-.379z"/></symbol><symbol id="logo-small" viewBox="0 0 92 32"><path d="M11.635 3.182v9.533H9.894V6.861c0-.123.002-.254.007-.394.009-.14.022-.282.039-.427l-2.727 5.171c-.149.285-.379.427-.69.427h-.276a.783.783 0 0 1-.407-.105.781.781 0 0 1-.282-.322l-2.74-5.19c.013.153.024.302.033.447.009.14.013.272.013.394v5.854H1.123V3.183h1.498c.083 0 .158.002.223.007s.123.018.171.039a.317.317 0 0 1 .138.092.61.61 0 0 1 .125.171l2.667 5.085c.083.153.16.311.23.473.074.162.145.329.21.499.066-.175.134-.346.204-.512.074-.166.153-.326.237-.48l2.648-5.065a.62.62 0 0 1 .125-.171.388.388 0 0 1 .138-.092.534.534 0 0 1 .171-.039c.066-.004.142-.007.23-.007h1.498zM19.246 9.049v3.666h-1.971V9.049l-3.462-5.867h1.735c.171 0 .307.042.407.125a.84.84 0 0 1 .25.309l1.564 3.003c.105.201.199.39.283.565.088.175.164.35.23.526.061-.175.131-.35.21-.526.083-.18.175-.368.276-.565l1.551-3.002c.053-.105.131-.204.237-.296s.241-.138.407-.138h1.748L19.249 9.05zM26.87 7.117h.388c.324 0 .559-.101.703-.302l2.411-3.226a.924.924 0 0 1 .375-.315c.136-.061.302-.092.499-.092h1.708l-3.035 3.909c-.197.254-.401.436-.611.545.153.061.291.142.414.243.123.096.241.226.355.388l3.114 4.448h-1.754a1.5 1.5 0 0 1-.296-.026c-.079-.018-.149-.042-.21-.072s-.114-.068-.158-.112a1.282 1.282 0 0 1-.125-.164l-2.451-3.43a.7.7 0 0 0-.296-.25c-.114-.053-.274-.079-.48-.079h-.552v4.133h-1.971V3.182h1.971v3.935zM43.515 3.182v9.533h-1.984V8.609h-4.198v4.106h-1.984V3.182h1.984v4.047h4.198V3.182h1.984zM51.858 9.095l-1.032-2.917a11.218 11.218 0 0 1-.197-.539 12.024 12.024 0 0 1-.191-.67 9.174 9.174 0 0 1-.197.683 7.983 7.983 0 0 1-.191.539l-1.025 2.904h2.832zm3.312 3.62h-1.531a.703.703 0 0 1-.421-.118.774.774 0 0 1-.237-.315l-.644-1.82H48.54l-.644 1.82a.767.767 0 0 1-.23.302.637.637 0 0 1-.414.131h-1.544l3.725-9.533h2.017l3.719 9.533zM59.35 12.715h-1.984V3.182h1.984v9.533zM68.315 11.112v1.603h-5.657V3.182h1.971v7.93h3.686zM79.753 7.945c0 .696-.118 1.342-.355 1.938a4.479 4.479 0 0 1-.992 1.544 4.593 4.593 0 0 1-1.537 1.025c-.6.245-1.266.368-1.997.368s-1.397-.123-1.997-.368c-.6-.25-1.115-.591-1.544-1.025s-.762-.948-.999-1.544c-.232-.596-.348-1.242-.348-1.938s.116-1.34.348-1.932c.237-.596.569-1.11.999-1.544s.944-.773 1.544-1.018c.6-.25 1.266-.374 1.997-.374s1.397.125 1.997.374c.6.245 1.112.587 1.537 1.025.429.434.76.948.992 1.544.236.591.355 1.233.355 1.925zm-2.017 0c0-.499-.066-.946-.197-1.34a2.773 2.773 0 0 0-.572-1.012 2.354 2.354 0 0 0-.9-.637c-.35-.149-.749-.223-1.196-.223s-.847.074-1.202.223a2.429 2.429 0 0 0-.907.637 2.834 2.834 0 0 0-.565 1.012A4.239 4.239 0 0 0 72 7.945c0 .504.066.955.197 1.353.131.394.32.729.565 1.005.25.276.552.488.907.637.355.145.755.217 1.202.217s.845-.072 1.196-.217c.355-.149.655-.361.9-.637.25-.276.44-.611.572-1.005.131-.399.197-.85.197-1.353zM5.433 24.817v3.666H3.462v-3.666L0 18.95h1.734c.171 0 .307.042.407.125a.84.84 0 0 1 .25.309l1.564 3.002c.105.201.199.39.282.565.088.175.164.35.23.526.061-.175.131-.35.21-.526.083-.18.175-.368.276-.565l1.551-3.002c.053-.105.131-.204.237-.296s.241-.138.407-.138h1.748l-3.462 5.867zM15.105 24.863l-1.031-2.917a11.218 11.218 0 0 1-.197-.539 12.024 12.024 0 0 1-.191-.67 9.174 9.174 0 0 1-.197.683 7.983 7.983 0 0 1-.191.539l-1.025 2.904h2.832zm3.311 3.62h-1.531a.705.705 0 0 1-.42-.118.774.774 0 0 1-.237-.315l-.644-1.82h-3.797l-.644 1.82a.767.767 0 0 1-.23.302.64.64 0 0 1-.414.131H8.955l3.725-9.533h2.017l3.719 9.533zM22.584 22.885h.388c.324 0 .558-.101.703-.302l2.411-3.226a.924.924 0 0 1 .375-.315c.136-.061.302-.092.499-.092h1.708l-3.035 3.909c-.197.254-.401.436-.611.545.153.061.291.142.414.243.123.096.241.226.355.388l3.114 4.448h-1.754a1.5 1.5 0 0 1-.296-.026c-.079-.017-.149-.042-.21-.072s-.114-.068-.158-.112a1.282 1.282 0 0 1-.125-.164l-2.451-3.43a.7.7 0 0 0-.296-.25c-.114-.053-.274-.079-.48-.079h-.552v4.133h-1.971V18.95h1.971v3.935zM39.812 23.713c0 .696-.118 1.342-.355 1.938a4.479 4.479 0 0 1-.992 1.544 4.593 4.593 0 0 1-1.537 1.025c-.6.245-1.266.368-1.997.368s-1.397-.123-1.997-.368c-.6-.25-1.115-.591-1.544-1.025s-.762-.948-.999-1.544c-.232-.596-.348-1.242-.348-1.938s.116-1.34.348-1.932c.237-.596.569-1.11.999-1.544s.944-.773 1.544-1.018c.6-.25 1.266-.374 1.997-.374s1.397.125 1.997.374c.6.245 1.113.587 1.537 1.025.429.434.76.948.992 1.544.237.591.355 1.233.355 1.925zm-2.017 0c0-.499-.066-.946-.197-1.34a2.773 2.773 0 0 0-.572-1.012 2.354 2.354 0 0 0-.9-.637c-.35-.149-.749-.223-1.196-.223s-.848.074-1.202.223a2.429 2.429 0 0 0-.907.637 2.834 2.834 0 0 0-.565 1.012 4.239 4.239 0 0 0-.197 1.34c0 .504.066.955.197 1.353.131.394.32.729.565 1.005.25.276.552.488.907.637.355.145.756.217 1.202.217s.845-.072 1.196-.217c.355-.149.655-.361.9-.637.25-.276.44-.611.572-1.005.131-.399.197-.85.197-1.353zM50.576 18.95l-3.837 9.533h-1.787l-3.837-9.533h1.59c.171 0 .309.042.414.125.11.079.191.182.243.309l2.063 5.492c.079.206.155.431.23.677.079.241.151.495.217.762.057-.267.118-.521.184-.762.07-.245.145-.471.223-.677l2.05-5.492a.725.725 0 0 1 .23-.296.648.648 0 0 1 .421-.138h1.596zM54.756 20.494v2.451h3.18v1.491h-3.18v2.503h4.087v1.544h-6.071V18.95h6.071v1.544h-4.087zM69.798 18.95v9.533H68.78a.933.933 0 0 1-.388-.072.986.986 0 0 1-.309-.263l-4.75-6.044c.013.153.022.304.026.453.009.149.013.287.013.414v5.512h-1.741V18.95h1.038c.083 0 .153.004.21.013.061.004.116.02.164.046.048.022.094.053.138.092s.092.092.145.158l4.783 6.071a9.76 9.76 0 0 1-.052-.927V18.95h1.741zM75.079 22.885h.388c.324 0 .558-.101.703-.302l2.411-3.226a.924.924 0 0 1 .375-.315c.136-.061.302-.092.499-.092h1.708l-3.035 3.909c-.197.254-.401.436-.611.545.153.061.291.142.414.243.123.096.241.226.355.388l3.114 4.448h-1.754a1.5 1.5 0 0 1-.296-.026c-.079-.017-.149-.042-.21-.072s-.114-.068-.158-.112a1.282 1.282 0 0 1-.125-.164l-2.451-3.43a.7.7 0 0 0-.296-.25c-.114-.053-.274-.079-.48-.079h-.552v4.133h-1.971V18.95h1.971v3.935zM92.308 23.713c0 .696-.118 1.342-.355 1.938a4.479 4.479 0 0 1-.992 1.544 4.593 4.593 0 0 1-1.537 1.025c-.6.245-1.266.368-1.997.368s-1.397-.123-1.997-.368c-.6-.25-1.115-.591-1.544-1.025s-.762-.948-.999-1.544c-.232-.596-.348-1.242-.348-1.938s.116-1.34.348-1.932c.236-.596.569-1.11.999-1.544s.944-.773 1.544-1.018c.6-.25 1.266-.374 1.997-.374s1.397.125 1.997.374c.6.245 1.112.587 1.537 1.025.429.434.76.948.992 1.544.237.591.355 1.233.355 1.925zm-2.017 0c0-.499-.066-.946-.197-1.34a2.773 2.773 0 0 0-.572-1.012 2.354 2.354 0 0 0-.9-.637c-.35-.149-.749-.223-1.196-.223s-.847.074-1.202.223a2.429 2.429 0 0 0-.907.637 2.834 2.834 0 0 0-.565 1.012 4.239 4.239 0 0 0-.197 1.34c0 .504.066.955.197 1.353.131.394.32.729.565 1.005.25.276.552.488.907.637.355.145.756.217 1.202.217s.845-.072 1.196-.217c.355-.149.655-.361.9-.637.25-.276.44-.611.572-1.005.131-.399.197-.85.197-1.353z"/></symbol><symbol id="close-icon" viewBox="0 0 30 32"><path d="m16.94 15.439 7.958-7.945A1.268 1.268 0 1 0 23.104 5.7l-7.945 7.958L7.214 5.7A1.268 1.268 0 1 0 5.42 7.494l7.958 7.945-7.958 7.945a1.247 1.247 0 0 0-.374.897 1.266 1.266 0 0 0 .374.897 1.247 1.247 0 0 0 .897.374 1.266 1.266 0 0 0 .897-.374l7.945-7.958 7.945 7.958a1.247 1.247 0 0 0 .897.374 1.266 1.266 0 0 0 .897-.374 1.247 1.247 0 0 0 .374-.897 1.266 1.266 0 0 0-.374-.897l-7.958-7.945z"/></symbol><symbol id="quotes" viewBox="0 0 36 32"><path d="M8.914 31.352c-2.667 0-4.8-.952-6.4-2.857C.99 26.514.228 23.962.228 20.838c0-4.267 1.143-8.114 3.429-11.543C6.019 5.79 9.6 2.857 14.4.495l1.257 1.829c-2.286 1.371-4.381 3.314-6.286 5.829-1.829 2.438-2.743 4.914-2.743 7.429 0 .686.19 1.257.571 1.714.381.381.952.571 1.714.571 1.905 0 3.505.686 4.8 2.057 1.371 1.295 2.057 2.895 2.057 4.8s-.686 3.505-2.057 4.8c-1.295 1.219-2.895 1.829-4.8 1.829zm19.772 0c-2.667 0-4.8-.952-6.4-2.857C20.762 26.514 20 23.962 20 20.838c0-4.267 1.143-8.114 3.429-11.543 2.362-3.505 5.943-6.438 10.743-8.8l1.257 1.829c-2.286 1.371-4.381 3.314-6.286 5.829-1.829 2.438-2.743 4.914-2.743 7.429 0 .686.19 1.257.571 1.714.381.381.952.571 1.714.571 1.905 0 3.505.686 4.8 2.057 1.371 1.295 2.057 2.895 2.057 4.8s-.686 3.505-2.057 4.8c-1.295 1.219-2.895 1.829-4.8 1.829z"/></symbol><symbol id="Quote-1" viewBox="0 0 79 32"><path fill="none" stroke="#fff" style="stroke:var(--color1,rgba(255,255,255,.25))" stroke-linejoin="round" stroke-linecap="round" stroke-miterlimit="1.5" stroke-width=".8" d="M60.337 4.822c-12.348-6.218-36.092-5.166-48.279.275C6.507 7.575-3.728 14.756 2.5 21.535c1.098 1.196 2.434 2.167 3.815 3.008 15.204 9.251 36.409 8.309 52.726 2.773 2.434-.826 4.828-1.805 7.031-3.137 1.648-.996 3.241-2.231 4.524-3.672 3.756-4.218 2.775-8.463-1.266-12.04-4.686-4.146-11.093-5.431-17.139-6.135-5.287-.615-10.567-.733-15.879-.482-9.962.471-21.442 1.22-29.797 6.889-3.649 2.476-7.57 7.767-4.442 12.049 3.39 4.64 11.382 6.143 16.758 7.122 14.502 2.642 37.448 1.332 50.658-5.6 1.424-.748 2.868-1.444 4.142-2.427a19.733 19.733 0 0 0 2.807-2.621c5.927-6.793-7.298-11.064-11.963-11.797-14.673-2.307-36.389-5.637-49.902.501"/><path fill="#f3f3f3" style="fill:var(--color2,#f3f3f3)" d="M9.684 16.194c-.053.002-.084-.028-.093-.09.004-.062.012-.125.025-.188l-.136-.022c-.188-.029-.287-.075-.296-.137-.003-.006-.005-.018-.006-.037s.008-.038.026-.057c.018-.023.034-.034.05-.035a.152.152 0 0 1 .047.007.696.696 0 0 1 .109.037.556.556 0 0 0 .244.027l.1-.514c.041-.276.084-.519.128-.73l.141-.744-.14.001c-.047.002-.071-.023-.073-.076-.003-.075.079-.116.247-.123.056-.286.104-.603.142-.95.036-.332.091-.638.166-.918a.597.597 0 0 0-.15.105c-.026.057-.065.087-.118.089a.084.084 0 0 1-.057-.021c-.016-.015-.025-.038-.026-.069-.003-.068.038-.133.123-.192s.189-.105.312-.135c.017-.032.042-.049.073-.05.022-.001.046.011.072.034.29-.003.526.087.708.269s.28.43.294.744c.007.168-.031.335-.114.5-.08.162-.19.301-.328.416s-.285.187-.439.215a.934.934 0 0 1 .493.152c.157.096.285.22.385.371.1.148.153.299.159.451.019.435-.134.774-.457 1.015s-.782.375-1.375.4h-.098a.532.532 0 0 0-.009.113.198.198 0 0 1-.047.095c-.024.029-.05.044-.077.045zm.576-2.693c.211-.025.401-.086.572-.183.173-.101.306-.228.4-.382a.863.863 0 0 0 .133-.501c-.012-.274-.091-.481-.237-.621s-.338-.208-.574-.204a9.228 9.228 0 0 0-.176 1.026c-.053.438-.092.727-.117.865zm-.227 2.225c.326-.014.603-.069.829-.166.229-.1.401-.235.515-.405s.167-.367.157-.591a.724.724 0 0 0-.168-.427c-.102-.136-.235-.242-.397-.319s-.329-.112-.5-.105c-.1.004-.182.005-.248.001a64.04 64.04 0 0 0-.223 1.234 5.324 5.324 0 0 1-.061.325l-.058.292a6.783 6.783 0 0 0-.031.16c.056.004.117.004.182.002zM12.756 13.007a.173.173 0 0 1-.123-.037.146.146 0 0 1-.051-.101.203.203 0 0 1 .068-.162.23.23 0 0 1 .151-.067.248.248 0 0 1 .104.028c.02.021.03.056.033.106.006.149-.054.227-.182.232zm-.392 2.839c-.106.005-.162-.079-.17-.25a.282.282 0 0 1 .018-.118c.013-.054.025-.115.034-.184l.057-.316.076-.415a27.44 27.44 0 0 1 .105-.612 2.02 2.02 0 0 0 .037-.235l-.002-.047a.743.743 0 0 0-.039-.153.156.156 0 0 1 .033-.104.132.132 0 0 1 .096-.051c.034-.001.065.021.092.066s.042.096.044.152c.003.062-.054.401-.171 1.017s-.175.942-.173.979c.001.034.018.051.049.049.016-.001.043-.022.081-.064.036-.039.066-.059.091-.06.05-.002.076.028.079.09.002.037-.019.076-.06.115s-.09.071-.145.095a.354.354 0 0 1-.129.043zM13.665 17.66a.516.516 0 0 1-.55-.514.92.92 0 0 1 .08-.415 1.93 1.93 0 0 1 .277-.409c.104-.123.229-.251.376-.385l.423-.383c.018-.079.034-.162.045-.25a11.7 11.7 0 0 0 .065-.339c-.102.375-.244.624-.426.747a.316.316 0 0 1-.17.063.334.334 0 0 1-.276-.119.544.544 0 0 1-.117-.341 2.578 2.578 0 0 1 .118-.856c.09-.303.216-.564.378-.783.168-.222.356-.338.565-.347.1-.004.195.017.288.062a.135.135 0 0 1 .06-.017c.053-.002.08.021.082.071a.393.393 0 0 1-.022.15c-.077.231-.198.828-.363 1.791.048-.033.104-.081.167-.143l.081-.074c.039-.039.07-.067.095-.084s.046-.025.064-.026c.053-.002.08.023.083.076a.126.126 0 0 1-.029.095c-.187.154-.346.283-.479.385l-.056.442-.018.118c-.029.198-.055.362-.077.494a3.427 3.427 0 0 1-.086.387 1.114 1.114 0 0 1-.225.426.475.475 0 0 1-.352.174zm.125-2.109c.062-.003.132-.048.209-.135.077-.091.15-.206.219-.346.072-.143.128-.292.168-.446a25.847 25.847 0 0 0 .254-1.053.249.249 0 0 0-.18-.053c-.134.006-.27.1-.408.284a2.365 2.365 0 0 0-.335.687c-.085.272-.123.518-.113.739s.072.329.187.324zm-.177 1.877a.347.347 0 0 0 .175-.054.422.422 0 0 0 .143-.156c.043-.077.086-.183.127-.319s.072-.274.094-.415c.02-.107.036-.204.048-.292l.014-.103c.002-.025.006-.052.011-.08s.008-.058.01-.089l.009-.113a5.253 5.253 0 0 0-.68.716c-.156.212-.231.399-.224.561.007.171.049.278.126.322a.292.292 0 0 0 .146.022zM15.997 15.7c-.286.012-.437-.157-.452-.509a3.512 3.512 0 0 1 .051-.773c.048-.251.115-.471.201-.658.089-.188.187-.324.296-.41a.424.424 0 0 1 .239-.104c.143-.006.245.019.307.076a1.708 1.708 0 0 0-.164-.329 3.97 3.97 0 0 1-.191-.314 1.604 1.604 0 0 1-.247-.756.906.906 0 0 1 .075-.424.738.738 0 0 1 .249-.3.66.66 0 0 1 .364-.123 1.08 1.08 0 0 1 .343.037c.132.032.23.053.292.062.066.01.144.013.234.009.155-.007.278-.029.366-.067l.097-.037a.284.284 0 0 1 .093-.018c.056-.002.085.02.087.066.003.068-.052.128-.165.18s-.238.08-.375.086a1.833 1.833 0 0 1-.266-.003 5.814 5.814 0 0 1-.335-.07 1.799 1.799 0 0 0-.431-.033c-.14.006-.245.071-.314.196s-.101.269-.094.434c.006.149.032.282.078.399.045.113.133.27.263.47.213.321.325.603.335.845l-.014.211v.009a2.46 2.46 0 0 1-.077.723 2.42 2.42 0 0 1-.244.632 1.194 1.194 0 0 1-.324.397.506.506 0 0 1-.276.096zm-.014-.229a.353.353 0 0 0 .22-.089.93.93 0 0 0 .186-.246c.101-.194.18-.424.237-.688.058-.252.083-.472.074-.662-.004-.103-.034-.179-.089-.23s-.126-.074-.213-.07a.307.307 0 0 0-.202.079 1.254 1.254 0 0 0-.185.26 2.228 2.228 0 0 0-.196.555 2.336 2.336 0 0 0-.072.606c.007.174.028.299.063.376s.094.113.178.109zM17.933 17.51a.469.469 0 0 1-.274-.068.54.54 0 0 1-.181-.193.508.508 0 0 1-.071-.231 1 1 0 0 1 .122-.524c.09-.163.221-.324.395-.484.066-.065.218-.195.455-.389l.221-.182.019-.108.026-.146.026-.151.023-.127a1.17 1.17 0 0 1-.26.469c-.122.139-.242.211-.36.216a.366.366 0 0 1-.305-.127.622.622 0 0 1-.129-.387c-.011-.261.046-.676.171-1.246.063-.283.093-.435.093-.457l-.012-.056c-.004-.022.015-.049.057-.082s.077-.05.105-.051c.062-.003.095.027.097.089s-.044.326-.139.791c-.095.465-.14.78-.132.945.007.162.031.262.074.301a.185.185 0 0 0 .143.055c.118-.005.24-.11.365-.315.099-.16.183-.372.253-.637.073-.268.138-.55.198-.845l.019-.094a.95.95 0 0 1 .077-.265.116.116 0 0 1 .1-.06c.034-.001.058.007.071.025.016.015.022.032.016.051a36.63 36.63 0 0 1-.185 1.022c-.079.408-.134.736-.163.984a3.64 3.64 0 0 1 .157-.156c.06-.065.104-.11.134-.137s.059-.04.087-.041c.053-.002.08.023.083.076a.129.129 0 0 1-.033.095c-.12.117-.276.258-.468.422-.121.821-.238 1.358-.352 1.609a.793.793 0 0 1-.289.34.464.464 0 0 1-.235.071zm-.01-.224c.109-.005.204-.079.285-.223.055-.096.112-.248.172-.456l.051-.231.039-.184.087-.48-.076.073c-.105.098-.208.191-.31.28-.363.321-.539.62-.527.896a.355.355 0 0 0 .139.288c.032.027.08.039.142.036zM20.058 17.386a.516.516 0 0 1-.55-.514.92.92 0 0 1 .08-.415 1.93 1.93 0 0 1 .277-.409c.104-.123.229-.251.376-.385l.423-.383c.018-.079.034-.162.045-.25a11.7 11.7 0 0 0 .065-.339c-.102.375-.244.624-.426.747a.319.319 0 0 1-.17.063.334.334 0 0 1-.276-.119.544.544 0 0 1-.117-.341 2.578 2.578 0 0 1 .118-.856c.09-.303.216-.564.378-.783.168-.222.356-.338.565-.347.1-.004.195.017.288.062a.135.135 0 0 1 .06-.017c.053-.002.08.021.082.071a.393.393 0 0 1-.022.15c-.077.231-.198.828-.363 1.791.048-.033.104-.081.167-.143l.081-.074c.039-.039.07-.067.095-.083s.046-.025.064-.026c.053-.002.08.023.083.076a.126.126 0 0 1-.029.095c-.187.154-.346.283-.479.385l-.056.442-.018.118a26.67 26.67 0 0 1-.077.494 3.427 3.427 0 0 1-.086.387 1.114 1.114 0 0 1-.225.426.475.475 0 0 1-.352.174zm.125-2.108c.062-.003.132-.048.209-.135.077-.091.15-.206.219-.346.072-.143.128-.292.168-.446a25.847 25.847 0 0 0 .254-1.053.249.249 0 0 0-.18-.053c-.134.006-.27.1-.408.284a2.365 2.365 0 0 0-.335.687c-.085.272-.123.518-.113.739s.072.329.187.324zm-.177 1.876a.347.347 0 0 0 .175-.054.422.422 0 0 0 .143-.156c.043-.077.086-.183.127-.319s.072-.274.094-.415c.02-.107.036-.204.048-.292l.014-.103c.002-.025.006-.052.011-.08s.008-.058.01-.089l.009-.113a5.253 5.253 0 0 0-.68.716c-.156.212-.231.399-.224.561.007.171.049.278.126.322a.292.292 0 0 0 .146.022zM22.219 17.326a.469.469 0 0 1-.274-.068.54.54 0 0 1-.181-.193.508.508 0 0 1-.071-.231 1 1 0 0 1 .122-.524c.09-.163.221-.324.395-.484.066-.065.218-.195.455-.389l.221-.182.019-.108.026-.146.026-.151.023-.127a1.17 1.17 0 0 1-.26.469c-.122.139-.242.211-.36.216a.366.366 0 0 1-.305-.127.622.622 0 0 1-.129-.387c-.011-.261.046-.676.171-1.246.063-.283.093-.435.093-.457l-.012-.056c-.004-.022.015-.049.057-.082s.077-.05.105-.051c.062-.003.095.027.097.089s-.044.326-.139.791c-.095.465-.14.78-.132.945.007.162.031.262.074.301a.185.185 0 0 0 .143.055c.118-.005.24-.11.365-.315.099-.16.183-.372.253-.637.073-.268.138-.55.198-.845l.019-.094a.95.95 0 0 1 .077-.265.116.116 0 0 1 .1-.06c.034-.001.058.007.071.025.016.015.022.032.016.051a36.63 36.63 0 0 1-.185 1.022c-.079.408-.134.736-.163.984a3.64 3.64 0 0 1 .157-.156c.06-.065.104-.11.134-.137s.059-.04.087-.041c.053-.002.08.023.083.076a.129.129 0 0 1-.033.095c-.12.117-.276.258-.468.422-.121.821-.238 1.358-.352 1.609a.793.793 0 0 1-.289.34.464.464 0 0 1-.235.071zm-.009-.224c.109-.005.204-.079.285-.223.055-.096.112-.248.172-.456l.051-.231.039-.184.087-.48-.076.073c-.105.098-.208.191-.31.28-.363.321-.539.62-.527.896a.355.355 0 0 0 .139.288c.032.027.08.039.142.036zM24.366 15.299c-.14.006-.243-.043-.31-.146a.685.685 0 0 1-.072-.146 2.157 2.157 0 0 1-.063-.493 1.627 1.627 0 0 1 .05-.357.115.115 0 0 1-.041-.082c-.003-.062.033-.114.106-.154.088-.269.209-.492.364-.67s.322-.271.502-.278a.402.402 0 0 1 .304.113c.087.077.147.19.178.338a.18.18 0 0 1-.083.125.28.28 0 0 1-.046.011c-.034.001-.062-.019-.082-.062-.016-.09-.054-.166-.113-.229s-.122-.093-.191-.09c-.227.01-.42.233-.579.67a.431.431 0 0 1 .132.036c.06.022.104.033.132.032a.17.17 0 0 0 .097-.037.228.228 0 0 1 .087-.032c.053-.002.081.026.083.085.002.053-.03.098-.097.135a.411.411 0 0 1-.175.054.485.485 0 0 1-.151-.031.756.756 0 0 0-.174-.035 2.13 2.13 0 0 0-.082.588c.007.165.026.278.057.339.034.058.102.088.205.089a.344.344 0 0 0 .162-.04l.114-.056c.053-.002.081.026.083.085.002.056-.042.109-.133.16a.618.618 0 0 1-.263.077zM27.428 15.192c-.05.002-.079-.029-.088-.094.019-.275.076-.562.169-.862a8.27 8.27 0 0 0 .224-.982l-.168.227-.168.222a3.532 3.532 0 0 1-.521.611c-.027.02-.058.031-.092.032s-.064-.013-.091-.043a.472.472 0 0 1-.076-.146 3.395 3.395 0 0 1-.067-.263l-.087-.389-.028-.102a35.811 35.811 0 0 0-.486 1.32l-.025.081-.049.156a.152.152 0 0 0-.007.047.353.353 0 0 1-.016.057c.013.009.02.027.021.055.001.025-.013.05-.043.077a.136.136 0 0 1-.092.041c-.053.002-.081-.026-.083-.085-.011-.252.238-.992.746-2.219.035-.058.071-.087.108-.089.072-.003.109.033.112.107a.468.468 0 0 1-.022.132.834.834 0 0 0 .042.209c.015.065.041.187.076.366.021.133.057.275.107.425l.209-.247c.314-.378.503-.624.566-.739.121-.226.221-.341.298-.345.053-.002.088.023.106.075-.02.337-.092.728-.216 1.173a7.551 7.551 0 0 0-.235 1.057.181.181 0 0 1-.052.096c-.024.026-.048.039-.073.04zM28.91 15.133a.402.402 0 0 1-.372-.176.858.858 0 0 1-.136-.452 2.453 2.453 0 0 1 .105-.827c.085-.272.206-.498.363-.679.151-.184.326-.28.525-.289.286-.012.438.199.457.635.01.218-.017.442-.078.672s-.147.436-.254.618a1.208 1.208 0 0 1-.333.397.523.523 0 0 1-.276.101zm.029-.212c.097-.004.2-.093.311-.266a2.25 2.25 0 0 0 .276-.638c.073-.252.106-.466.099-.64-.008-.18-.023-.292-.047-.334-.02-.046-.045-.077-.074-.095s-.073-.025-.132-.022a.37.37 0 0 0-.202.083c-.139.096-.257.257-.353.482a2.147 2.147 0 0 0-.206.972c.009.211.076.355.201.431.044.02.087.029.127.027zM32.384 14.994c-.283.012-.542-.105-.777-.35a9.762 9.762 0 0 1-.529-.669l-.001-.028a.14.14 0 0 1 .047-.109c.033-.036.066-.054.1-.056.028-.001.047.01.058.035.14.274.311.504.516.688s.42.272.647.262a.938.938 0 0 0 .514-.209c.163-.128.3-.299.413-.513.115-.217.197-.462.244-.735.026-.26.04-.399.043-.418-.338.326-.627.494-.866.504-.336.014-.516-.272-.542-.86-.013-.299.067-.846.238-1.641l.082-.368c.014-.032.037-.059.067-.082s.059-.035.087-.036c.04-.002.062.024.064.077a21.883 21.883 0 0 0-.268 1.498 4.573 4.573 0 0 0-.026.599.925.925 0 0 0 .112.43c.07.115.157.171.26.166.109-.005.249-.07.421-.196s.305-.258.399-.396c.149-1.464.387-2.204.714-2.218.096-.004.148.078.155.246.005.127-.015.309-.061.545a4.658 4.658 0 0 1-.216.738 2.84 2.84 0 0 1-.359.684l-.043.408c-.081.792-.339 1.37-.772 1.734a1.166 1.166 0 0 1-.722.269zm1.555-2.759c.14-.215.249-.467.327-.757s.111-.575.099-.855c-.233.374-.376.912-.426 1.612zM35.251 14.866c-.05.002-.079-.029-.088-.094l.039-.296c.022-.2.051-.418.084-.653l.021-.169c.051-.398.084-.63.096-.696.027-.16.045-.295.053-.404a.172.172 0 0 1 .048-.082.136.136 0 0 1 .083-.036c.037-.002.065.024.083.076a.942.942 0 0 1-.011.169 2.018 2.018 0 0 0-.036.259l-.062.419c.328-.5.61-.813.848-.938a.373.373 0 0 1 .166-.049c.053-.002.112.034.178.109.068.075.104.142.107.201.002.05-.009.089-.032.118s-.053.044-.087.046c-.047.002-.091-.04-.132-.125l-.025-.046a.158.158 0 0 0-.035-.059c-.01-.015-.021-.022-.034-.022a.345.345 0 0 0-.128.062c-.061.037-.158.133-.292.288-.13.152-.231.281-.301.387.04.291.111.547.21.767s.204.368.313.445a.278.278 0 0 0 .161.054.181.181 0 0 0 .124-.047.27.27 0 0 0 .073-.139c.022-.063.041-.097.057-.101.009-.007.026-.01.051-.012.019-.001.041.009.067.03.023.021.035.061.038.12a.255.255 0 0 1-.072.181c-.098.119-.198.181-.301.186-.298.013-.541-.223-.726-.707a2.719 2.719 0 0 1-.158-.521c-.009.013-.04.073-.095.182l-.051.105c-.038.273-.074.559-.108.86a.135.135 0 0 1-.043.091c-.027.029-.054.044-.082.046zM37.131 16.655c-.047.002-.074-.028-.083-.09.078-.358.144-.716.197-1.074l.246-1.674c.097-.652.162-1.088.196-1.308l-.004-.103c-.001-.031.011-.061.038-.09s.059-.045.096-.046a.09.09 0 0 1 .081.039.14.14 0 0 1 .032.083.434.434 0 0 1-.017.136l-.016.061a.222.222 0 0 0-.007.052l-.051.339c.206-.436.436-.659.691-.67.134-.006.232.031.294.109.066.075.102.192.109.351.013.299-.016.597-.088.896s-.182.553-.332.762c-.153.215-.341.328-.565.337a.354.354 0 0 1-.212-.047.361.361 0 0 1-.129-.177l-.044.278c-.06.345-.103.606-.13.781-.058.383-.116.701-.174.956-.025.063-.068.096-.127.099zm.84-2.111c.162-.007.308-.116.439-.327.163-.272.263-.623.301-1.055.01-.134.013-.25.008-.346-.008-.202-.063-.301-.162-.297s-.21.081-.331.229a2.419 2.419 0 0 0-.399.727c-.1.278-.146.519-.138.721.01.239.104.355.281.348zM40.87 14.588c-.072.003-.14-.031-.205-.103a.399.399 0 0 1-.099-.243c-.008-.193.029-.522.112-.986a3.434 3.434 0 0 1-.281.531c-.114.179-.227.338-.339.477s-.196.23-.25.272a.416.416 0 0 1-.253.1c-.178.008-.271-.101-.28-.325-.009-.218.062-.492.212-.822.151-.334.334-.625.551-.874.217-.246.395-.372.535-.378.143-.006.226.053.251.176a.503.503 0 0 1 .019.121.1.1 0 0 1 .051-.016c.072-.003.109.03.112.098l.001.019-.047.208c-.037.157-.072.389-.106.696s-.046.561-.037.763l.048.026c.077.043.116.088.118.135.001.031-.008.06-.029.085s-.048.039-.082.041zm-1.289-.197a.116.116 0 0 0 .083-.036c.306-.284.571-.671.796-1.16.129-.27.198-.431.208-.481.004-.056.005-.091.005-.103-.001-.031-.01-.059-.027-.083s-.037-.036-.062-.035a.268.268 0 0 0-.12.047c-.122.071-.263.215-.425.434a3.262 3.262 0 0 0-.386.689c-.105.244-.153.46-.145.646.002.056.027.083.074.081zM41.769 11.765a.173.173 0 0 1-.123-.037.142.142 0 0 1-.051-.101.2.2 0 0 1 .063-.162.243.243 0 0 1 .156-.067.332.332 0 0 1 .104.028c.02.021.031.066.034.134.003.065-.014.116-.05.152a.2.2 0 0 1-.133.052zm.522-.023a.182.182 0 0 1-.123-.037.142.142 0 0 1-.051-.101.203.203 0 0 1 .068-.162.237.237 0 0 1 .151-.067.248.248 0 0 1 .104.028c.02.021.031.067.034.139.002.062-.014.111-.05.147a.2.2 0 0 1-.133.052zm-.574 2.847c-.106.005-.162-.079-.17-.25a.417.417 0 0 1 .018-.118c.013-.054.025-.115.034-.184l.057-.316.076-.415a21.2 21.2 0 0 1 .09-.518.621.621 0 0 0 .014-.094 2.02 2.02 0 0 0 .037-.235l-.002-.047a.743.743 0 0 0-.039-.153.156.156 0 0 1 .033-.104.132.132 0 0 1 .096-.051c.034-.001.065.021.092.066s.042.096.044.152c.003.062-.054.401-.171 1.017s-.175.942-.173.979c.001.034.018.051.049.049.015-.001.043-.022.081-.064.036-.039.066-.059.091-.06.05-.002.076.028.079.09.002.037-.019.076-.06.115s-.091.071-.145.095a.354.354 0 0 1-.129.043zM44.261 14.485a.275.275 0 0 1-.204-.061.257.257 0 0 1-.073-.179 2.243 2.243 0 0 1 .044-.404l.083-.569c-.22.181-.426.275-.619.284-.14.006-.249-.027-.327-.098a3.044 3.044 0 0 0-.024.188 6.025 6.025 0 0 1-.033.315c-.04.372-.116.561-.228.566-.047.002-.076-.029-.088-.094.017-.244.07-.623.157-1.138.09-.518.154-.868.193-1.05a.164.164 0 0 1 .048-.081.134.134 0 0 1 .083-.036c.037-.002.065.024.083.076a4.25 4.25 0 0 1-.063.489c-.034.21-.061.39-.08.541.072.075.181.109.327.103.143-.006.297-.084.462-.235.051-.049.098-.101.143-.156l.057-.316c.043-.229.094-.389.152-.479.029-.051.07-.078.123-.08s.081.026.083.085l.001.023c-.146.595-.235 1.026-.267 1.292-.031.229-.05.409-.056.54a2.606 2.606 0 0 1-.011.169l-.002.061c.001.019.009.028.025.027a.048.048 0 0 0 .032-.015.146.146 0 0 1 .074-.017c.053-.002.08.025.083.081.005.109-.054.166-.175.171zM45.37 16.335a.469.469 0 0 1-.274-.068.54.54 0 0 1-.181-.193.508.508 0 0 1-.071-.231.989.989 0 0 1 .123-.524c.089-.163.221-.324.395-.484a8.08 8.08 0 0 1 .455-.389l.221-.182.019-.108.026-.146.026-.151.023-.127a1.17 1.17 0 0 1-.26.469c-.122.139-.242.211-.36.216a.363.363 0 0 1-.304-.127.622.622 0 0 1-.129-.387c-.011-.261.046-.676.171-1.246.063-.283.094-.435.093-.457l-.012-.056c-.004-.022.015-.049.057-.082s.077-.05.105-.051c.062-.003.095.027.097.089s-.044.326-.139.791c-.095.465-.14.78-.133.945.007.162.031.262.074.301a.185.185 0 0 0 .143.055c.118-.005.24-.11.365-.315.099-.16.184-.372.253-.637.072-.268.138-.55.197-.845l.019-.094a.905.905 0 0 1 .078-.265.116.116 0 0 1 .1-.06c.034-.001.058.007.071.025.016.015.022.032.016.051a36.63 36.63 0 0 1-.185 1.022c-.079.408-.133.736-.164.984a3.64 3.64 0 0 1 .157-.156c.06-.065.104-.11.134-.137s.059-.04.087-.041c.053-.002.08.023.083.076a.129.129 0 0 1-.033.095c-.12.117-.276.258-.468.422-.121.821-.238 1.358-.352 1.609a.785.785 0 0 1-.289.339.465.465 0 0 1-.236.071zm-.009-.224c.109-.005.204-.079.285-.222.055-.096.112-.248.172-.456l.051-.231.039-.184.087-.48-.076.073c-.105.098-.208.191-.31.28-.363.321-.539.62-.527.896a.355.355 0 0 0 .139.288c.032.027.08.039.142.036zM48.595 14.295c-.05.002-.079-.029-.088-.094l.039-.296c.023-.2.051-.418.084-.653l.021-.169c.051-.398.084-.63.096-.696.028-.16.045-.295.053-.404a.164.164 0 0 1 .048-.081.133.133 0 0 1 .082-.036c.037-.002.065.024.083.076a.942.942 0 0 1-.011.169 2.018 2.018 0 0 0-.036.259l-.062.419c.328-.5.61-.813.848-.938a.373.373 0 0 1 .166-.049c.053-.002.112.034.178.109.069.075.104.142.107.201.002.05-.009.089-.032.118s-.053.044-.087.046c-.047.002-.091-.04-.132-.125l-.025-.046a.158.158 0 0 0-.035-.059c-.01-.015-.021-.022-.034-.022a.345.345 0 0 0-.128.062c-.061.037-.158.133-.291.288a3.977 3.977 0 0 0-.301.387c.04.291.111.547.211.767s.204.368.313.445a.276.276 0 0 0 .161.054.181.181 0 0 0 .124-.047.277.277 0 0 0 .074-.139c.022-.063.041-.097.056-.101.009-.007.026-.01.051-.012.019-.001.041.009.067.03.023.021.035.061.038.12a.255.255 0 0 1-.072.181c-.098.119-.198.181-.3.186-.299.013-.541-.223-.727-.707a2.719 2.719 0 0 1-.158-.521c-.009.013-.04.073-.095.182l-.051.105c-.038.273-.074.559-.108.86a.135.135 0 0 1-.043.091c-.027.029-.054.044-.082.046zM50.475 16.084c-.047.002-.074-.028-.083-.09.078-.358.144-.716.197-1.074l.246-1.674c.097-.652.162-1.088.196-1.308l-.004-.103c-.001-.031.011-.061.038-.09s.059-.045.096-.046a.09.09 0 0 1 .081.039.14.14 0 0 1 .032.083.437.437 0 0 1-.017.136l-.016.061a.222.222 0 0 0-.007.052l-.051.339c.206-.436.436-.659.691-.67.134-.006.232.031.295.109.065.075.101.192.108.351.013.299-.016.597-.088.896s-.182.553-.332.762c-.153.215-.341.328-.565.337a.354.354 0 0 1-.212-.047.361.361 0 0 1-.129-.177l-.044.278c-.06.345-.103.606-.13.781-.058.383-.116.701-.174.956-.025.063-.068.096-.127.099zm.84-2.111c.162-.007.308-.116.439-.327.163-.272.263-.623.301-1.055.01-.134.013-.25.008-.346-.008-.202-.063-.301-.162-.297s-.21.081-.331.229a2.419 2.419 0 0 0-.399.727c-.1.278-.146.519-.138.721.01.239.104.355.281.348zM54.214 14.017c-.072.003-.14-.031-.205-.103a.405.405 0 0 1-.099-.243c-.008-.193.029-.522.112-.986a3.434 3.434 0 0 1-.281.531c-.114.179-.227.338-.339.477s-.196.23-.25.272a.416.416 0 0 1-.253.1c-.177.008-.271-.101-.28-.324-.009-.218.062-.492.212-.822.151-.334.334-.625.551-.874.217-.246.395-.372.535-.378.143-.006.226.053.251.176a.503.503 0 0 1 .019.121.1.1 0 0 1 .051-.016c.071-.003.109.03.112.098l.001.019-.047.208c-.037.157-.072.389-.106.696s-.046.561-.037.763l.048.026c.077.043.116.088.118.135.001.031-.008.06-.029.085s-.048.039-.082.041zm-1.289-.197a.116.116 0 0 0 .083-.036c.306-.284.571-.671.796-1.16.129-.27.198-.431.208-.481.004-.056.005-.091.005-.103-.001-.031-.01-.059-.027-.083s-.037-.036-.062-.035a.268.268 0 0 0-.12.047c-.121.071-.263.215-.425.434a3.262 3.262 0 0 0-.386.689c-.105.244-.153.46-.145.646.002.056.027.083.074.081zM55.369 14.014a.43.43 0 0 1-.361-.148.65.65 0 0 1-.143-.396 2.618 2.618 0 0 1 .113-.855c.09-.297.213-.547.37-.749s.327-.308.51-.316c.134-.006.223.039.267.133.01.015.019.032.025.05l.021.046c.017.043.034.067.05.073a.225.225 0 0 1 .022.069c.001.028-.011.055-.039.081a.115.115 0 0 1-.082.041c-.065.003-.109-.044-.132-.139s-.076-.142-.16-.138c-.112.005-.226.097-.344.276a2.465 2.465 0 0 0-.294.667 2.018 2.018 0 0 0-.102.673c.012.277.119.411.321.402.103-.004.196-.057.278-.157.009-.013.025-.034.049-.063a.27.27 0 0 1 .067-.068.104.104 0 0 1 .06-.026c.059-.003.09.023.092.075.003.062-.024.13-.08.204a.717.717 0 0 1-.507.264zM57.915 13.896c-.034.001-.073-.025-.116-.079a.301.301 0 0 1-.063-.152l-.003-.079c-.004-.096.05-.39.163-.881l.05-.259-.115.271a6.879 6.879 0 0 1-.177.442c-.209.501-.444.757-.705.769-.156.007-.265-.074-.328-.243a.772.772 0 0 1-.032-.209 2.97 2.97 0 0 1 .069-.671c.031-.157.057-.273.079-.349l.032-.123c.029-.12.058-.245.087-.378.031-.135.047-.237.048-.306a.164.164 0 0 1 .048-.081c.027-.023.056-.035.087-.036s.058.038.08.118c.004.081-.008.181-.034.301-.026.116-.053.22-.08.312-.024.091-.039.15-.044.175-.111.407-.159.758-.147 1.053.004.093.043.157.116.191.025.011.06.016.103.014.087-.004.188-.095.301-.275.105-.166.21-.373.315-.621s.188-.472.252-.674c.065-.218.121-.377.166-.479s.098-.154.157-.156c.053-.002.08.023.083.076a1.89 1.89 0 0 1-.06.334 4.987 4.987 0 0 0-.124.599l-.085.639-.04.268c-.002.028-.008.07-.018.127.003.059.014.098.033.115l.044.054c.01.009.015.029.017.06s-.016.06-.053.086a.172.172 0 0 1-.105.047zM59.244 13.839c-.062.003-.123-.027-.181-.09a.78.78 0 0 1-.142-.256 1.233 1.233 0 0 1-.061-.343 5.374 5.374 0 0 1-.001-.458c-.047-.004-.071-.03-.073-.076 0-.009.002-.027.007-.052l.086-.167c.048-.488.157-1.13.329-1.925.123-.535.28-.909.471-1.123.062-.071.123-.108.182-.111.214-.009.327.117.339.378.014.326-.115.706-.386 1.138-.076.125-.181.293-.315.504a3.49 3.49 0 0 0-.316.593.134.134 0 0 1-.062.073l-.01.089c.285-.399.549-.603.792-.613.097-.004.167.044.212.145a.91.91 0 0 1 .075.347c.009.218-.028.481-.111.79-.08.306-.185.561-.313.766-.164.253-.337.384-.521.391zm.11-2.687c.081-.134.136-.227.165-.278l.074-.12c.264-.454.391-.8.381-1.04a.755.755 0 0 0-.021-.172c-.011-.04-.035-.059-.072-.058-.069.003-.145.1-.231.29-.168.372-.319.922-.453 1.65l.157-.273zm-.073 2.456c.115-.005.226-.106.333-.304.11-.198.199-.443.267-.736.063-.28.091-.484.086-.611-.006-.137-.017-.219-.034-.246-.017-.034-.057-.049-.119-.046-.112.005-.229.075-.351.211a3.359 3.359 0 0 0-.395.587 4.924 4.924 0 0 0-.007.496c.019.438.092.655.219.65zM61.37 13.743a.402.402 0 0 1-.372-.176.858.858 0 0 1-.136-.452 2.453 2.453 0 0 1 .105-.827 1.86 1.86 0 0 1 .364-.679c.151-.184.326-.28.525-.289.286-.012.438.199.457.635.009.218-.017.442-.079.672s-.146.436-.254.618a1.208 1.208 0 0 1-.333.397.523.523 0 0 1-.276.101zm.028-.211c.096-.004.2-.093.311-.266a2.25 2.25 0 0 0 .276-.638c.073-.252.106-.466.099-.64-.008-.18-.023-.292-.047-.334-.02-.046-.045-.078-.074-.095s-.073-.025-.132-.022a.37.37 0 0 0-.202.083c-.139.096-.257.257-.353.482a2.147 2.147 0 0 0-.206.972c.009.211.076.355.2.431.045.02.087.029.127.027zM62.89 13.692c-.056.002-.085-.023-.087-.076a.584.584 0 0 1 .027-.137 8.32 8.32 0 0 0 .142-.726l.103-.766c.012-.075.023-.189.032-.343.016-.293.078-.443.187-.447.062-.003.095.041.099.131a.193.193 0 0 1-.03.071 6.404 6.404 0 0 0-.05.371c-.011.094-.03.199-.057.316a4.272 4.272 0 0 0-.05.264c.101-.042.222-.066.362-.072l.299-.003a2.73 2.73 0 0 1 .358-.796c.111-.17.297-.26.558-.272.084-.004.161.018.232.065s.114.114.13.2c.02.024.033.045.04.064.006.355-.014.646-.061.872a2.871 2.871 0 0 1-.194.606c-.146.299-.327.483-.542.551a.972.972 0 0 1-.236.052c-.106.005-.191-.049-.255-.162a1.03 1.03 0 0 1-.103-.444 2.925 2.925 0 0 1 .029-.525l-.234.005a1.328 1.328 0 0 0-.242.034c-.077.022-.118.041-.124.057a.134.134 0 0 1-.059.049 8.67 8.67 0 0 1-.086.611c-.02.122-.048.251-.086.387a.13.13 0 0 1-.105.061zm1.353-.268c.093-.004.203-.073.328-.206.125-.136.213-.277.262-.422.053-.155.089-.312.111-.472.021-.163.031-.392.031-.688a.227.227 0 0 1-.035-.05c-.008-.112-.068-.165-.18-.161a.57.57 0 0 0-.456.258 1.62 1.62 0 0 0-.244.637c-.042.248-.059.47-.051.666.013.299.091.445.234.439zM67.506 10.663a.173.173 0 0 1-.123-.037.146.146 0 0 1-.051-.101.203.203 0 0 1 .068-.162.23.23 0 0 1 .151-.067.248.248 0 0 1 .104.028c.02.021.031.056.033.106.007.149-.054.227-.182.232zm-.393 2.839c-.106.005-.162-.079-.17-.25a.28.28 0 0 1 .018-.118c.013-.054.025-.115.034-.184l.057-.316.076-.414a21.2 21.2 0 0 1 .09-.518.738.738 0 0 0 .015-.094 2.3 2.3 0 0 0 .037-.235l-.002-.047a.743.743 0 0 0-.039-.153.156.156 0 0 1 .033-.104.132.132 0 0 1 .096-.051c.034-.001.065.021.092.066s.042.096.044.152c.002.062-.055.401-.171 1.017s-.175.942-.173.979c.001.034.018.051.049.049.016-.001.043-.022.081-.064.036-.039.066-.059.091-.06.05-.002.076.028.079.09.002.037-.019.076-.06.115s-.091.071-.145.095a.354.354 0 0 1-.129.043zM11.473 21.74a.275.275 0 0 1-.204-.061.255.255 0 0 1-.073-.179 2.311 2.311 0 0 1 .043-.404l.083-.569c-.22.181-.426.275-.619.284-.14.006-.249-.027-.327-.098l-.015.094a.999.999 0 0 1-.01.094 6.025 6.025 0 0 1-.033.315c-.04.372-.116.561-.228.566-.047.002-.076-.029-.088-.094.018-.244.07-.623.157-1.138.09-.518.154-.868.193-1.05a.16.16 0 0 1 .048-.081.136.136 0 0 1 .083-.036c.037-.002.065.024.083.076a4.25 4.25 0 0 1-.063.489c-.035.21-.061.39-.08.541.072.075.181.109.327.103.143-.006.297-.084.462-.235.051-.049.098-.101.143-.156l.057-.316c.043-.229.094-.389.152-.479.029-.051.07-.078.123-.08s.081.026.083.085l.001.023c-.146.595-.235 1.026-.267 1.292a7.005 7.005 0 0 0-.067.709l-.002.061c.001.019.009.028.025.027a.05.05 0 0 0 .032-.015.146.146 0 0 1 .074-.017c.053-.002.081.025.083.081.005.109-.054.166-.175.171zM12.762 21.68a.481.481 0 0 1-.235-.037.37.37 0 0 1-.142-.148.925.925 0 0 1-.117-.434 2.63 2.63 0 0 1 .099-.855 2.06 2.06 0 0 1 .339-.697c.142-.181.301-.275.479-.282a.252.252 0 0 1 .224.107.45.45 0 0 1 .096.272.836.836 0 0 1-.128.501c-.09.144-.216.266-.377.367-.139.09-.31.181-.512.274l.005.336c.011.261.096.388.255.382a.55.55 0 0 0 .222-.061c.076-.041.155-.088.237-.141a.233.233 0 0 1 .097-.037c.053-.002.081.025.083.081.002.04-.035.09-.11.15a1.141 1.141 0 0 1-.26.156.78.78 0 0 1-.254.067zm-.245-1.157c.027-.017.088-.052.182-.106.043-.02.104-.054.183-.101a.92.92 0 0 0 .315-.294.662.662 0 0 0 .095-.397c-.005-.121-.059-.18-.162-.175-.09.004-.192.091-.307.261a1.94 1.94 0 0 0-.306.813zM14.215 23.488c-.193.008-.338-.042-.436-.15s-.151-.251-.159-.428c-.007-.165.034-.327.124-.487s.22-.321.391-.484c.171-.163.399-.36.685-.59.005-.175.006-.29.004-.346a.587.587 0 0 0-.063-.268c-.037-.067-.101-.1-.191-.099l-.063.049c-.214.165-.377.25-.489.255-.04.002-.07-.006-.09-.024s-.03-.041-.031-.069c-.001-.025.016-.058.052-.1a.935.935 0 0 1 .217-.173.992.992 0 0 1 .335-.136c.18-.173.304-.317.374-.432a.712.712 0 0 0 .099-.415c-.003-.075-.024-.128-.063-.161s-.106-.047-.203-.043a.993.993 0 0 0-.269.044.937.937 0 0 0-.255.156c-.102.082-.171.124-.205.126-.056.002-.085-.029-.088-.094-.001-.031.022-.073.069-.124.051-.052.114-.101.19-.148.189-.108.371-.165.549-.173.171-.007.292.022.364.087s.11.17.116.313c.013.311-.119.603-.397.877.158.062.244.242.257.54l-.001.192.344-.267a.133.133 0 0 1 .065-.021c.053-.002.081.025.083.081a.167.167 0 0 1-.033.095 4.238 4.238 0 0 1-.118.084l-.353.272a7.936 7.936 0 0 1-.165 1.059c-.073.333-.138.554-.196.663s-.12.191-.186.246a.401.401 0 0 1-.262.095zm-.056-.199a.288.288 0 0 0 .224-.112c.094-.122.195-.429.302-.919.053-.22.09-.438.112-.654-.37.309-.643.581-.82.816-.112.151-.165.298-.159.441.006.14.04.248.103.323s.142.111.238.107zM16.017 21.55a.408.408 0 0 1-.269-.068.59.59 0 0 1-.17-.268c-.007-.009-.011-.029-.012-.06a.112.112 0 0 1 .034-.081.114.114 0 0 1 .082-.046c.028-.001.055.015.082.048.008.19.102.281.283.273.134-.006.265-.078.393-.218.128-.143.243-.327.346-.552.091-.197.157-.376.197-.536l.032-.123c.029-.116.06-.233.093-.35.035-.12.071-.223.108-.308.048-.111.099-.168.152-.17.056-.002.085.026.088.085.002.053-.023.165-.074.335a4.495 4.495 0 0 0-.133.707 5.052 5.052 0 0 0-.031.805c.007.152.041.237.104.253l.056.002a.222.222 0 0 0 .12-.038.329.329 0 0 0 .063-.049l.072-.064c.042-.039.078-.059.11-.061.056-.002.085.026.088.085.002.037-.025.082-.078.134a.739.739 0 0 1-.407.195c-.199.009-.308-.203-.326-.636a3.173 3.173 0 0 1 .009-.346c-.1.294-.245.542-.436.743-.188.198-.378.301-.571.31zM19.866 21.339c-.072.003-.14-.031-.205-.103a.405.405 0 0 1-.099-.243c-.008-.193.029-.522.112-.986a3.434 3.434 0 0 1-.281.531c-.114.179-.227.338-.339.477s-.196.23-.25.272a.416.416 0 0 1-.253.1c-.177.008-.271-.101-.28-.324-.009-.218.061-.492.212-.822.151-.334.335-.625.551-.874.217-.246.395-.372.535-.378.143-.006.227.053.251.176a.503.503 0 0 1 .019.121.1.1 0 0 1 .051-.016c.072-.003.109.03.112.098l.001.019-.047.208c-.037.157-.072.389-.106.696s-.046.561-.037.763l.048.026c.077.043.116.088.118.135.001.031-.008.06-.029.085s-.048.039-.082.041zm-1.289-.197a.116.116 0 0 0 .083-.036c.306-.284.571-.671.796-1.16.129-.27.198-.431.208-.481.004-.056.005-.091.005-.103-.001-.031-.01-.059-.027-.083s-.037-.036-.062-.035a.261.261 0 0 0-.119.047c-.122.071-.263.215-.425.434a3.262 3.262 0 0 0-.386.689c-.105.244-.153.46-.145.646.002.056.027.083.074.081zM22.401 21.258c-.05.002-.079-.029-.088-.094.019-.275.076-.562.169-.862a8.27 8.27 0 0 0 .224-.982l-.168.227-.168.222a3.576 3.576 0 0 1-.521.611c-.027.02-.058.031-.092.032s-.064-.013-.091-.043a.472.472 0 0 1-.076-.146 3.395 3.395 0 0 1-.067-.263l-.087-.389-.028-.102a33.202 33.202 0 0 0-.485 1.32l-.025.081-.049.156a.152.152 0 0 0-.007.047.353.353 0 0 1-.016.057c.013.009.02.027.021.055.001.025-.013.05-.043.077a.136.136 0 0 1-.092.041c-.053.002-.081-.026-.083-.085-.011-.252.238-.992.746-2.219.035-.058.071-.087.108-.089.072-.003.109.033.112.107a.468.468 0 0 1-.022.132.834.834 0 0 0 .042.209c.015.065.041.187.076.366.021.133.057.275.107.425l.209-.247c.314-.378.503-.624.567-.739.121-.226.221-.341.298-.345.053-.002.088.023.106.075-.02.337-.092.728-.216 1.173a7.551 7.551 0 0 0-.235 1.057.181.181 0 0 1-.052.096c-.024.026-.048.039-.073.041zM24.915 21.165a.275.275 0 0 1-.204-.061.255.255 0 0 1-.073-.179 2.311 2.311 0 0 1 .043-.404l.083-.569c-.22.181-.426.275-.619.284-.14.006-.249-.027-.327-.098l-.015.094a.999.999 0 0 1-.01.094 6.025 6.025 0 0 1-.033.315c-.04.372-.116.561-.228.566-.047.002-.076-.029-.088-.094.018-.244.07-.623.157-1.138.09-.518.154-.868.193-1.05a.16.16 0 0 1 .048-.081.136.136 0 0 1 .083-.036c.037-.002.065.024.083.076a4.25 4.25 0 0 1-.063.489c-.035.21-.061.39-.08.541.072.075.181.109.327.103.143-.006.297-.084.462-.235.051-.049.099-.101.143-.156l.057-.316c.043-.229.094-.389.152-.479.029-.051.07-.078.123-.08s.081.026.083.085l.001.023c-.146.595-.235 1.026-.267 1.292a7.005 7.005 0 0 0-.067.709l-.002.061c.001.019.009.028.025.027a.05.05 0 0 0 .032-.015.146.146 0 0 1 .074-.017c.053-.002.081.025.083.081.005.109-.054.166-.175.171zM26.204 21.1a.402.402 0 0 1-.372-.176.858.858 0 0 1-.136-.452 2.453 2.453 0 0 1 .105-.827c.085-.272.206-.498.363-.679.151-.184.326-.28.525-.289.286-.012.438.199.457.635.009.218-.017.442-.079.672s-.146.436-.254.618a1.208 1.208 0 0 1-.333.397.523.523 0 0 1-.276.101zm.029-.211c.096-.004.2-.093.311-.266a2.25 2.25 0 0 0 .276-.638c.073-.252.106-.466.099-.64-.008-.18-.023-.292-.047-.334-.021-.046-.045-.078-.074-.095s-.073-.025-.132-.022a.37.37 0 0 0-.202.083c-.139.096-.257.257-.353.482-.151.337-.219.66-.206.971.009.211.076.355.201.431.044.02.087.029.127.027zM27.725 21.049c-.056.002-.085-.023-.088-.076a.584.584 0 0 1 .027-.137 8.32 8.32 0 0 0 .142-.726l.103-.766c.012-.075.023-.189.032-.343.016-.294.078-.443.187-.447.062-.003.095.041.099.131a.193.193 0 0 1-.03.071 5.33 5.33 0 0 0-.049.371 3.535 3.535 0 0 1-.057.316 3.605 3.605 0 0 0-.049.264c.101-.042.222-.066.361-.072l.299-.003a2.71 2.71 0 0 1 .359-.796c.111-.17.297-.26.558-.272.084-.004.161.018.232.065s.114.113.13.2c.02.024.033.045.04.064.006.355-.015.645-.061.872a2.871 2.871 0 0 1-.194.606c-.146.299-.327.483-.542.551a.972.972 0 0 1-.236.052c-.106.005-.191-.049-.255-.162a1.03 1.03 0 0 1-.103-.444 2.925 2.925 0 0 1 .029-.525l-.234.005a1.306 1.306 0 0 0-.241.034c-.077.022-.118.041-.124.057a.134.134 0 0 1-.059.049 8.67 8.67 0 0 1-.086.611c-.02.122-.048.251-.086.387a.13.13 0 0 1-.105.061zm1.353-.268c.093-.004.202-.073.328-.206.125-.136.212-.277.262-.422.052-.155.089-.312.111-.472.021-.163.031-.392.031-.688a.227.227 0 0 1-.035-.05c-.008-.112-.068-.165-.18-.161a.57.57 0 0 0-.456.258 1.605 1.605 0 0 0-.244.637c-.042.248-.059.47-.051.666.013.299.091.445.234.439zM30.281 21.753c-.056.002-.085-.024-.088-.08a.143.143 0 0 1 .025-.081 1.69 1.69 0 0 0 .183-.316c.069-.14.117-.248.145-.324 0-.009-.005-.017-.015-.023-.013-.003-.019-.013-.02-.032a.319.319 0 0 1-.078.022c-.062.003-.095-.029-.097-.094a.248.248 0 0 1 .058-.166.204.204 0 0 1 .165-.086c.134-.006.204.075.211.243.005.112-.037.257-.126.435a2.47 2.47 0 0 1-.284.47.141.141 0 0 1-.078.031zM32.559 20.833a.419.419 0 0 1-.298-.09.097.097 0 0 1-.036-.078.112.112 0 0 1 .038-.086c.024-.026.053-.04.087-.041s.058.008.071.03a.284.284 0 0 0 .058.044c.019.005.052.007.098.005.093-.004.192-.07.295-.2.039-.042.095-.118.168-.227a7.453 7.453 0 0 1 .371-.511 1.26 1.26 0 0 1 .093-.125l.066-.087c-.155.153-.287.232-.396.237a.25.25 0 0 1-.185-.062c-.046-.048-.071-.122-.075-.221-.005-.109.036-.254.121-.435s.191-.337.317-.467c.138-.134.267-.203.388-.208s.218.033.29.114l.055.077c.009-.007.026-.01.051-.012.044-.002.071.023.083.076a.99.99 0 0 1-.129.487c-.023.041-.041.064-.053.068l-.014.103c-.021.157-.04.279-.054.367-.079.48-.121.786-.124.917a.724.724 0 0 1-.028.207c-.014.029-.047.044-.096.046-.044.002-.07-.005-.08-.02a.188.188 0 0 1-.017-.083c.017-.322.073-.735.166-1.241a6.549 6.549 0 0 0-.454.627l-.272.409a1.533 1.533 0 0 1-.226.276.42.42 0 0 1-.276.105zm.684-1.291c.134-.006.295-.125.485-.357a4.75 4.75 0 0 0 .12-.15c.031-.151.062-.267.092-.35-.044-.073-.08-.117-.108-.131a.193.193 0 0 0-.094-.015c-.081.003-.172.054-.274.152s-.184.212-.247.342a.725.725 0 0 0-.089.326c.005.124.044.185.115.182zM34.681 20.742c-.05.002-.079-.029-.088-.094l.039-.296c.023-.2.051-.418.084-.653l.021-.169c.051-.398.084-.63.096-.696.028-.16.045-.295.053-.404a.164.164 0 0 1 .048-.081.133.133 0 0 1 .082-.036c.037-.002.065.024.083.076a.942.942 0 0 1-.011.169 2.018 2.018 0 0 0-.036.259l-.062.419c.327-.5.61-.813.848-.938a.373.373 0 0 1 .166-.049c.053-.002.112.034.178.109.069.075.104.142.107.201.002.05-.009.089-.032.118s-.053.044-.087.046c-.047.002-.09-.04-.132-.125l-.025-.046a.158.158 0 0 0-.035-.059c-.01-.015-.021-.022-.034-.022a.345.345 0 0 0-.128.062c-.061.037-.158.133-.291.288a3.977 3.977 0 0 0-.301.387c.04.291.111.547.211.767s.204.368.313.445a.276.276 0 0 0 .161.054.181.181 0 0 0 .124-.047.277.277 0 0 0 .074-.139c.022-.063.041-.097.056-.101.009-.007.026-.01.051-.012.019-.001.041.009.067.03.023.021.035.061.038.12a.26.26 0 0 1-.072.181c-.098.119-.198.181-.3.186-.299.013-.541-.223-.727-.707a2.719 2.719 0 0 1-.158-.521c-.009.013-.04.073-.095.182l-.052.105c-.038.273-.074.559-.108.86a.135.135 0 0 1-.043.091c-.027.029-.054.044-.082.046zM38.348 22.487a.469.469 0 0 1-.274-.068.54.54 0 0 1-.181-.193.508.508 0 0 1-.071-.231.991.991 0 0 1 .123-.524c.089-.163.221-.324.395-.484a8.08 8.08 0 0 1 .455-.389l.221-.182.019-.108.026-.146.026-.151.023-.127a1.17 1.17 0 0 1-.26.469c-.122.139-.242.211-.36.216a.363.363 0 0 1-.304-.127.622.622 0 0 1-.129-.387c-.011-.261.046-.676.171-1.246.063-.283.094-.435.093-.457l-.012-.056c-.004-.022.015-.049.057-.082s.077-.05.105-.051c.062-.003.095.027.097.089s-.044.326-.139.791c-.095.465-.139.78-.133.945.007.162.031.262.074.301a.183.183 0 0 0 .142.055c.118-.005.24-.11.365-.315.099-.16.184-.372.253-.637.073-.268.138-.55.197-.845l.019-.094a.95.95 0 0 1 .077-.265.118.118 0 0 1 .1-.06c.034-.001.058.007.071.025.016.015.022.032.016.051a36.63 36.63 0 0 1-.185 1.022c-.079.408-.133.736-.163.984a3.64 3.64 0 0 1 .157-.156c.06-.065.104-.11.134-.137s.059-.04.087-.041c.053-.002.08.023.083.076a.129.129 0 0 1-.033.095c-.12.117-.276.258-.468.422-.121.821-.238 1.358-.352 1.609a.793.793 0 0 1-.289.34.465.465 0 0 1-.236.071zm-.01-.224c.109-.005.204-.079.285-.222.055-.096.112-.248.172-.456l.051-.231.039-.184.087-.48-.076.073c-.105.098-.208.191-.31.28-.363.321-.539.62-.527.896.005.128.051.224.138.288.032.027.08.039.142.036zM40.267 20.503c-.05.002-.079-.029-.088-.094l.039-.296c.022-.2.051-.418.084-.653l.021-.169c.051-.398.083-.63.096-.696.027-.16.045-.295.053-.404a.16.16 0 0 1 .048-.081.136.136 0 0 1 .083-.036c.037-.002.065.024.083.076a.942.942 0 0 1-.011.169 2.018 2.018 0 0 0-.036.259l-.062.419c.328-.5.61-.813.848-.938a.373.373 0 0 1 .166-.049c.053-.002.112.034.178.109.069.075.104.142.107.201.002.05-.009.089-.032.118s-.053.044-.087.046c-.047.002-.091-.04-.132-.125l-.025-.046a.158.158 0 0 0-.035-.059c-.01-.015-.021-.022-.034-.022a.345.345 0 0 0-.128.062c-.061.037-.158.133-.292.288-.13.152-.231.281-.301.387.04.291.111.547.21.767s.204.368.313.445a.278.278 0 0 0 .161.054.181.181 0 0 0 .124-.047.27.27 0 0 0 .073-.139c.022-.063.041-.097.057-.101.009-.007.026-.01.051-.012.019-.001.041.009.067.03.023.021.035.061.038.12a.255.255 0 0 1-.072.181c-.098.119-.198.181-.301.186-.298.013-.541-.223-.726-.707a2.719 2.719 0 0 1-.158-.521c-.009.013-.04.073-.095.182l-.051.105c-.038.273-.074.559-.108.86a.135.135 0 0 1-.043.091c-.027.029-.054.044-.082.046zM42.148 22.292c-.047.002-.074-.028-.083-.09.078-.358.144-.716.197-1.074l.246-1.674c.097-.652.162-1.088.196-1.308l-.005-.103c-.001-.031.011-.061.038-.09s.059-.045.096-.046a.09.09 0 0 1 .081.039.14.14 0 0 1 .032.083.434.434 0 0 1-.017.136l-.016.061a.222.222 0 0 0-.007.052l-.051.339c.205-.436.436-.659.691-.67.134-.006.232.031.294.109.066.075.102.192.109.351.013.299-.016.597-.088.896s-.182.553-.332.762c-.153.215-.341.328-.565.337a.354.354 0 0 1-.212-.047.361.361 0 0 1-.129-.177l-.044.278c-.06.345-.103.606-.13.781-.058.383-.117.701-.174.956-.025.063-.068.096-.127.099zm.84-2.111c.162-.007.308-.116.439-.327.163-.272.263-.623.301-1.055.01-.134.013-.25.008-.346-.008-.202-.063-.301-.162-.297s-.21.081-.331.229a2.419 2.419 0 0 0-.399.727c-.1.278-.146.519-.138.721.01.239.104.355.281.348zM45.887 20.225c-.071.003-.14-.031-.205-.103a.393.393 0 0 1-.099-.243c-.008-.193.029-.522.112-.986a3.434 3.434 0 0 1-.281.531c-.114.179-.227.338-.339.477s-.196.23-.25.272a.416.416 0 0 1-.253.1c-.177.008-.27-.101-.28-.324-.009-.218.062-.492.212-.822.151-.334.334-.625.551-.874.217-.246.395-.372.535-.378.143-.006.226.053.251.176a.503.503 0 0 1 .019.121.1.1 0 0 1 .051-.016c.072-.003.109.03.112.098l.001.019-.047.208c-.037.157-.072.389-.106.696s-.046.561-.037.763l.048.026c.077.043.116.088.118.135.001.031-.008.06-.029.085s-.048.039-.083.041zm-1.289-.197a.116.116 0 0 0 .083-.036c.306-.284.571-.671.796-1.16.129-.27.198-.431.208-.481.004-.056.005-.091.005-.103-.001-.031-.01-.059-.027-.083s-.037-.036-.062-.035a.268.268 0 0 0-.12.047c-.122.071-.263.215-.425.434a3.262 3.262 0 0 0-.386.689c-.105.244-.153.46-.145.646.002.056.027.083.074.081zM46.786 17.401a.173.173 0 0 1-.123-.037.138.138 0 0 1-.051-.101.2.2 0 0 1 .063-.162.243.243 0 0 1 .156-.067.332.332 0 0 1 .104.028c.02.021.031.066.034.134.003.065-.014.116-.05.152a.2.2 0 0 1-.133.052zm.522-.022a.182.182 0 0 1-.123-.037.142.142 0 0 1-.051-.101.203.203 0 0 1 .068-.162.237.237 0 0 1 .151-.067.248.248 0 0 1 .104.028c.02.021.031.067.034.139a.185.185 0 0 1-.05.147.2.2 0 0 1-.133.052zm-.574 2.847c-.106.005-.162-.079-.17-.25a.417.417 0 0 1 .018-.118c.013-.054.025-.115.034-.184l.057-.316.076-.414a21.2 21.2 0 0 1 .09-.518.621.621 0 0 0 .014-.094 2.02 2.02 0 0 0 .037-.235l-.002-.047a.743.743 0 0 0-.039-.153.156.156 0 0 1 .033-.104.132.132 0 0 1 .096-.051c.034-.001.065.021.092.066s.042.096.044.152c.003.062-.054.401-.171 1.017s-.175.942-.173.979c.001.034.018.051.049.049.016-.001.043-.022.081-.064.036-.039.066-.059.091-.06.05-.002.076.028.079.09.002.037-.019.076-.06.115s-.091.071-.145.095a.354.354 0 0 1-.129.043zM49.277 20.122c-.087.004-.155-.017-.203-.061a.259.259 0 0 1-.073-.179 2.243 2.243 0 0 1 .044-.404l.083-.569c-.22.181-.426.275-.619.284-.14.006-.249-.027-.327-.098a3.044 3.044 0 0 0-.024.188 6.025 6.025 0 0 1-.033.315c-.04.372-.116.561-.228.566-.047.002-.076-.029-.088-.094.017-.244.07-.623.157-1.138.09-.518.154-.868.193-1.05a.16.16 0 0 1 .048-.081.134.134 0 0 1 .083-.036c.037-.002.065.024.083.076a4.25 4.25 0 0 1-.063.489c-.035.21-.061.39-.08.541.072.075.181.109.327.103.143-.006.297-.084.462-.235.051-.049.098-.101.143-.156l.057-.316c.043-.229.094-.389.152-.479.029-.051.07-.078.123-.08s.081.026.083.085l.001.023c-.146.595-.235 1.026-.267 1.292-.031.229-.05.409-.056.54a2.606 2.606 0 0 1-.011.169l-.002.061c.001.019.009.028.025.027a.048.048 0 0 0 .032-.015.146.146 0 0 1 .074-.017c.053-.002.08.025.083.081.005.109-.054.166-.175.171zM50.568 20.071a.433.433 0 0 1-.362-.148.65.65 0 0 1-.143-.396 2.645 2.645 0 0 1 .113-.855c.09-.297.214-.547.37-.75s.327-.308.51-.316c.134-.006.223.039.267.133a.915.915 0 0 1 .046.096c.017.043.034.067.05.073a.225.225 0 0 1 .022.069c.001.028-.012.055-.039.081a.115.115 0 0 1-.083.041c-.065.003-.109-.044-.132-.139s-.076-.142-.16-.138c-.112.005-.226.097-.344.276a2.465 2.465 0 0 0-.294.667 2.022 2.022 0 0 0-.102.673c.012.277.119.411.321.402.103-.004.196-.057.278-.157.009-.013.025-.034.049-.063a.27.27 0 0 1 .067-.068.112.112 0 0 1 .06-.026c.059-.003.09.023.092.076.003.062-.024.13-.08.204a.717.717 0 0 1-.507.264zM52.186 20.016c-.267.011-.409-.165-.425-.529a2.444 2.444 0 0 1 .04-.492l.067-.405.144-.894a.14.14 0 0 1 .058-.063.141.141 0 0 1 .078-.031c.022-.001.044.012.067.039s.035.056.036.087l-.124.589-.118.617c-.04.226-.058.398-.053.516.006.131.028.223.068.277.039.051.101.075.185.072.131-.006.236-.054.316-.144s.136-.208.167-.353c.028-.138.04-.259.036-.361-.011-.267-.082-.398-.213-.393-.084.004-.157.074-.22.21a.936.936 0 0 1-.091.167c-.024.026-.045.039-.064.04-.056.002-.085-.023-.087-.076-.001-.031.027-.096.085-.195.061-.102.111-.178.149-.226.083-.091.162-.138.237-.141.124-.005.222.05.292.165s.109.259.117.43a1.33 1.33 0 0 1-.084.541c-.062.165-.151.296-.268.395s-.249.151-.395.157zM53.52 19.936c-.05.002-.079-.029-.088-.094l.039-.296c.022-.2.051-.418.084-.653l.021-.169c.051-.398.083-.63.096-.696.027-.16.045-.295.053-.404a.164.164 0 0 1 .048-.081.136.136 0 0 1 .083-.036c.037-.002.065.024.083.076a.942.942 0 0 1-.011.169 2.018 2.018 0 0 0-.036.259l-.062.419c.328-.5.61-.813.848-.938a.373.373 0 0 1 .166-.049c.053-.002.112.034.178.109.069.075.104.142.107.201.002.05-.009.089-.032.118s-.053.044-.087.046c-.047.002-.091-.04-.132-.125l-.025-.046a.158.158 0 0 0-.035-.059c-.01-.015-.021-.022-.034-.022a.345.345 0 0 0-.128.062c-.061.037-.158.133-.292.288-.13.152-.231.281-.301.387.04.291.111.547.21.767s.204.368.313.445a.278.278 0 0 0 .161.054.181.181 0 0 0 .124-.047.27.27 0 0 0 .073-.139c.022-.063.041-.097.057-.101.009-.007.026-.01.051-.012.019-.001.041.009.067.03.023.021.035.061.038.12a.255.255 0 0 1-.072.181c-.098.119-.198.181-.301.186-.298.013-.541-.223-.726-.707a2.719 2.719 0 0 1-.158-.521c-.009.013-.04.073-.095.182l-.051.105c-.038.273-.074.559-.108.86a.135.135 0 0 1-.043.091c-.027.029-.054.044-.082.046zM56.935 19.789c-.034.001-.073-.025-.116-.079a.293.293 0 0 1-.062-.152l-.004-.079c-.004-.096.05-.39.163-.881l.05-.259-.115.271a6.445 6.445 0 0 1-.178.442c-.209.501-.444.757-.705.769-.155.007-.265-.074-.328-.243a.772.772 0 0 1-.032-.209 3.029 3.029 0 0 1 .069-.671c.031-.157.057-.273.078-.349l.032-.123c.029-.12.058-.245.087-.378.032-.135.048-.237.048-.306a.16.16 0 0 1 .048-.081c.027-.023.056-.035.087-.036s.058.038.08.118c.004.081-.008.181-.034.301-.026.116-.053.22-.08.312-.024.091-.039.15-.044.175-.11.407-.159.758-.147 1.053.004.093.043.157.116.191.025.011.06.016.103.014.087-.004.188-.095.301-.275.105-.166.21-.373.315-.621s.188-.472.252-.674c.065-.218.121-.377.166-.479s.098-.154.157-.156c.053-.002.08.023.083.076a1.89 1.89 0 0 1-.06.334 4.987 4.987 0 0 0-.124.599l-.085.639-.04.268c-.002.028-.008.07-.018.127.002.059.013.098.033.115l.044.054c.01.009.015.029.017.06s-.016.06-.052.086a.173.173 0 0 1-.106.047zM58.898 16.948a.526.526 0 0 1-.432-.164c-.105-.117-.161-.275-.17-.474a.146.146 0 0 1 .033-.104c.027-.029.057-.044.092-.046s.058.013.072.044c.018.052.037.136.057.25.04.198.14.293.302.286a.768.768 0 0 0 .469-.17 2.04 2.04 0 0 0 .4-.47.165.165 0 0 1 .092-.041c.056-.002.085.023.087.076a.138.138 0 0 1-.016.066c-.328.485-.657.734-.987.748zm.271 2.746c-.034.001-.073-.025-.116-.079a.302.302 0 0 1-.062-.152l-.004-.079c-.004-.096.05-.39.163-.881l.05-.259-.115.271a6.445 6.445 0 0 1-.178.442c-.209.501-.444.757-.705.769-.155.007-.265-.074-.328-.243a.772.772 0 0 1-.032-.209 3.029 3.029 0 0 1 .069-.671c.031-.157.057-.273.078-.349l.032-.123c.029-.12.058-.245.087-.378.032-.135.048-.237.048-.306a.16.16 0 0 1 .048-.081c.027-.023.056-.035.087-.036s.058.038.08.118c.004.081-.008.181-.034.301-.026.116-.053.22-.08.312-.024.091-.039.15-.044.175-.11.407-.159.758-.147 1.053.004.093.043.157.116.191.025.011.06.016.103.014.087-.004.188-.095.301-.275.105-.166.21-.373.315-.621s.189-.472.252-.674c.065-.218.121-.377.166-.479s.098-.154.157-.156c.053-.002.08.023.083.076a1.89 1.89 0 0 1-.06.334 4.987 4.987 0 0 0-.124.599l-.085.639-.04.268c-.002.028-.008.07-.018.127.002.059.013.098.033.115l.044.054c.01.009.015.029.017.06s-.016.06-.052.086a.173.173 0 0 1-.106.047zM61.853 21.448a.518.518 0 0 1-.551-.514.92.92 0 0 1 .08-.415 1.93 1.93 0 0 1 .277-.409c.104-.123.229-.251.376-.385l.423-.383c.018-.079.034-.162.045-.25a11.7 11.7 0 0 0 .065-.339c-.102.375-.244.624-.426.747a.316.316 0 0 1-.17.063.334.334 0 0 1-.276-.119.544.544 0 0 1-.117-.341 2.578 2.578 0 0 1 .118-.856c.09-.303.216-.564.378-.783.168-.222.356-.338.565-.347.1-.004.196.017.288.062a.135.135 0 0 1 .06-.017c.053-.002.08.021.082.071a.393.393 0 0 1-.022.15c-.077.231-.198.828-.362 1.791.048-.033.104-.081.167-.143l.081-.074c.039-.039.071-.067.095-.084s.046-.025.064-.026c.053-.002.08.023.083.076a.126.126 0 0 1-.029.095c-.187.154-.346.283-.479.385l-.056.442-.018.118c-.029.198-.055.362-.077.494a3.427 3.427 0 0 1-.086.387 1.114 1.114 0 0 1-.225.426.475.475 0 0 1-.352.174zm.124-2.108c.062-.003.132-.048.209-.135.077-.091.15-.206.219-.346.072-.143.127-.292.168-.446a25.847 25.847 0 0 0 .254-1.053.249.249 0 0 0-.18-.053c-.134.006-.27.1-.408.284a2.365 2.365 0 0 0-.335.687c-.085.272-.123.518-.113.739s.072.329.187.324zm-.176 1.877a.347.347 0 0 0 .175-.054.422.422 0 0 0 .143-.156c.044-.077.086-.183.127-.319s.072-.274.094-.415c.02-.107.036-.204.048-.292l.014-.103c.002-.025.006-.052.011-.08s.008-.058.01-.089l.009-.113c-.294.265-.52.504-.68.716-.156.212-.231.399-.224.561.007.171.049.278.126.322a.29.29 0 0 0 .146.022zM64.014 21.388a.469.469 0 0 1-.274-.068.54.54 0 0 1-.181-.193.508.508 0 0 1-.071-.231 1 1 0 0 1 .122-.524 1.97 1.97 0 0 1 .395-.484c.066-.065.218-.195.455-.389l.221-.182.019-.108.027-.146.026-.151.023-.127c-.049.173-.136.33-.26.469-.122.139-.242.211-.36.216a.363.363 0 0 1-.304-.127.622.622 0 0 1-.129-.387c-.011-.261.046-.676.171-1.246.063-.283.094-.436.093-.457l-.012-.056c-.004-.022.015-.049.057-.082s.077-.05.105-.051c.062-.003.095.027.097.089s-.044.326-.139.791c-.095.465-.139.78-.132.945.007.162.031.262.074.301a.184.184 0 0 0 .142.055c.118-.005.24-.11.365-.315.099-.16.184-.372.253-.637.073-.268.139-.55.198-.845l.019-.094a.95.95 0 0 1 .077-.265.118.118 0 0 1 .1-.06c.034-.001.058.007.071.025.016.015.022.032.016.051-.037.232-.098.573-.185 1.022-.079.408-.134.736-.164.984a3.64 3.64 0 0 1 .157-.156c.059-.065.104-.11.134-.137s.059-.04.087-.041c.053-.002.08.023.083.076a.125.125 0 0 1-.033.095c-.12.117-.276.258-.468.422-.121.821-.238 1.358-.352 1.609a.793.793 0 0 1-.289.34.464.464 0 0 1-.235.071zm-.01-.224c.109-.005.204-.079.285-.223a2.16 2.16 0 0 0 .172-.456l.051-.231.039-.184.087-.48-.076.073c-.105.098-.208.191-.31.28-.363.321-.539.62-.527.896a.355.355 0 0 0 .139.288c.032.027.079.039.142.036zM66.814 19.357c-.034.001-.06-.022-.078-.071a.44.44 0 0 0-.053-.147.942.942 0 0 1-.092-.183 2.787 2.787 0 0 0-.124-.284 12.492 12.492 0 0 1-.16-.348l-.597 1.007c-.026.048-.068.073-.127.076s-.09-.021-.092-.071a.242.242 0 0 1 .037-.114l.122-.211.139-.244c.171-.297.305-.524.401-.681l-.031-.069-.063-.161a9.243 9.243 0 0 0-.115-.289l-.042-.11a1.329 1.329 0 0 1-.042-.11l-.047-.119a.28.28 0 0 0-.016-.046.296.296 0 0 1-.016-.051.17.17 0 0 1-.022-.074c-.001-.019.011-.039.035-.062a.12.12 0 0 1 .087-.041c.059-.003.108.045.146.143.021.055.035.097.043.124.016.074.042.154.08.24.042.11.077.193.104.248.011.031.03.077.057.138.071-.093.16-.227.268-.399l.11-.173c.073-.112.112-.172.118-.178a.498.498 0 0 1 .126-.118.209.209 0 0 1 .065-.017c.05.007.076.031.078.071a.227.227 0 0 1-.019.104 1.172 1.172 0 0 1-.114.178 5.943 5.943 0 0 0-.194.279l-.052.086c-.093.154-.184.29-.272.409.199.431.309.678.331.743.032.089.066.164.103.225a.353.353 0 0 1 .059.18.13.13 0 0 1-.048.086.14.14 0 0 1-.092.037zM67.774 18.531c-.047.002-.075-.028-.083-.09.233-1.247.384-2.341.453-3.281.013-.147.029-.302.05-.465.028-.157.04-.312.036-.464a.172.172 0 0 1 .048-.082.136.136 0 0 1 .083-.036c.037-.002.065.024.083.076-.001.134-.014.3-.04.497-.03.254-.054.516-.074.788-.021.319-.072.755-.154 1.31a36.244 36.244 0 0 1-.275 1.647c-.031.064-.074.097-.126.099zm-.034.978c-.025.001-.045-.006-.062-.021s-.025-.033-.026-.055a.107.107 0 0 1 .003-.042c-.063-.022-.096-.066-.099-.131s.021-.122.072-.171a.261.261 0 0 1 .165-.077.143.143 0 0 1 .119.046c.029.03.045.073.048.129a.372.372 0 0 1-.061.208c-.04.073-.093.111-.159.114z"/></symbol><symbol id="checked" viewBox="0 0 32 32"><path fill="none" stroke="#fff" style="stroke:var(--color1,#fff)" stroke-linejoin="round" stroke-linecap="round" stroke-width="6.4" d="m3.202 20.8 10.409 5.902L28.802 4.801"/></symbol><symbol id="download" viewBox="0 0 32 32"><path fill="#fff" style="fill:var(--color1,#fff)" d="M16 .857a10.664 10.664 0 0 0-6.931 2.588C7.592 4.718 6.521 6.376 6.246 8.041 3.014 8.755.572 11.57.572 14.97c0 3.95 3.294 7.101 7.292 7.101h7.172V11.464a.962.962 0 0 1 1.646-.682c.181.18.282.426.282.682v10.607h8.077c3.498 0 6.387-2.758 6.387-6.223 0-3.155-2.395-5.726-5.466-6.16-.469-4.976-4.775-8.831-9.963-8.831zm-.683 30.576a.974.974 0 0 0 .683.284.962.962 0 0 0 .683-.284l5.786-5.786a.967.967 0 0 0-1.366-1.366l-4.139 4.141v-6.351h-1.929v6.351l-4.139-4.141a.967.967 0 0 0-1.366 1.366l5.786 5.786z"/></symbol><symbol id="instagram-logo" viewBox="0 0 107 32"><path d="M106.612 16.779c-.058-.214-.155-.39-.407-.409-.233-.02-.369.136-.447.331-.116.253-.155.546-.233.818-.136.565-.272 1.13-.583 1.617-.388.623-1.029.623-1.456.039-.233-.331-.349-.701-.447-1.091-.233-.935-.252-1.89-.272-2.844-.039-1.792.019-3.604.117-5.396.038-.584-.194-.974-.661-1.286a6.281 6.281 0 0 0-1.534-.643c-.699-.195-1.185.039-1.476.701-.816 1.948-1.456 3.935-1.845 6-.058.273-.097.546-.156.799a11.356 11.356 0 0 1-.194-1.383c-.117-1.442-.136-2.903-.155-4.344-.02-.623-.311-1.091-.836-1.422-.252-.156-.543-.253-.835-.351-.951-.253-1.34-.078-1.767.799s-.719 1.812-1.03 2.727c-.213.623-.427 1.266-.641 1.89-.038-.097-.038-.195-.038-.273V8.909c0-.292-.058-.584-.35-.682-.602-.195-1.223-.39-1.884-.37-.272 0-.407.156-.447.429-.019.136-.019.273-.019.39-.02 2.338-.078 4.676-.058 7.013 0 1.13-.35 2.104-.874 3.078a2.286 2.286 0 0 1-.544.682c-.505.429-1.126.292-1.437-.273a3.15 3.15 0 0 1-.252-.721c-.175-.877-.213-1.773-.213-2.649-.02-2.221.078-4.442.136-6.643 0-.292-.078-.526-.33-.662a3.455 3.455 0 0 0-1.845-.448c-.407.02-.621.273-.621.682v.39c-.078-.117-.117-.156-.155-.214-1.282-1.675-3.477-1.812-4.933-.312-.543.546-.951 1.208-1.262 1.909-.893 2.065-1.049 4.247-.757 6.468.136.935-.039 1.695-.661 2.377-.485.526-1.165.448-1.592-.117-.233-.312-.369-.662-.466-1.033-.35-1.364-.311-2.747-.137-4.111.137-1.071.389-2.104.621-3.136.078-.37.156-.721.058-1.091-.155-.662-.68-1.013-1.476-.994-.544 0-1.068.195-1.612.273-.524.078-1.029.175-1.573.273.058-.37.117-.701.097-1.033-.039-.584-.427-1.013-1.01-1.091-.932-.136-1.709.292-2.097 1.149-.427.974-.272 1.89.447 2.513.136.117.155.214.116.39-.602 2.338-1.67 4.461-3.03 6.448-.019.039-.039.097-.117.058v-.156c0-2.864 0-5.727.097-8.572.019-.292-.078-.507-.33-.623a3.742 3.742 0 0 0-1.709-.409c-.505 0-.757.273-.757.779 0 .078.019.156-.039.253l-.291-.351c-1.243-1.442-3.282-1.539-4.661-.234-.466.429-.816.935-1.107 1.5-1.107 2.162-1.34 4.461-1.087 6.819.116.974-.155 1.773-.738 2.494-.505.623-1.301.507-1.651-.214a2.75 2.75 0 0 1-.194-.565c-.233-.916-.252-1.831-.272-2.766-.02-2.201.078-4.403.155-6.585.019-.351-.116-.584-.408-.74a3.57 3.57 0 0 0-1.728-.39c-.408 0-.66.273-.68.682v.409c-.097-.136-.155-.195-.194-.273-1.185-1.5-3.165-1.714-4.622-.487-.757.643-1.262 1.481-1.631 2.377-.563 1.364-.738 2.805-.796 4.266-.039 1.325-.544 2.435-1.321 3.468-.233.312-.505.565-.874.721s-.641.078-.874-.234a2.318 2.318 0 0 1-.369-.799c-.233-.838-.291-1.714-.291-2.591 0-2.708.097-5.396.214-8.104 0-.195.097-.214.252-.214 1.01 0 2-.019 3.01-.039.544-.019.641-.097.816-.604.039-.117.078-.253.097-.39.116-.643 0-.799-.641-.838-1.068-.058-2.136-.136-3.204-.175-.194-.019-.272-.058-.252-.292.058-.974.078-1.968.116-2.961.019-.409-.039-.506-.408-.662-.563-.253-1.146-.39-1.728-.487-.621-.097-.874.097-.913.701-.097 1.071-.097 2.162-.136 3.234 0 .273-.097.312-.349.312-.796-.039-1.592-.058-2.369-.097-.155 0-.311.019-.388.156-.311.487-.466 1.032-.388 1.617.039.253.155.351.427.351.893.019 1.767.058 2.661.078.214 0 .252.078.252.273-.019 2.065-.02 4.13-.039 6.195 0 .097 0 .195-.019.273a7.204 7.204 0 0 1-1.612 3.273c-.175.195-.369.37-.602.604.136-.662.117-1.247-.058-1.812-.311-.955-.952-1.656-1.728-2.26-.816-.623-1.631-1.247-2.447-1.851-.136-.097-.175-.136-.039-.292.35-.39.621-.857.874-1.325.252-.487.485-.994.485-1.558 0-.604-.33-.994-.913-1.11-1.185-.234-2.35.331-3.03 1.442-.68 1.13-.641 2.24.136 3.253.117.136.117.234.039.39a70.369 70.369 0 0 1-2.097 3.74c-.408.682-.777 1.364-1.34 1.929-.175.175-.388.39-.66.312-.291-.078-.311-.39-.35-.623-.097-.546-.116-1.091-.116-1.636-.019-2.143.097-4.286.175-6.409.019-.584-.214-1.033-.68-1.364-.349-.253-.738-.448-1.126-.643-.466-.214-.952-.214-1.437-.058a2.839 2.839 0 0 0-.99.584c-.699.623-1.185 1.422-1.612 2.24-.621 1.208-1.01 2.494-1.476 3.76-.039.078-.019.214-.116.234V8.874c0-.312-.117-.507-.388-.623-.485-.214-.99-.39-1.515-.429-.544-.039-.699.097-.699.643-.019 2.494-.039 5.007-.039 7.5 0 1.013-.019 2.026 0 3.039 0 .565.019 1.11.272 1.636.136.312.369.565.719.643.388.078.777.117 1.185.058.485-.058.583-.175.641-.662.388-2.747 1.165-5.396 2.408-7.89.466-.935 1.01-1.812 1.748-2.572.058-.058.136-.156.233-.117s.058.156.058.234c-.019.76-.058 1.52-.097 2.279-.058 1.812-.233 3.623-.078 5.455.058.74.136 1.481.447 2.182.427.974 1.282 1.325 2.272.955.427-.156.777-.409 1.126-.701.913-.799 1.592-1.792 2.214-2.825.796-1.325 1.573-2.649 2.369-3.974.039-.078.078-.253.233-.097.699.682 1.495 1.286 2.097 2.065.485.623.757 1.325.699 2.123-.097 1.266-1.087 1.831-2.214 1.247-.194-.097-.388-.234-.583-.37-.175-.117-.35-.253-.524-.37-.33-.214-.583-.195-.874.058-.33.273-.563.623-.719 1.013-.252.662-.155.955.466 1.305.563.312 1.165.468 1.787.565 1.787.312 3.457.039 4.913-1.11.893-.701 1.554-1.617 2.078-2.63.194-.351.369-.721.544-1.091.078.058.058.136.078.214.039.468.116.935.233 1.403.214.877.524 1.695 1.126 2.377.835.916 2.447 1.442 3.748.156a6.962 6.962 0 0 0 1.359-1.909c.117-.253.233-.526.369-.799.116.312.214.604.311.896.117.292.252.565.408.838.796 1.325 2.078 1.929 3.515 1.675 1.165-.214 2.078-.877 2.758-1.831.175-.234.33-.487.505-.76.291 1.481 1.107 2.474 2.622 2.63 1.554.136 2.408-.857 3.03-2.143.058.117.097.195.155.273.699 1.227 1.728 1.987 3.185 1.909 1.165-.058 2.097-.604 2.874-1.481.155-.175.291-.351.447-.546.019 0 .039 0 .078.02 0 .312-.019.643 0 .955.019.214-.058.351-.214.487-1.204 1.11-2.447 2.182-3.573 3.37-.68.721-1.301 1.461-1.69 2.396-.544 1.325-.311 2.825.641 3.643.99.857 2.156 1.169 3.437.916 1.573-.312 2.641-1.325 3.243-2.805.524-1.305.699-2.688.738-4.091.039-1.305 0-2.591-.039-3.896 0-.214.058-.37.194-.526a19.057 19.057 0 0 0 1.515-1.987 27.354 27.354 0 0 0 3.34-6.546c.039-.117.058-.234.233-.234.583 0 1.146-.02 1.728-.039.233 0 .311.078.252.331-.117.429-.194.857-.272 1.305-.291 1.695-.447 3.39-.136 5.104.194 1.091.602 2.084 1.496 2.825.66.546 1.417.896 2.291.76 1.01-.156 1.67-.779 2.175-1.617.078-.117.136-.234.213-.39.058.117.117.214.175.292.796 1.325 2.059 1.948 3.515 1.695 1.185-.214 2.097-.877 2.777-1.851.175-.234.331-.487.505-.779.331 1.481 1.146 2.474 2.661 2.669 1.495.175 2.253-.818 2.835-2.084.039.468.078.857.117 1.247.019.273.136.448.388.565.641.292 1.301.351 2 .253.602-.078.718-.195.757-.799.058-1.052.039-2.123.155-3.175.195-2.046.777-3.955 1.71-5.786a.74.74 0 0 1 .174-.253c.039-.058.097-.097.175-.078.058.02.058.097.078.136 0 .058 0 .117.019.175.038 1.636.136 3.273.311 4.909.097.877.194 1.753.466 2.591.369 1.13 1.34 1.5 2.389 1.208.35-.097.447-.273.447-.623v-.448c.175-2.766.816-5.416 1.962-7.929.019-.058.038-.136.155-.156v.39a31.81 31.81 0 0 0-.038 2.727c.019 1.325.058 2.63.33 3.935.194.955.543 1.831 1.301 2.494 1.146 1.032 3.107 1.208 4.097-.74.311-.604.486-1.247.602-1.909.058-.37.156-.779.039-1.188zm-59.037.681c-.214.643-.524 1.247-1.029 1.734-.757.682-1.573.565-2.117-.292-.408-.643-.544-1.383-.641-2.123a12.014 12.014 0 0 1-.078-1.442c.019-1.266.117-2.513.524-3.721.155-.448.349-.857.66-1.208.796-.935 2.039-.799 2.641.253.35.623.466 1.286.524 1.987.097 1.617.02 3.234-.485 4.812zm12.506.39c-.194.526-.466.994-.893 1.364-.738.662-1.573.546-2.097-.292-.388-.623-.524-1.325-.621-2.046-.078-.487-.097-.994-.078-1.5.019-1.266.136-2.533.583-3.74.194-.526.447-.994.855-1.383.874-.799 2.02-.584 2.505.507.252.584.35 1.188.388 1.812.136 1.792.019 3.565-.641 5.279zm.525 10.306c-.175.584-.388 1.169-.971 1.52-.563.331-1.165.448-1.728.058-.583-.39-.699-.974-.621-1.617a3.917 3.917 0 0 1 .524-1.539c.816-1.52 2.039-2.708 3.282-3.974-.019 1.909.039 3.76-.486 5.552zm21.867-10.715c-.213.643-.505 1.247-1.01 1.714-.777.721-1.631.604-2.175-.312-.407-.682-.524-1.422-.602-2.201a11.48 11.48 0 0 1-.058-1.636c.058-1.227.117-2.455.563-3.624.155-.409.369-.799.68-1.11.816-.838 2-.662 2.564.37.369.701.485 1.461.524 2.24.078 1.558 0 3.078-.486 4.559zM8.378 2.207c0-.351-.117-.623-.408-.799-.971-.604-1.961-.857-3.03-.214C2.377 2.714.765 4.973.124 7.857c-.466 2.084.408 3.974 2.156 4.929.252.136.524.253.816.292.388.058.583-.175.466-.546-.058-.195-.175-.351-.291-.526-.466-.721-.68-1.539-.738-2.377-.097-1.851.35-3.565 1.243-5.163.35-.643.796-1.227 1.359-1.695.058-.039.117-.117.194-.097.097.039.097.136.097.214 0 .195.019.37.019.565-.019 5.182-.058 10.364-.078 15.546 0 1.325-.136 2.63-.563 3.896-.058.175-.117.37-.136.546-.058.312.078.448.388.409.175-.02.33-.078.486-.156.816-.409 1.418-1.033 1.864-1.812.68-1.208.893-2.533.932-3.896.078-2.572.039-5.143.039-7.695a573.402 573.402 0 0 1 0-8.085z"/></symbol><symbol id="agency-logo" viewBox="0 0 66 32"><path fill="#f78d40" style="fill:var(--color1,#f78d40)" d="M0 0h65.811v32H0V0z"/><path fill="#f0f0f0" style="fill:var(--color2,#f0f0f0)" opacity=".5" d="M10.544 9.221c.031.003.072.006.123.008h.207c.358 0 .624-.09.799-.271.178-.183.266-.438.266-.765 0-.332-.086-.587-.258-.765s-.438-.266-.799-.266c-.158 0-.271.004-.338.013v2.046zm1.952-1.027c0 .254-.039.475-.118.664a1.27 1.27 0 0 1-.338.469 1.415 1.415 0 0 1-.524.279 2.416 2.416 0 0 1-.676.089 5.58 5.58 0 0 1-.402-.017 2.511 2.511 0 0 1-.427-.059V6.775c.135-.031.279-.051.431-.059s.287-.013.406-.013c.245 0 .469.03.672.089.203.056.376.147.52.271.147.121.259.276.338.465.079.186.118.409.118.668zm.666 1.466V6.731h1.881v.452h-1.348v.723h1.2v.444h-1.2v.858h1.45v.452h-1.982zm3.398 0a27.186 27.186 0 0 1-.613-1.433 35.977 35.977 0 0 1-.545-1.496h.587l.207.604.211.609c.07.197.141.389.211.575s.139.356.207.511a20.521 20.521 0 0 0 .414-1.086 35.773 35.773 0 0 0 .419-1.213h.571c-.172.499-.355.997-.549 1.496s-.397.976-.609 1.433h-.511zm2.133 0V6.731h1.881v.452h-1.348v.723h1.2v.444h-1.2v.858h1.45v.452h-1.982zm4.412-.46v.461h-1.851V6.732h.533V9.2h1.319zm.757-1.006c0 .161.02.307.059.44.04.13.096.241.169.334a.8.8 0 0 0 .638.287c.132 0 .252-.025.359-.076s.197-.121.27-.211a.954.954 0 0 0 .173-.334c.04-.132.059-.279.059-.44s-.02-.306-.059-.435a.912.912 0 0 0-.173-.334c-.073-.093-.163-.165-.27-.216s-.227-.076-.359-.076a.791.791 0 0 0-.638.292c-.073.093-.13.204-.169.334s-.059.275-.059.435zm2.287 0c0 .251-.038.472-.114.664a1.36 1.36 0 0 1-.304.482c-.127.127-.276.223-.448.287s-.355.097-.549.097-.379-.032-.554-.097a1.296 1.296 0 0 1-.452-.287c-.127-.13-.228-.29-.304-.482s-.114-.413-.114-.664c0-.251.038-.471.114-.659.076-.192.179-.352.309-.482.132-.13.285-.227.456-.292s.354-.097.545-.097c.192 0 .373.032.545.097s.321.162.448.292c.13.13.232.29.309.482.076.189.114.409.114.659zm1.497-1.492c.425 0 .751.077.976.232.228.155.342.397.342.727 0 .172-.031.32-.093.444a.763.763 0 0 1-.262.3c-.116.076-.256.132-.423.169s-.356.055-.571.055h-.266V9.66h-.533V6.773c.124-.028.261-.046.41-.055.152-.011.292-.017.418-.017zm.038.461c-.135 0-.247.004-.334.013v.997h.258c.256 0 .454-.035.592-.106.138-.073.207-.21.207-.41 0-.096-.018-.176-.055-.241s-.087-.115-.152-.152a.674.674 0 0 0-.232-.076 1.483 1.483 0 0 0-.283-.025zm1.851 2.497V6.731h1.881v.452h-1.348v.723h1.2v.444h-1.2v.858h1.45v.452h-1.982zm3.094-.439c.031.003.072.006.123.008h.207c.358 0 .624-.09.799-.271.178-.183.266-.438.266-.765 0-.332-.086-.587-.258-.765s-.438-.266-.799-.266c-.158 0-.27.004-.338.013v2.046zm1.952-1.027c0 .254-.039.475-.118.664a1.27 1.27 0 0 1-.338.469 1.415 1.415 0 0 1-.524.279 2.416 2.416 0 0 1-.676.089c-.118 0-.252-.006-.401-.017a2.511 2.511 0 0 1-.427-.059V6.775c.135-.031.279-.051.431-.059s.287-.013.406-.013c.245 0 .469.03.672.089.203.056.376.147.52.271.147.121.259.276.338.465.079.186.118.409.118.668zm2.62 1.5c-.155 0-.311-.006-.469-.017a2.048 2.048 0 0 1-.414-.059V6.774c.062-.011.128-.021.199-.03.07-.011.142-.02.216-.025s.145-.01.216-.013c.073-.003.142-.004.207-.004.178 0 .342.014.495.042.152.025.283.069.393.131.113.062.2.144.262.245s.093.227.093.376a.618.618 0 0 1-.101.355.682.682 0 0 1-.275.237c.178.059.309.147.393.262s.127.262.127.44c0 .301-.11.528-.33.68-.22.149-.556.224-1.01.224zm-.359-1.352v.892a3.413 3.413 0 0 0 .68-.004.796.796 0 0 0 .245-.072.447.447 0 0 0 .165-.144.384.384 0 0 0 .063-.228c0-.166-.061-.282-.182-.347s-.289-.097-.503-.097h-.469zm0-.419h.376c.203 0 .362-.028.478-.085.115-.059.173-.163.173-.313a.308.308 0 0 0-.182-.3 1.044 1.044 0 0 0-.465-.089c-.082 0-.155.001-.22.004a2.023 2.023 0 0 0-.161.013v.769zm3.228.106c.127-.211.251-.425.372-.642s.231-.435.33-.655h.592c-.158.299-.323.596-.495.892-.169.293-.351.589-.545.888v1.15h-.533V8.521c-.194-.301-.378-.6-.549-.896s-.337-.593-.495-.892h.626c.099.22.207.438.325.655s.242.431.372.642z"/><path fill="#f0f0f0" style="fill:var(--color2,#f0f0f0)" d="M11.019 16.888c.05.366.482.609 1.011.609.557 0 .918-.237.918-.557 0-.296-.237-.44-.872-.566l-.735-.137c-1.035-.188-1.568-.721-1.568-1.53 0-1.035.934-1.702 2.233-1.702 1.405 0 2.234.647 2.249 1.649h-1.319c-.027-.388-.405-.621-.918-.621s-.83.214-.83.54c0 .289.249.447.837.562l.727.129c1.11.204 1.608.68 1.608 1.524 0 1.065-.923 1.737-2.367 1.737s-2.318-.6-2.335-1.638h1.359zM19.175 18.435v-2.148h-2.242v2.148h-1.424v-5.334h1.427v2.092h2.242v-2.092h1.424v5.334h-1.427zM21.619 18.435l1.884-5.334h1.744l1.893 5.334h-1.52l-.355-1.171h-1.833l-1.813 1.171zm2.088-2.147h1.28l-.623-2.055h-.031l-.627 2.055zM28.155 18.435v-5.334h2.433c1.206 0 2.023.743 2.023 1.893s-.859 1.881-2.109 1.881h-.918l-1.429 1.56zm1.429-2.579h.623c.607 0 .964-.299.964-.858s-.357-.854-.957-.854h-.623l-.008 1.712zM39.113 15.769c0 1.7-1.07 2.758-2.771 2.758s-2.774-1.058-2.774-2.758 1.074-2.762 2.774-2.762 2.771 1.061 2.771 2.762zm-4.09 0c0 1.013.518 1.657 1.319 1.657s1.32-.644 1.32-1.657-.522-1.657-1.32-1.657-1.319.645-1.319 1.657zM41.775 14.472l.711 2.635h.031l1.079-4.007h1.564l-1.791 5.334h-1.797l-1.79-5.334zM45.21 18.435l1.887-5.334h1.744l1.887 5.334h-1.513l-.355-1.171h-1.836l-1.813 1.171zm2.09-2.147h1.28l-.623-2.055h-.031l-.627 2.055zM53.175 17.341h2.323v1.095h-3.752v-5.334zM9.7 25.585l1.923-5.435h1.78l1.923 5.435h-1.547l-.365-1.194h-1.868L9.7 25.585zm2.128-2.188h1.305l-.635-2.094h-.031l-.639 2.094zM23.48 22.621v.667c0 1.484-.968 2.391-2.597 2.391-1.765 0-2.827-1.035-2.827-2.821 0-1.763 1.062-2.803 2.791-2.803 1.387 0 2.426.78 2.573 1.893h-1.439c-.143-.482-.572-.775-1.131-.775-.825 0-1.312.613-1.312 1.672s.539 1.729 1.37 1.729c.659 0 1.121-.369 1.158-.916v-.083H21.02zM30.805 25.585h-3.922V20.15h3.922v1.116h-2.466v1.082h2.319v1.016h-2.319v1.108h2.466v1.113zM34.307 25.585V20.15h1.161l2.428 3.161h.031V20.15h1.38v5.435h-1.15l-2.439-3.195h-.031v3.195h-1.38zM42.52 22.874c0-1.775 1.072-2.802 2.771-2.802 1.444 0 2.538.883 2.582 2.163h-1.396c-.071-.638-.549-1.065-1.186-1.065-.791 0-1.293.642-1.293 1.694s.498 1.715 1.302 1.715c.636 0 1.1-.399 1.191-1.033h1.395c-.067 1.289-1.121 2.137-2.589 2.137-1.713-.004-2.776-1.037-2.776-2.809zM52.235 25.585v-1.867l-1.97-3.568h1.562l1.137 2.26h.029l1.133-2.26h1.535l-1.97 3.568v1.867h-1.455z"/></symbol><svg id="blue-insta" width="19" height="18" viewBox="0 0 19 18" fill="none" xmlns="http://www.w3.org/2000/svg"><path d="M9.498 2.85c2 0 2.24.007 3.03.043.476.006.947.093 1.393.259.326.12.62.312.862.56.25.243.441.537.561.863.166.446.253.917.259 1.393.036.791.045 1.031.045 3.031s-.008 2.24-.044 3.03a4.146 4.146 0 0 1-.258 1.393 2.483 2.483 0 0 1-1.423 1.423 4.146 4.146 0 0 1-1.393.259c-.79.036-1.028.043-3.03.043-2.003 0-2.24-.007-3.03-.043a4.146 4.146 0 0 1-1.393-.259 2.321 2.321 0 0 1-.862-.56 2.321 2.321 0 0 1-.561-.863 4.146 4.146 0 0 1-.259-1.393c-.037-.79-.046-1.027-.046-3.03 0-2.002.007-2.24.043-3.03.006-.476.093-.947.259-1.393.12-.326.313-.62.562-.862.242-.249.537-.44.862-.56a4.146 4.146 0 0 1 1.393-.26c.79-.035 1.03-.044 3.03-.044Zm0-1.35c-2.037 0-2.292.008-3.091.045a5.521 5.521 0 0 0-1.821.35c-.5.188-.953.483-1.328.864a3.682 3.682 0 0 0-.866 1.328 5.521 5.521 0 0 0-.35 1.82C2.009 6.708 2 6.963 2 9s.009 2.292.045 3.092c.013.622.132 1.238.35 1.82.189.501.484.954.865 1.329a3.68 3.68 0 0 0 1.328.865 5.52 5.52 0 0 0 1.821.35c.8.037 1.055.045 3.092.045s2.292-.009 3.091-.045a5.52 5.52 0 0 0 1.821-.35 3.84 3.84 0 0 0 2.194-2.193 5.523 5.523 0 0 0 .35-1.821c.036-.8.044-1.055.044-3.092s-.008-2.292-.044-3.091a5.523 5.523 0 0 0-.35-1.821 3.683 3.683 0 0 0-.866-1.328 3.682 3.682 0 0 0-1.328-.866 5.521 5.521 0 0 0-1.82-.35C11.79 1.51 11.534 1.5 9.498 1.5Z" fill="#5D9EFF"/><path d="M9.498 5.15a3.85 3.85 0 1 0 0 7.699 3.85 3.85 0 0 0 0-7.7Zm0 6.349a2.5 2.5 0 1 1 0-5 2.5 2.5 0 0 1 0 5ZM13.501 5.896a.9.9 0 1 0 0-1.8.9.9 0 0 0 0 1.8Z" fill="#5D9EFF"/></svg></defs></svg>