<svg width="19" height="18" viewBox="0 0 19 18" fill="none" xmlns="http://www.w3.org/2000/svg">
<path d="M9.49827 2.84987C11.4981 2.84987 11.7381 2.85736 12.5285 2.89336C13.0041 2.89897 13.4753 2.98641 13.9213 3.15183C14.247 3.27204 14.5415 3.46372 14.7832 3.71278C15.0323 3.95454 15.224 4.24907 15.3442 4.57469C15.5096 5.02071 15.5971 5.49188 15.6027 5.96755C15.6387 6.75947 15.6477 6.99945 15.6477 8.99925C15.6477 10.9991 15.6402 11.239 15.6042 12.0294C15.5986 12.5051 15.5111 12.9763 15.3457 13.4223C15.2209 13.7456 15.0298 14.0392 14.7847 14.2842C14.5397 14.5293 14.2461 14.7203 13.9228 14.8452C13.4768 15.0106 13.0056 15.098 12.53 15.1036C11.7396 15.1396 11.5021 15.1471 9.49977 15.1471C7.49747 15.1471 7.26 15.1396 6.46958 15.1036C5.9939 15.098 5.52274 15.0106 5.07672 14.8452C4.75109 14.725 4.45656 14.5333 4.2148 14.2842C3.96574 14.0425 3.77406 13.7479 3.65386 13.4223C3.48843 12.9763 3.401 12.5051 3.39538 12.0294C3.35789 11.239 3.34889 11.0015 3.34889 8.99925C3.34889 6.99695 3.35639 6.75947 3.39238 5.96905C3.398 5.49338 3.48543 5.02221 3.65086 4.57619C3.7715 4.25043 3.9637 3.95589 4.2133 3.71428C4.45506 3.46522 4.74959 3.27354 5.07522 3.15333C5.52124 2.98791 5.9924 2.90047 6.46808 2.89486C7.2585 2.85886 7.49847 2.84987 9.49827 2.84987ZM9.49827 1.5C7.46148 1.5 7.206 1.5085 6.40658 1.545C5.78426 1.55818 5.16864 1.6765 4.58576 1.89496C4.0857 2.08316 3.63259 2.37796 3.2579 2.75887C2.87644 3.13342 2.58113 3.58654 2.39248 4.08674C2.17403 4.66961 2.0557 5.28523 2.04252 5.90756C2.00752 6.70698 1.99902 6.96245 1.99902 8.99925C1.99902 11.036 2.00752 11.2915 2.04402 12.0909C2.0572 12.7133 2.17553 13.3289 2.39398 13.9118C2.58263 14.412 2.87794 14.8651 3.2594 15.2396C3.63394 15.6211 4.08706 15.9164 4.58727 16.105C5.17014 16.3235 5.78576 16.4418 6.40808 16.455C7.208 16.4915 7.46298 16.5 9.49977 16.5C11.5366 16.5 11.792 16.4915 12.5915 16.455C13.2138 16.4418 13.8294 16.3235 14.4123 16.105C14.9103 15.912 15.3625 15.6173 15.7402 15.2396C16.1178 14.862 16.4125 14.4097 16.6056 13.9118C16.824 13.3289 16.9423 12.7133 16.9555 12.0909C16.992 11.291 17.0005 11.036 17.0005 8.99925C17.0005 6.96245 16.992 6.70698 16.9555 5.90756C16.9423 5.28523 16.824 4.66961 16.6056 4.08674C16.4169 3.58654 16.1216 3.13342 15.7402 2.75887C15.3656 2.37742 14.9125 2.0821 14.4123 1.89346C13.8294 1.675 13.2138 1.55668 12.5915 1.5435C11.7905 1.5085 11.5351 1.5 9.49827 1.5Z" fill="#5D9EFF"/>
<path d="M9.49827 5.14964C8.73688 5.14964 7.9926 5.37541 7.35953 5.79841C6.72647 6.22141 6.23305 6.82264 5.94168 7.52607C5.65032 8.22949 5.57408 9.00352 5.72262 9.75027C5.87116 10.497 6.2378 11.183 6.77618 11.7213C7.31455 12.2597 8.00049 12.6264 8.74724 12.7749C9.49399 12.9234 10.268 12.8472 10.9714 12.5558C11.6749 12.2645 12.2761 11.771 12.6991 11.138C13.1221 10.5049 13.3479 9.76063 13.3479 8.99925C13.3479 7.97827 12.9423 6.9991 12.2204 6.27716C11.4984 5.55522 10.5192 5.14964 9.49827 5.14964ZM9.49827 11.499C9.00386 11.499 8.52056 11.3524 8.10948 11.0777C7.6984 10.803 7.378 10.4126 7.1888 9.95586C6.9996 9.49909 6.95009 8.99648 7.04655 8.51157C7.143 8.02667 7.38108 7.58126 7.73067 7.23166C8.08027 6.88206 8.52568 6.64399 9.01059 6.54753C9.49549 6.45108 9.99811 6.50058 10.4549 6.68978C10.9116 6.87898 11.3021 7.19938 11.5767 7.61046C11.8514 8.02155 11.998 8.50485 11.998 8.99925C11.998 9.66223 11.7346 10.298 11.2659 10.7668C10.7971 11.2356 10.1612 11.499 9.49827 11.499Z" fill="#5D9EFF"/>
<path d="M13.5014 5.89606C13.9984 5.89606 14.4013 5.49316 14.4013 4.99615C14.4013 4.49914 13.9984 4.09624 13.5014 4.09624C13.0044 4.09624 12.6015 4.49914 12.6015 4.99615C12.6015 5.49316 13.0044 5.89606 13.5014 5.89606Z" fill="#5D9EFF"/>
</svg>
