<svg aria-hidden="true" style="position: absolute; width: 0; height: 0; overflow: hidden;" version="1.1" xmlns="http://www.w3.org/2000/svg" xmlns:xlink="http://www.w3.org/1999/xlink">
<defs>
<symbol id="Account" viewBox="0 0 31 32">
<path d="M23.51 9.469c0-4.328-3.509-7.837-7.837-7.837s-7.837 3.509-7.837 7.837c0 4.328 3.509 7.837 7.837 7.837s7.837-3.509 7.837-7.837zM20.898 9.469c0 2.885-2.339 5.224-5.224 5.224s-5.224-2.339-5.224-5.224c0-2.885 2.339-5.224 5.224-5.224s5.224 2.339 5.224 5.224z"></path>
<path d="M15.674 18.612c-3.834 0-6.598 0.795-8.58 1.988-1.991 1.197-3.109 2.744-3.726 4.096-0.52 1.14-0.284 2.302 0.408 3.13 0.659 0.789 1.684 1.235 2.756 1.235h18.286c1.072 0 2.097-0.446 2.756-1.235 0.692-0.828 0.928-1.99 0.408-3.13-0.617-1.353-1.735-2.899-3.726-4.097-1.983-1.192-4.747-1.988-8.581-1.988zM5.743 25.781c0.429-0.939 1.216-2.052 2.696-2.943 1.488-0.895 3.76-1.614 7.234-1.614s5.746 0.719 7.234 1.614c1.48 0.89 2.267 2.004 2.696 2.943 0.051 0.111 0.048 0.178 0.043 0.212-0.006 0.039-0.025 0.093-0.080 0.159-0.118 0.141-0.38 0.297-0.751 0.297h-18.286c-0.371 0-0.633-0.156-0.751-0.297-0.055-0.066-0.074-0.12-0.080-0.159-0.005-0.034-0.007-0.101 0.043-0.212z"></path>
</symbol>
<symbol id="Arrow-Left" viewBox="0 0 31 32">
<path d="M10.066 8.546c0.51 0.51 0.51 1.337 0 1.847l-4.301 4.301h22.969c0.721 0 1.306 0.585 1.306 1.306s-0.585 1.306-1.306 1.306h-22.969l4.301 4.301c0.51 0.51 0.51 1.337 0 1.847s-1.337 0.51-1.847 0l-6.531-6.531c-0.51-0.51-0.51-1.337 0-1.847l6.531-6.531c0.51-0.51 1.337-0.51 1.847 0z"></path>
</symbol>
<symbol id="Arrow-Right" viewBox="0 0 31 32">
<path d="M21.281 21.607c-0.51 0.51-0.51 1.337 0 1.847s1.337 0.51 1.847 0l6.531-6.531c0.51-0.51 0.51-1.337 0-1.847l-6.531-6.531c-0.51-0.51-1.337-0.51-1.847 0s-0.51 1.337 0 1.847l4.301 4.301h-22.969c-0.721 0-1.306 0.585-1.306 1.306s0.585 1.306 1.306 1.306h22.969l-4.301 4.301z"></path>
</symbol>
<symbol id="burger-2" viewBox="0 0 31 32">
<path d="M3.918 14.694h23.51c0.346 0 0.679-0.138 0.924-0.383s0.383-0.577 0.383-0.924c0-0.346-0.138-0.679-0.383-0.924s-0.577-0.383-0.924-0.383h-23.51c-0.346 0-0.679 0.138-0.924 0.383s-0.383 0.577-0.383 0.924c0 0.346 0.138 0.679 0.383 0.924s0.577 0.383 0.924 0.383zM27.429 17.306h-23.51c-0.346 0-0.679 0.138-0.924 0.383s-0.383 0.577-0.383 0.924c0 0.346 0.138 0.679 0.383 0.924s0.577 0.383 0.924 0.383h23.51c0.346 0 0.679-0.138 0.924-0.383s0.383-0.577 0.383-0.924c0-0.346-0.138-0.679-0.383-0.924s-0.577-0.383-0.924-0.383z"></path>
</symbol>
<symbol id="burger" viewBox="0 0 31 32">
<path d="M2.612 8.163c0-0.721 0.585-1.306 1.306-1.306h23.51c0.721 0 1.306 0.585 1.306 1.306s-0.585 1.306-1.306 1.306h-23.51c-0.721 0-1.306-0.585-1.306-1.306z"></path>
<path d="M2.612 16c0-0.721 0.585-1.306 1.306-1.306h23.51c0.721 0 1.306 0.585 1.306 1.306s-0.585 1.306-1.306 1.306h-23.51c-0.721 0-1.306-0.585-1.306-1.306z"></path>
<path d="M3.918 22.531c-0.721 0-1.306 0.585-1.306 1.306s0.585 1.306 1.306 1.306h23.51c0.721 0 1.306-0.585 1.306-1.306s-0.585-1.306-1.306-1.306h-23.51z"></path>
</symbol>
<symbol id="chat-dots-fill" viewBox="0 0 31 32">
<path d="M29.67 15.185c0 6.764-6.266 12.247-13.996 12.247-1.429 0-2.808-0.187-4.106-0.536-1.021 0.518-3.368 1.513-7.315 2.159-0.348 0.057-0.615-0.307-0.477-0.632 0.619-1.463 1.178-3.412 1.349-5.19-2.146-2.152-3.446-4.967-3.446-8.048 0-6.764 6.266-12.247 13.996-12.247s13.996 5.483 13.996 12.247zM10.425 15.185c0-0.966-0.783-1.75-1.75-1.75s-1.75 0.783-1.75 1.75c0 0.966 0.783 1.749 1.75 1.749s1.75-0.783 1.75-1.749zM17.423 15.185c0-0.966-0.783-1.75-1.749-1.75s-1.75 0.783-1.75 1.75c0 0.966 0.783 1.749 1.75 1.749s1.749-0.783 1.749-1.749zM22.672 16.935c0.966 0 1.75-0.783 1.75-1.749s-0.783-1.75-1.75-1.75c-0.966 0-1.75 0.783-1.75 1.75s0.783 1.749 1.75 1.749z"></path>
</symbol>
<symbol id="Check" viewBox="0 0 31 32">
<path d="M28.352 7.24c0.51 0.51 0.51 1.337 0 1.847l-15.673 15.673c-0.51 0.51-1.337 0.51-1.847 0l-7.837-7.837c-0.51-0.51-0.51-1.337 0-1.847s1.337-0.51 1.847 0l6.913 6.913 14.75-14.75c0.51-0.51 1.337-0.51 1.847 0z"></path>
</symbol>
<symbol id="Chevron-Down" viewBox="0 0 31 32">
<path d="M4.301 11.158c0.51-0.51 1.337-0.51 1.847 0l9.525 9.525 9.525-9.525c0.51-0.51 1.337-0.51 1.847 0s0.51 1.337 0 1.847l-10.449 10.449c-0.51 0.51-1.337 0.51-1.847 0l-10.449-10.449c-0.51-0.51-0.51-1.337 0-1.847z"></path>
</symbol>
<symbol id="Chevron-Left" viewBox="0 0 31 32">
<path d="M20.515 4.627c0.51 0.51 0.51 1.337 0 1.847l-9.525 9.525 9.525 9.525c0.51 0.51 0.51 1.337 0 1.847s-1.337 0.51-1.847 0l-10.449-10.449c-0.51-0.51-0.51-1.337 0-1.847l10.449-10.449c0.51-0.51 1.337-0.51 1.847 0z"></path>
</symbol>
<symbol id="Chevron-Right" viewBox="0 0 31 32">
<path d="M10.832 4.627c0.51-0.51 1.337-0.51 1.847 0l10.449 10.449c0.51 0.51 0.51 1.337 0 1.847l-10.449 10.449c-0.51 0.51-1.337 0.51-1.847 0s-0.51-1.337 0-1.847l9.525-9.525-9.525-9.525c-0.51-0.51-0.51-1.337 0-1.847z"></path>
</symbol>
<symbol id="Chevron-UP" viewBox="0 0 31 32">
<path d="M14.75 8.546c0.51-0.51 1.337-0.51 1.847 0l10.449 10.449c0.51 0.51 0.51 1.337 0 1.847s-1.337 0.51-1.847 0l-9.525-9.525-9.525 9.525c-0.51 0.51-1.337 0.51-1.847 0s-0.51-1.337 0-1.847l10.449-10.449z"></path>
</symbol>
<symbol id="Clock" viewBox="0 0 31 32">
<path d="M15.673 2.939c-3.348 0.010-6.565 1.305-8.986 3.618v-2.312c0-0.346-0.138-0.679-0.383-0.924s-0.577-0.383-0.924-0.383c-0.346 0-0.679 0.138-0.924 0.383s-0.383 0.577-0.383 0.924v5.878c0 0.346 0.138 0.679 0.383 0.924s0.577 0.383 0.924 0.383h5.878c0.346 0 0.679-0.138 0.924-0.383s0.383-0.577 0.383-0.924c0-0.346-0.138-0.679-0.383-0.924s-0.577-0.383-0.924-0.383h-3.135c1.679-1.755 3.918-2.87 6.33-3.153s4.848 0.283 6.889 1.601c2.040 1.318 3.558 3.306 4.292 5.621s0.638 4.814-0.272 7.067c-0.909 2.252-2.575 4.118-4.71 5.275s-4.608 1.535-6.991 1.067c-2.384-0.468-4.53-1.751-6.069-3.63s-2.377-4.235-2.367-6.664c0-0.346-0.138-0.679-0.383-0.924s-0.577-0.383-0.924-0.383c-0.346 0-0.679 0.138-0.924 0.383s-0.383 0.577-0.383 0.924c0 2.583 0.766 5.108 2.201 7.256s3.475 3.822 5.862 4.811c2.387 0.989 5.013 1.247 7.546 0.743s4.861-1.748 6.688-3.575c1.827-1.827 3.071-4.154 3.575-6.688s0.245-5.16-0.743-7.546c-0.989-2.387-2.663-4.426-4.811-5.862s-4.673-2.201-7.256-2.201zM15.673 10.775c-0.346 0-0.679 0.138-0.924 0.383s-0.383 0.577-0.383 0.924v3.918c0 0.346 0.138 0.679 0.383 0.924s0.577 0.383 0.924 0.383h2.612c0.346 0 0.679-0.138 0.924-0.383s0.383-0.577 0.383-0.924c0-0.346-0.138-0.679-0.383-0.924s-0.577-0.383-0.924-0.383h-1.306v-2.612c0-0.346-0.138-0.679-0.383-0.924s-0.577-0.383-0.924-0.383z"></path>
</symbol>
<symbol id="close" viewBox="0 0 31 32">
<path d="M17.515 16l8.229-8.216c0.246-0.246 0.384-0.58 0.384-0.927s-0.138-0.681-0.384-0.927c-0.246-0.246-0.58-0.384-0.927-0.384s-0.681 0.138-0.927 0.384l-8.216 8.229-8.216-8.229c-0.246-0.246-0.58-0.384-0.927-0.384s-0.681 0.138-0.927 0.384c-0.246 0.246-0.384 0.58-0.384 0.927s0.138 0.681 0.384 0.927l8.229 8.216-8.229 8.215c-0.122 0.121-0.22 0.266-0.286 0.425s-0.1 0.33-0.1 0.502c0 0.172 0.034 0.343 0.1 0.502s0.163 0.304 0.286 0.425c0.121 0.122 0.266 0.22 0.425 0.286s0.33 0.1 0.502 0.1 0.343-0.034 0.502-0.1c0.159-0.066 0.304-0.164 0.425-0.286l8.216-8.229 8.216 8.229c0.121 0.122 0.266 0.22 0.425 0.286s0.33 0.1 0.502 0.1 0.343-0.034 0.502-0.1c0.159-0.066 0.304-0.164 0.425-0.286s0.22-0.266 0.286-0.425c0.066-0.159 0.1-0.33 0.1-0.502s-0.034-0.343-0.1-0.502c-0.066-0.159-0.164-0.304-0.286-0.425l-8.229-8.216z"></path>
</symbol>
<symbol id="Digit" viewBox="0 0 31 32">
<path d="M14.878 23.184h2.86v-13.804h-2.87l-3.568 2.478v2.602l3.52-2.43h0.057v11.154z"></path>
</symbol>
<symbol id="down-right" viewBox="0 0 31 32">
<path d="M8.219 8.546c0.51-0.51 1.337-0.51 1.847 0l10.832 10.832v-9.908c0-0.721 0.585-1.306 1.306-1.306s1.306 0.585 1.306 1.306v13.061c0 0.721-0.585 1.306-1.306 1.306h-13.061c-0.721 0-1.306-0.585-1.306-1.306s0.585-1.306 1.306-1.306h9.908l-10.832-10.832c-0.51-0.51-0.51-1.337 0-1.847z"></path>
</symbol>
<symbol id="Eclipse-activate" viewBox="0 0 31 32">
<path d="M22.204 16c0 3.607-2.924 6.531-6.531 6.531s-6.531-2.924-6.531-6.531c0-3.607 2.924-6.531 6.531-6.531s6.531 2.924 6.531 6.531z"></path>
</symbol>
<symbol id="Eclipse-normal" viewBox="0 0 31 32">
<path fill="#ddd" style="fill: var(--color1, #ddd)" d="M22.204 16c0 3.607-2.924 6.531-6.531 6.531s-6.531-2.924-6.531-6.531c0-3.607 2.924-6.531 6.531-6.531s6.531 2.924 6.531 6.531z"></path>
</symbol>
<symbol id="Error" viewBox="0 0 31 32">
<path d="M16.899 3.183c0.388 0.161 0.741 0.397 1.038 0.694l9.86 9.859c0.298 0.297 0.534 0.65 0.695 1.039s0.244 0.805 0.244 1.226-0.083 0.837-0.244 1.226c-0.161 0.389-0.397 0.742-0.695 1.039l-9.86 9.859c-0.297 0.297-0.65 0.533-1.038 0.694s-0.805 0.244-1.225 0.244-0.837-0.083-1.225-0.244c-0.388-0.161-0.741-0.397-1.038-0.694l-9.86-9.859c-0.298-0.297-0.534-0.65-0.695-1.039s-0.244-0.805-0.244-1.226c0-0.421 0.083-0.837 0.244-1.226s0.397-0.742 0.695-1.039l9.86-9.859c0.297-0.297 0.65-0.533 1.038-0.694s0.805-0.244 1.225-0.244 0.837 0.083 1.225 0.244zM14.543 18.728c0.3 0.3 0.706 0.468 1.13 0.468s0.831-0.168 1.13-0.468c0.3-0.3 0.468-0.706 0.468-1.13v-7.993c0-0.424-0.168-0.831-0.468-1.13s-0.706-0.468-1.13-0.468-0.831 0.168-1.13 0.468c-0.3 0.3-0.468 0.706-0.468 1.13v7.993c0 0.424 0.168 0.831 0.468 1.13zM14.543 23.524c0.3 0.3 0.706 0.468 1.13 0.468s0.831-0.168 1.13-0.468c0.3-0.3 0.468-0.706 0.468-1.13s-0.168-0.831-0.468-1.13c-0.3-0.3-0.706-0.468-1.13-0.468s-0.831 0.168-1.13 0.468c-0.3 0.3-0.468 0.706-0.468 1.13s0.168 0.831 0.468 1.13z"></path>
</symbol>
<symbol id="facebook" viewBox="0 0 31 32">
<path d="M28.815 16.079c-0-2.511-0.72-4.97-2.075-7.085s-3.286-3.798-5.567-4.849-4.815-1.427-7.303-1.082c-2.488 0.345-4.825 1.395-6.734 3.026s-3.311 3.776-4.040 6.179c-0.729 2.403-0.753 4.965-0.071 7.382s2.043 4.588 3.92 6.256c1.878 1.668 4.194 2.763 6.674 3.155v-9.184h-3.336v-3.799h3.336v-2.895c0-3.294 1.962-5.113 4.964-5.113 0.986 0.014 1.969 0.099 2.942 0.256v3.235h-1.658c-0.282-0.037-0.57-0.011-0.84 0.078s-0.518 0.237-0.724 0.434-0.364 0.438-0.464 0.705c-0.1 0.267-0.138 0.553-0.113 0.836v2.464h3.645l-0.583 3.799h-3.062v9.184c3.091-0.489 5.907-2.065 7.94-4.445s3.149-5.407 3.149-8.537z"></path>
</symbol>
<symbol id="Git" viewBox="0 0 31 32">
<path d="M15.673 2.776c-7.364 0-13.39 6.025-13.39 13.39 0 5.942 3.849 10.963 9.122 12.72 0.67 0.084 0.921-0.251 0.921-0.669 0-0.335 0-1.172 0-2.259-3.766 0.837-4.519-1.757-4.519-1.757-0.586-1.506-1.506-1.925-1.506-1.925-1.255-0.837 0.084-0.837 0.084-0.837 1.339 0.084 2.092 1.339 2.092 1.339 1.172 2.008 3.096 1.423 3.933 1.088 0.084-0.837 0.502-1.423 0.837-1.757-3.013-0.335-6.109-1.506-6.109-6.611 0-1.423 0.502-2.678 1.339-3.598-0.167-0.335-0.586-1.674 0.167-3.515 0 0 1.088-0.335 3.682 1.339 1.088-0.335 2.176-0.418 3.347-0.418s2.259 0.167 3.347 0.418c2.594-1.757 3.682-1.423 3.682-1.423 0.753 1.841 0.251 3.18 0.167 3.515 0.837 0.921 1.339 2.092 1.339 3.598 0 5.105-3.096 6.276-6.109 6.611 0.502 0.418 0.921 1.255 0.921 2.511 0 1.757 0 3.264 0 3.682 0 0.335 0.251 0.753 0.921 0.669 5.272-1.757 9.122-6.778 9.122-12.72 0-7.364-6.025-13.39-13.389-13.39z"></path>
</symbol>
<symbol id="Home" viewBox="0 0 31 32">
<path d="M26.123 10.775l-7.837-6.87c-0.718-0.643-1.648-0.998-2.612-0.998s-1.894 0.355-2.612 0.998l-7.837 6.87c-0.415 0.371-0.746 0.826-0.971 1.335s-0.339 1.060-0.335 1.617v11.415c0 1.039 0.413 2.036 1.148 2.771s1.731 1.148 2.771 1.148h15.673c1.039 0 2.036-0.413 2.771-1.148s1.148-1.732 1.148-2.771v-11.429c0.003-0.554-0.113-1.103-0.338-1.61s-0.555-0.96-0.968-1.329zM18.286 26.449h-5.224v-6.531c0-0.346 0.138-0.679 0.383-0.924s0.577-0.383 0.924-0.383h2.612c0.346 0 0.679 0.138 0.924 0.383s0.383 0.577 0.383 0.924v6.531zM24.816 25.143c0 0.346-0.138 0.679-0.383 0.924s-0.577 0.383-0.924 0.383h-2.612v-6.531c0-1.039-0.413-2.036-1.148-2.771s-1.731-1.148-2.771-1.148h-2.612c-1.039 0-2.036 0.413-2.771 1.148s-1.148 1.731-1.148 2.771v6.531h-2.612c-0.346 0-0.679-0.138-0.924-0.383s-0.383-0.577-0.383-0.924v-11.429c0-0.185 0.040-0.369 0.117-0.538s0.188-0.32 0.328-0.442l7.837-6.857c0.238-0.209 0.545-0.325 0.862-0.325s0.624 0.115 0.862 0.325l7.837 6.857c0.139 0.122 0.251 0.273 0.328 0.442s0.116 0.352 0.116 0.538v11.429z"></path>
</symbol>
<symbol id="info" viewBox="0 0 31 32">
<path d="M15.673 5.314c-5.902 0-10.686 4.784-10.686 10.686s4.784 10.686 10.686 10.686c5.902 0 10.686-4.784 10.686-10.686s-4.784-10.686-10.686-10.686zM2.612 16c0-7.214 5.848-13.061 13.061-13.061s13.061 5.848 13.061 13.061c0 7.214-5.848 13.061-13.061 13.061s-13.061-5.848-13.061-13.061zM14.486 11.25c0-0.656 0.532-1.187 1.187-1.187h0.012c0.656 0 1.187 0.532 1.187 1.187s-0.532 1.187-1.187 1.187h-0.012c-0.656 0-1.187-0.532-1.187-1.187zM15.673 14.813c0.656 0 1.187 0.532 1.187 1.187v4.75c0 0.656-0.532 1.187-1.187 1.187s-1.187-0.532-1.187-1.187v-4.75c0-0.656 0.532-1.187 1.187-1.187z"></path>
</symbol>
<symbol id="instagram" viewBox="0 0 31 32">
<path d="M15.671 5.29c3.483 0 3.901 0.013 5.277 0.076 0.828 0.010 1.649 0.162 2.426 0.45 0.567 0.209 1.080 0.543 1.501 0.977 0.434 0.421 0.768 0.934 0.977 1.501 0.288 0.777 0.44 1.597 0.45 2.426 0.063 1.379 0.078 1.797 0.078 5.28s-0.013 3.901-0.076 5.277c-0.010 0.828-0.162 1.649-0.45 2.426-0.217 0.563-0.55 1.074-0.977 1.501s-0.938 0.759-1.501 0.977c-0.777 0.288-1.597 0.44-2.426 0.45-1.377 0.063-1.79 0.076-5.277 0.076s-3.901-0.013-5.277-0.076c-0.828-0.010-1.649-0.162-2.426-0.45-0.567-0.209-1.080-0.543-1.501-0.977-0.434-0.421-0.768-0.934-0.977-1.501-0.288-0.777-0.44-1.597-0.45-2.426-0.065-1.377-0.081-1.79-0.081-5.277s0.013-3.901 0.076-5.277c0.010-0.828 0.162-1.649 0.45-2.426 0.21-0.567 0.545-1.080 0.979-1.501 0.421-0.434 0.934-0.768 1.501-0.977 0.777-0.288 1.597-0.44 2.426-0.45 1.377-0.063 1.794-0.078 5.277-0.078zM15.671 2.939c-3.547 0-3.992 0.015-5.384 0.078-1.084 0.023-2.156 0.229-3.171 0.609-0.871 0.328-1.66 0.841-2.312 1.505-0.664 0.652-1.179 1.441-1.507 2.313-0.38 1.015-0.587 2.087-0.609 3.171-0.061 1.392-0.076 1.837-0.076 5.384s0.015 3.992 0.078 5.384c0.023 1.084 0.229 2.156 0.609 3.171 0.329 0.871 0.843 1.66 1.507 2.313 0.652 0.664 1.441 1.179 2.312 1.507 1.015 0.38 2.087 0.586 3.171 0.609 1.393 0.064 1.837 0.078 5.384 0.078s3.992-0.015 5.384-0.078c1.084-0.023 2.156-0.229 3.171-0.609 0.867-0.336 1.655-0.849 2.313-1.507s1.171-1.445 1.507-2.313c0.38-1.015 0.587-2.087 0.61-3.171 0.064-1.393 0.078-1.837 0.078-5.384s-0.015-3.992-0.078-5.384c-0.023-1.084-0.229-2.156-0.61-3.171-0.328-0.871-0.843-1.66-1.507-2.313-0.652-0.664-1.441-1.179-2.313-1.507-1.015-0.38-2.087-0.587-3.171-0.609-1.395-0.061-1.84-0.076-5.387-0.076z"></path>
<path d="M15.671 9.295c-1.326 0-2.622 0.393-3.725 1.13s-1.962 1.784-2.469 3.009-0.64 2.573-0.382 3.873c0.259 1.3 0.897 2.495 1.835 3.433s2.132 1.576 3.433 1.835c1.3 0.259 2.648 0.126 3.873-0.382s2.272-1.367 3.009-2.469c0.737-1.102 1.13-2.399 1.13-3.725 0-1.778-0.706-3.483-1.964-4.741s-2.962-1.964-4.741-1.964zM15.671 20.352c-0.861 0-1.703-0.255-2.419-0.734s-1.274-1.158-1.603-1.954c-0.329-0.796-0.416-1.671-0.248-2.515s0.583-1.62 1.191-2.229c0.609-0.609 1.385-1.023 2.229-1.191s1.72-0.082 2.515 0.248c0.795 0.33 1.475 0.887 1.954 1.603s0.734 1.558 0.734 2.419c0 1.155-0.459 2.262-1.275 3.078s-1.924 1.275-3.078 1.275z"></path>
<path d="M22.642 10.594c0.866 0 1.567-0.702 1.567-1.567s-0.702-1.567-1.567-1.567c-0.866 0-1.567 0.702-1.567 1.567s0.702 1.567 1.567 1.567z"></path>
</symbol>
<symbol id="linkedin" viewBox="0 0 31 32">
<path d="M2.612 4.647c0-1.033 0.859-1.871 1.918-1.871h22.286c1.059 0 1.918 0.838 1.918 1.871v22.38c0 1.033-0.859 1.871-1.918 1.871h-22.286c-1.059 0-1.918-0.838-1.918-1.871v-22.38zM10.683 24.643v-11.796h-3.921v11.796h3.921zM8.723 11.236c1.367 0 2.218-0.906 2.218-2.038-0.025-1.157-0.851-2.038-2.192-2.038s-2.218 0.881-2.218 2.038c0 1.132 0.851 2.038 2.167 2.038h0.026zM16.737 24.643v-6.587c0-0.353 0.025-0.705 0.129-0.957 0.283-0.704 0.929-1.434 2.012-1.434 1.419 0 1.986 1.082 1.986 2.667v6.31h3.92v-6.764c0-3.623-1.934-5.309-4.514-5.309-2.080 0-3.012 1.143-3.533 1.947v0.041h-0.026c0.009-0.013 0.017-0.027 0.026-0.041v-1.67h-3.921c0.051 1.107 0 11.796 0 11.796h3.921z"></path>
</symbol>
<symbol id="Mail-Fill" viewBox="0 0 31 32">
<path d="M1.395 8.018c0.363-1.599 1.793-2.793 3.503-2.793h21.551c1.709 0 3.14 1.194 3.503 2.793l-14.278 8.726-14.278-8.726zM1.306 10.068v12.757l10.422-6.388-10.422-6.369zM13.449 17.489l-11.798 7.232c0.576 1.215 1.814 2.055 3.247 2.055h21.551c1.434 0 2.671-0.84 3.247-2.055l-11.798-7.232-2.224 1.359-2.224-1.359zM19.619 16.437l10.422 6.388v-12.757l-10.422 6.369z"></path>
</symbol>
<symbol id="Mail" viewBox="0 0 31 32">
<path d="M1.306 8.163c0-2.164 1.754-3.918 3.918-3.918h20.898c2.164 0 3.918 1.754 3.918 3.918v15.673c0 2.164-1.754 3.918-3.918 3.918h-20.898c-2.164 0-3.918-1.754-3.918-3.918v-15.673zM5.224 6.857c-0.721 0-1.306 0.585-1.306 1.306v1.873l11.755 7.053 11.755-7.053v-1.873c0-0.721-0.585-1.306-1.306-1.306h-20.898zM27.429 13.082l-10.411 6.247c-0.827 0.496-1.861 0.496-2.688 0l-10.411-6.247v10.754c0 0.721 0.585 1.306 1.306 1.306h20.898c0.721 0 1.306-0.585 1.306-1.306v-10.754z"></path>
</symbol>
<symbol id="paperclip" viewBox="0 0 31 32">
<path d="M8.816 6.204c0-2.705 2.193-4.898 4.898-4.898s4.898 2.193 4.898 4.898v17.633c0 1.623-1.316 2.939-2.939 2.939s-2.939-1.316-2.939-2.939v-13.714c0-0.541 0.439-0.98 0.98-0.98s0.98 0.439 0.98 0.98v13.714c0 0.541 0.439 0.98 0.98 0.98s0.98-0.439 0.98-0.98v-17.633c0-1.623-1.316-2.939-2.939-2.939s-2.939 1.316-2.939 2.939v17.633c0 2.705 2.193 4.898 4.898 4.898s4.898-2.193 4.898-4.898v-13.714c0-0.541 0.439-0.98 0.98-0.98s0.98 0.439 0.98 0.98v13.714c0 3.787-3.070 6.857-6.857 6.857s-6.857-3.070-6.857-6.857v-17.633z"></path>
</symbol>
<symbol id="Person" viewBox="0 0 31 32">
<path d="M4.789 29.061c0 0-2.177 0-2.177-2.177s2.177-8.708 13.061-8.708 13.061 6.531 13.061 8.708c0 2.177-2.177 2.177-2.177 2.177h-21.769z"></path>
<path d="M15.673 16c3.607 0 6.531-2.924 6.531-6.531s-2.924-6.531-6.531-6.531-6.531 2.924-6.531 6.531c0 3.607 2.924 6.531 6.531 6.531z"></path>
</symbol>
<symbol id="Phone" viewBox="0 0 31 32">
<path d="M26.175 20.753l-3.694-0.422c-0.887-0.102-1.76 0.204-2.385 0.829l-2.676 2.676c-4.115-2.094-7.489-5.453-9.583-9.583l2.69-2.69c0.625-0.625 0.931-1.498 0.829-2.385l-0.422-3.665c-0.175-1.469-1.411-2.574-2.894-2.574h-2.516c-1.643 0-3.010 1.367-2.908 3.010 0.771 12.419 10.703 22.336 23.107 23.107 1.643 0.102 3.010-1.265 3.010-2.908v-2.516c0.015-1.469-1.091-2.705-2.559-2.879z"></path>
</symbol>
<symbol id="Play-Field" viewBox="0 0 31 32">
<path d="M25.569 12.623c2.576 1.515 2.576 5.24 0 6.755l-14.44 8.494c-2.612 1.537-5.905-0.347-5.905-3.377v-16.988c0-3.031 3.293-4.914 5.905-3.377l14.44 8.494z"></path>
</symbol>
<symbol id="Play" viewBox="0 0 31 32">
<path d="M24.245 17.126c0.858-0.505 0.858-1.747 0-2.252l-14.44-8.494c-0.871-0.512-1.968 0.116-1.968 1.126v16.988c0 1.010 1.098 1.638 1.968 1.126l14.44-8.494zM25.569 12.623c2.576 1.515 2.576 5.24 0 6.755l-14.44 8.494c-2.612 1.537-5.905-0.347-5.905-3.377v-16.988c0-3.031 3.293-4.914 5.905-3.377l14.44 8.494z"></path>
</symbol>
<symbol id="Plus" viewBox="0 0 31 32">
<path d="M16.98 6.857c0-0.721-0.585-1.306-1.306-1.306s-1.306 0.585-1.306 1.306v7.837h-7.837c-0.721 0-1.306 0.585-1.306 1.306s0.585 1.306 1.306 1.306h7.837v7.837c0 0.721 0.585 1.306 1.306 1.306s1.306-0.585 1.306-1.306v-7.837h7.837c0.721 0 1.306-0.585 1.306-1.306s-0.585-1.306-1.306-1.306h-7.837v-7.837z"></path>
</symbol>
<symbol id="search" viewBox="0 0 31 32">
<path d="M21.467 20.029l5.146 5.238c0.231 0.249 0.355 0.578 0.347 0.918s-0.148 0.662-0.39 0.9c-0.242 0.238-0.567 0.373-0.907 0.375s-0.666-0.127-0.912-0.362l-5.143-5.232c-1.985 1.495-4.463 2.18-6.934 1.916s-4.749-1.456-6.373-3.337-2.473-4.308-2.375-6.79c0.098-2.483 1.136-4.836 2.903-6.582s4.133-2.756 6.616-2.824 4.901 0.81 6.761 2.457c1.861 1.647 3.026 3.939 3.26 6.413s-0.481 4.944-2 6.91zM13.714 21.224c1.905 0 3.732-0.757 5.080-2.104s2.104-3.174 2.104-5.080c0-1.905-0.757-3.732-2.104-5.080s-3.174-2.104-5.080-2.104c-1.905 0-3.732 0.757-5.080 2.104s-2.104 3.174-2.104 5.080c0 1.905 0.757 3.732 2.104 5.080s3.174 2.104 5.080 2.104z"></path>
</symbol>
<symbol id="Skype" viewBox="0 0 31 32">
<path d="M10.359 2.939c1.435 0 2.829 0.403 4.028 1.147 0.427-0.046 0.857-0.069 1.288-0.069 1.586 0 3.157 0.311 4.623 0.916s2.797 1.492 3.919 2.61c1.122 1.118 2.012 2.445 2.619 3.906s0.919 3.026 0.919 4.607c0 0.562-0.039 1.122-0.118 1.676 0.148 0.263 0.281 0.535 0.397 0.814 0.383 0.923 0.581 1.911 0.581 2.91s-0.197 1.987-0.581 2.91c-0.383 0.923-0.945 1.761-1.654 2.467s-1.55 1.266-2.475 1.648c-0.926 0.382-1.918 0.579-2.92 0.579-1.372 0-2.707-0.369-3.87-1.051-0.477 0.057-0.958 0.086-1.441 0.086-1.586 0-3.157-0.311-4.623-0.916s-2.797-1.492-3.919-2.61c-1.122-1.118-2.012-2.445-2.619-3.906s-0.92-3.026-0.92-4.607c0-0.592 0.044-1.182 0.13-1.765-0.646-1.134-0.993-2.425-0.993-3.751 0-2.016 0.804-3.95 2.234-5.375s3.37-2.226 5.393-2.226zM11.088 14.383c0.295 0.505 0.702 0.934 1.19 1.256 0.647 0.423 1.334 0.781 2.052 1.067 0.803 0.336 1.426 0.62 1.869 0.853 0.375 0.184 0.714 0.432 1.005 0.731 0.22 0.233 0.342 0.542 0.341 0.862 0.009 0.226-0.035 0.451-0.13 0.656s-0.237 0.385-0.415 0.524c-0.476 0.32-1.045 0.472-1.617 0.431-0.323 0.003-0.646-0.030-0.962-0.099-0.256-0.056-0.507-0.136-0.749-0.237-0.212-0.092-0.501-0.229-0.868-0.413-0.295-0.157-0.623-0.242-0.958-0.246-0.3-0.012-0.593 0.091-0.819 0.289-0.108 0.103-0.192 0.227-0.247 0.366s-0.079 0.287-0.071 0.435c-0.007 0.282 0.078 0.558 0.242 0.787 0.197 0.25 0.453 0.449 0.744 0.578 1.139 0.493 2.373 0.727 3.613 0.684 0.902 0.018 1.801-0.128 2.651-0.432 0.705-0.25 1.319-0.706 1.763-1.309 0.436-0.636 0.657-1.396 0.63-2.166 0.017-0.63-0.141-1.252-0.455-1.797-0.32-0.519-0.75-0.961-1.261-1.294-0.647-0.417-1.332-0.77-2.048-1.053-0.076-0.037-0.156-0.069-0.237-0.095-0.733-0.303-1.285-0.546-1.654-0.73-0.33-0.155-0.629-0.369-0.882-0.631-0.213-0.224-0.33-0.521-0.327-0.83-0.010-0.235 0.043-0.469 0.154-0.676s0.275-0.381 0.477-0.504c0.477-0.284 1.025-0.424 1.58-0.404 0.425-0.004 0.849 0.048 1.261 0.157 0.447 0.129 0.884 0.289 1.309 0.479 0.172 0.080 0.36 0.122 0.549 0.124 0.138 0.004 0.275-0.022 0.403-0.075s0.242-0.133 0.337-0.233c0.1-0.109 0.177-0.237 0.228-0.376s0.073-0.287 0.067-0.435c0.004-0.285-0.095-0.561-0.279-0.778-0.251-0.263-0.561-0.462-0.906-0.578-0.375-0.138-0.762-0.238-1.157-0.299-0.551-0.090-1.11-0.133-1.668-0.128-0.854-0.005-1.703 0.138-2.508 0.422-0.74 0.25-1.401 0.692-1.916 1.28-0.495 0.586-0.756 1.334-0.735 2.1-0.018 0.604 0.123 1.202 0.408 1.735z"></path>
</symbol>
<symbol id="Star-Field" viewBox="0 0 31 32">
<path d="M13.319 4.653c0.737-2.286 3.971-2.286 4.708 0l2.050 6.358h6.654c2.392 0 3.391 3.057 1.461 4.469l-5.399 3.953 2.059 6.384c0.736 2.282-1.881 4.172-3.815 2.755l-5.363-3.926-5.363 3.926c-1.935 1.417-4.551-0.473-3.815-2.755l2.059-6.384-5.399-3.953c-1.93-1.413-0.93-4.469 1.461-4.469h6.654l2.050-6.358z"></path>
</symbol>
<symbol id="Star" viewBox="0 0 31 32">
<path d="M13.319 4.653c0.737-2.286 3.971-2.286 4.708 0l2.050 6.358h6.654c2.392 0 3.391 3.057 1.461 4.469l-5.399 3.953 2.059 6.384c0.736 2.282-1.881 4.172-3.815 2.755l-5.363-3.926-5.363 3.926c-1.935 1.417-4.551-0.473-3.815-2.755l2.059-6.384-5.399-3.953c-1.93-1.413-0.93-4.469 1.461-4.469h6.654l2.050-6.358zM17.724 11.77l-2.050-6.358-2.050 6.358c-0.33 1.022-1.281 1.714-2.354 1.714h-6.654l5.399 3.953c0.86 0.63 1.22 1.74 0.893 2.755l-2.059 6.384 5.363-3.926c0.87-0.637 2.052-0.637 2.922 0l5.363 3.926-2.059-6.384c-0.327-1.015 0.033-2.125 0.893-2.755l5.399-3.953h-6.654c-1.074 0-2.025-0.693-2.354-1.714z"></path>
</symbol>
<symbol id="success" viewBox="0 0 31 32">
<path d="M15.673 29.061c-3.464 0-6.786-1.376-9.236-3.826s-3.826-5.772-3.826-9.236 1.376-6.786 3.826-9.236c2.449-2.449 5.772-3.826 9.236-3.826s6.786 1.376 9.236 3.826c2.45 2.449 3.826 5.772 3.826 9.236s-1.376 6.786-3.826 9.236c-2.449 2.45-5.772 3.826-9.236 3.826zM17.9 11.161l-3.513 6.71-2.519-2.269c-0.159-0.143-0.346-0.254-0.548-0.326s-0.416-0.103-0.631-0.091-0.424 0.065-0.617 0.157c-0.194 0.092-0.367 0.222-0.51 0.381s-0.254 0.346-0.326 0.548c-0.072 0.202-0.103 0.416-0.091 0.631s0.065 0.424 0.157 0.618c0.092 0.194 0.222 0.367 0.381 0.51l4.082 3.673c0.185 0.167 0.405 0.289 0.645 0.357s0.491 0.081 0.736 0.037 0.477-0.143 0.677-0.291c0.201-0.147 0.365-0.338 0.481-0.559l4.49-8.571c0.201-0.384 0.241-0.831 0.112-1.245s-0.417-0.758-0.801-0.959-0.831-0.241-1.245-0.112c-0.413 0.129-0.758 0.417-0.959 0.801z"></path>
</symbol>
<symbol id="Tel" viewBox="0 0 31 32">
<path d="M4.539 5.195c1.401-1.962 4.275-2.079 5.832-0.239l2.49 2.943c0.722 0.854 0.821 2.073 0.246 3.031l-1.918 3.197c0.154 0.252 0.362 0.552 0.629 0.895 0.475 0.611 1.083 1.289 1.76 1.966 1.141 1.141 2.418 2.218 3.517 2.946l3.135-1.881c0.959-0.575 2.178-0.476 3.031 0.246l3.085 2.61c1.768 1.496 1.655 4.257-0.23 5.603-2.907 2.076-6.813 2.57-10.014 0.616-2.206-1.347-4.91-3.248-7.329-5.667-2.242-2.242-3.877-4.567-5.018-6.501-1.879-3.185-1.218-6.965 0.783-9.767zM8.377 6.643c-0.457-0.54-1.3-0.506-1.712 0.070-1.556 2.179-1.89 4.835-0.659 6.922 1.053 1.786 2.559 3.925 4.615 5.981 2.226 2.226 4.746 4.005 6.843 5.284 2.16 1.318 4.931 1.062 7.134-0.512 0.499-0.356 0.529-1.087 0.061-1.483l-3.085-2.61-3.816 2.29c-0.404 0.242-0.907 0.248-1.317 0.016-1.5-0.852-3.253-2.305-4.711-3.763-0.736-0.736-1.419-1.495-1.975-2.209-0.54-0.694-1.018-1.419-1.275-2.078-0.147-0.377-0.111-0.8 0.097-1.147l2.29-3.816-2.49-2.943z"></path>
</symbol>
<symbol id="Telegram" viewBox="0 0 31 32">
<path d="M28.735 16c0 7.214-5.848 13.061-13.061 13.061s-13.061-5.848-13.061-13.061c0-7.214 5.848-13.061 13.061-13.061s13.061 5.848 13.061 13.061zM16.141 12.581c-1.27 0.528-3.809 1.622-7.617 3.281-0.618 0.246-0.942 0.486-0.972 0.722-0.050 0.398 0.448 0.554 1.126 0.767 0.092 0.029 0.188 0.059 0.286 0.091 0.667 0.217 1.564 0.47 2.030 0.48 0.423 0.009 0.895-0.165 1.416-0.523 3.558-2.401 5.394-3.615 5.509-3.641 0.081-0.018 0.194-0.042 0.27 0.026s0.069 0.196 0.061 0.231c-0.049 0.21-2.003 2.027-3.014 2.967-0.315 0.293-0.539 0.501-0.585 0.548-0.102 0.106-0.207 0.207-0.307 0.304-0.62 0.597-1.084 1.045 0.026 1.777 0.533 0.351 0.96 0.642 1.386 0.932 0.465 0.317 0.929 0.633 1.529 1.026 0.153 0.1 0.299 0.204 0.441 0.306 0.541 0.386 1.027 0.732 1.628 0.677 0.349-0.032 0.709-0.36 0.893-1.339 0.433-2.313 1.283-7.325 1.48-9.39 0.017-0.181-0.004-0.413-0.022-0.514s-0.054-0.247-0.186-0.354c-0.156-0.127-0.398-0.154-0.506-0.152-0.491 0.009-1.245 0.271-4.872 1.779z"></path>
</symbol>
<symbol id="Twitter-Field" viewBox="0 0 31 32">
<path d="M30.367 6.936c-1.099 0.458-2.197 0.824-3.479 0.916 1.282-0.732 2.197-1.923 2.655-3.296-1.19 0.732-2.472 1.19-3.845 1.465-1.099-1.19-2.655-1.923-4.303-1.923-3.296 0-6.042 2.655-6.042 6.042 0 0.458 0.092 0.916 0.183 1.373-5.035-0.275-9.43-2.655-12.451-6.317-0.549 0.915-0.824 1.923-0.824 3.021 0 2.106 1.099 3.937 2.655 5.035-1.007 0-1.923-0.275-2.747-0.732v0.092c0 2.93 2.106 5.31 4.852 5.859-0.549 0.092-1.007 0.183-1.556 0.183-0.366 0-0.732 0-1.099-0.092 0.732 2.38 3.021 4.12 5.585 4.211-2.014 1.648-4.669 2.563-7.507 2.563-0.458 0-1.007 0-1.465-0.092 2.747 1.648 5.951 2.655 9.338 2.655 11.078 0 17.12-9.155 17.12-17.12 0-0.275 0-0.549 0-0.732 1.099-0.915 2.106-1.923 2.93-3.113z"></path>
</symbol>
<symbol id="up-right" viewBox="0 0 31 32">
<path d="M9.143 10.775c-0.721 0-1.306-0.585-1.306-1.306s0.585-1.306 1.306-1.306h13.061c0.721 0 1.306 0.585 1.306 1.306v13.061c0 0.721-0.585 1.306-1.306 1.306s-1.306-0.585-1.306-1.306v-9.908l-10.832 10.832c-0.51 0.51-1.337 0.51-1.847 0s-0.51-1.337 0-1.847l10.832-10.832h-9.908z"></path>
</symbol>
<symbol id="whatsapp" viewBox="0 0 31 32">
<path d="M24.877 6.737c-2.439-2.452-5.691-3.798-9.154-3.798-7.131 0-12.94 5.809-12.946 12.94 0 2.284 0.596 4.506 1.725 6.473l-1.831 6.709 6.864-1.8c1.893 1.030 4.022 1.576 6.188 1.576h0.006c7.131 0 12.94-5.809 12.946-12.946-0.006-3.457-1.353-6.709-3.798-9.154zM15.723 26.647c-1.936 0-3.829-0.521-5.48-1.502l-0.391-0.236-4.071 1.067 1.086-3.972-0.254-0.41c-1.080-1.713-1.645-3.693-1.645-5.722 0-5.921 4.829-10.749 10.762-10.749 2.874 0 5.573 1.123 7.609 3.153 2.030 2.036 3.147 4.735 3.147 7.609-0.006 5.939-4.835 10.762-10.762 10.762zM21.625 18.591c-0.323-0.161-1.912-0.943-2.209-1.055-0.298-0.106-0.515-0.161-0.726 0.161-0.217 0.323-0.838 1.055-1.024 1.266-0.186 0.217-0.379 0.242-0.701 0.081s-1.365-0.503-2.6-1.607c-0.962-0.857-1.607-1.918-1.8-2.241-0.186-0.323-0.019-0.497 0.143-0.658 0.143-0.143 0.323-0.379 0.484-0.565s0.217-0.323 0.323-0.54c0.106-0.217 0.056-0.403-0.025-0.565s-0.726-1.756-0.999-2.402c-0.261-0.633-0.528-0.546-0.726-0.552-0.186-0.012-0.403-0.012-0.621-0.012s-0.565 0.081-0.863 0.403c-0.298 0.323-1.13 1.105-1.13 2.7s1.161 3.128 1.322 3.345c0.161 0.217 2.278 3.482 5.524 4.884 0.77 0.335 1.372 0.534 1.843 0.683 0.776 0.248 1.477 0.211 2.036 0.13 0.621-0.093 1.912-0.782 2.185-1.539 0.267-0.757 0.267-1.403 0.186-1.539s-0.298-0.217-0.621-0.379z"></path>
</symbol>

<symbol id="logo-small" viewBox="0 0 92 32">
<path d="M11.635 3.182v9.533h-1.741v-5.854c0-0.123 0.002-0.254 0.007-0.394 0.009-0.14 0.022-0.282 0.039-0.427l-2.727 5.171c-0.149 0.285-0.379 0.427-0.69 0.427h-0.276c-0.153 0-0.289-0.035-0.407-0.105-0.118-0.074-0.212-0.182-0.282-0.322l-2.74-5.19c0.013 0.153 0.024 0.302 0.033 0.447 0.009 0.14 0.013 0.272 0.013 0.394v5.854h-1.741v-9.533h1.498c0.083 0 0.158 0.002 0.223 0.007s0.123 0.018 0.171 0.039c0.053 0.018 0.099 0.048 0.138 0.092 0.044 0.039 0.085 0.096 0.125 0.171l2.667 5.085c0.083 0.153 0.16 0.311 0.23 0.473 0.074 0.162 0.145 0.329 0.21 0.499 0.066-0.175 0.134-0.346 0.204-0.512 0.074-0.166 0.153-0.326 0.237-0.48l2.648-5.065c0.039-0.074 0.081-0.131 0.125-0.171 0.044-0.044 0.090-0.074 0.138-0.092 0.053-0.022 0.11-0.035 0.171-0.039 0.066-0.004 0.142-0.007 0.23-0.007h1.498z"></path>
<path d="M19.246 9.049v3.666h-1.971v-3.666l-3.462-5.867h1.735c0.171 0 0.307 0.042 0.407 0.125 0.105 0.079 0.188 0.182 0.25 0.309l1.564 3.003c0.105 0.201 0.199 0.39 0.283 0.565 0.088 0.175 0.164 0.35 0.23 0.526 0.061-0.175 0.131-0.35 0.21-0.526 0.083-0.18 0.175-0.368 0.276-0.565l1.551-3.002c0.053-0.105 0.131-0.204 0.237-0.296s0.241-0.138 0.407-0.138h1.748l-3.462 5.867z"></path>
<path d="M26.87 7.117h0.388c0.324 0 0.559-0.101 0.703-0.302l2.411-3.226c0.114-0.153 0.239-0.258 0.375-0.315 0.136-0.061 0.302-0.092 0.499-0.092h1.708l-3.035 3.909c-0.197 0.254-0.401 0.436-0.611 0.545 0.153 0.061 0.291 0.142 0.414 0.243 0.123 0.096 0.241 0.226 0.355 0.388l3.114 4.448h-1.754c-0.114 0-0.212-0.009-0.296-0.026-0.079-0.018-0.149-0.042-0.21-0.072s-0.114-0.068-0.158-0.112c-0.044-0.048-0.085-0.103-0.125-0.164l-2.451-3.43c-0.083-0.118-0.182-0.201-0.296-0.25-0.114-0.053-0.274-0.079-0.48-0.079h-0.552v4.133h-1.971v-9.533h1.971v3.935z"></path>
<path d="M43.515 3.182v9.533h-1.984v-4.106h-4.198v4.106h-1.984v-9.533h1.984v4.047h4.198v-4.047h1.984z"></path>
<path d="M51.858 9.095l-1.032-2.917c-0.061-0.153-0.127-0.333-0.197-0.539-0.066-0.206-0.129-0.429-0.191-0.67-0.061 0.245-0.127 0.473-0.197 0.683-0.066 0.206-0.129 0.385-0.191 0.539l-1.025 2.904h2.832zM55.17 12.715h-1.531c-0.171 0-0.311-0.039-0.421-0.118-0.105-0.083-0.184-0.188-0.237-0.315l-0.644-1.82h-3.797l-0.644 1.82c-0.044 0.11-0.12 0.21-0.23 0.302-0.109 0.088-0.247 0.131-0.414 0.131h-1.544l3.725-9.533h2.017l3.719 9.533z"></path>
<path d="M59.35 12.715h-1.984v-9.533h1.984v9.533z"></path>
<path d="M68.315 11.112v1.603h-5.657v-9.533h1.971v7.93h3.686z"></path>
<path d="M79.753 7.945c0 0.696-0.118 1.342-0.355 1.938-0.232 0.596-0.563 1.11-0.992 1.544-0.425 0.434-0.937 0.775-1.537 1.025-0.6 0.245-1.266 0.368-1.997 0.368s-1.397-0.123-1.997-0.368c-0.6-0.25-1.115-0.591-1.544-1.025s-0.762-0.948-0.999-1.544c-0.232-0.596-0.348-1.242-0.348-1.938s0.116-1.34 0.348-1.932c0.237-0.596 0.569-1.11 0.999-1.544s0.944-0.773 1.544-1.018c0.6-0.25 1.266-0.374 1.997-0.374s1.397 0.125 1.997 0.374c0.6 0.245 1.112 0.587 1.537 1.025 0.429 0.434 0.76 0.948 0.992 1.544 0.236 0.591 0.355 1.233 0.355 1.925zM77.736 7.945c0-0.499-0.066-0.946-0.197-1.34-0.131-0.399-0.322-0.736-0.572-1.012-0.245-0.28-0.545-0.493-0.9-0.637-0.35-0.149-0.749-0.223-1.196-0.223s-0.847 0.074-1.202 0.223c-0.355 0.145-0.657 0.357-0.907 0.637-0.245 0.276-0.434 0.613-0.565 1.012-0.131 0.394-0.197 0.841-0.197 1.34 0 0.504 0.066 0.955 0.197 1.353 0.131 0.394 0.32 0.729 0.565 1.005 0.25 0.276 0.552 0.488 0.907 0.637 0.355 0.145 0.755 0.217 1.202 0.217s0.845-0.072 1.196-0.217c0.355-0.149 0.655-0.361 0.9-0.637 0.25-0.276 0.44-0.611 0.572-1.005 0.131-0.399 0.197-0.85 0.197-1.353z"></path>
<path d="M5.433 24.817v3.666h-1.971v-3.666l-3.462-5.867h1.734c0.171 0 0.307 0.042 0.407 0.125 0.105 0.079 0.188 0.182 0.25 0.309l1.564 3.002c0.105 0.201 0.199 0.39 0.282 0.565 0.088 0.175 0.164 0.35 0.23 0.526 0.061-0.175 0.131-0.35 0.21-0.526 0.083-0.18 0.175-0.368 0.276-0.565l1.551-3.002c0.053-0.105 0.131-0.204 0.237-0.296s0.241-0.138 0.407-0.138h1.748l-3.462 5.867z"></path>
<path d="M15.105 24.863l-1.031-2.917c-0.061-0.153-0.127-0.333-0.197-0.539-0.066-0.206-0.129-0.429-0.191-0.67-0.061 0.245-0.127 0.473-0.197 0.683-0.066 0.206-0.129 0.385-0.191 0.539l-1.025 2.904h2.832zM18.416 28.483h-1.531c-0.171 0-0.311-0.040-0.42-0.118-0.105-0.083-0.184-0.188-0.237-0.315l-0.644-1.82h-3.797l-0.644 1.82c-0.044 0.11-0.12 0.21-0.23 0.302-0.11 0.088-0.247 0.131-0.414 0.131h-1.544l3.725-9.533h2.017l3.719 9.533z"></path>
<path d="M22.584 22.885h0.388c0.324 0 0.558-0.101 0.703-0.302l2.411-3.226c0.114-0.153 0.239-0.258 0.375-0.315 0.136-0.061 0.302-0.092 0.499-0.092h1.708l-3.035 3.909c-0.197 0.254-0.401 0.436-0.611 0.545 0.153 0.061 0.291 0.142 0.414 0.243 0.123 0.096 0.241 0.226 0.355 0.388l3.114 4.448h-1.754c-0.114 0-0.212-0.009-0.296-0.026-0.079-0.017-0.149-0.042-0.21-0.072s-0.114-0.068-0.158-0.112c-0.044-0.048-0.085-0.103-0.125-0.164l-2.451-3.43c-0.083-0.118-0.182-0.201-0.296-0.25-0.114-0.053-0.274-0.079-0.48-0.079h-0.552v4.133h-1.971v-9.533h1.971v3.935z"></path>
<path d="M39.812 23.713c0 0.696-0.118 1.342-0.355 1.938-0.232 0.596-0.563 1.11-0.992 1.544-0.425 0.434-0.937 0.775-1.537 1.025-0.6 0.245-1.266 0.368-1.997 0.368s-1.397-0.123-1.997-0.368c-0.6-0.25-1.115-0.591-1.544-1.025s-0.762-0.948-0.999-1.544c-0.232-0.596-0.348-1.242-0.348-1.938s0.116-1.34 0.348-1.932c0.237-0.596 0.569-1.11 0.999-1.544s0.944-0.773 1.544-1.018c0.6-0.25 1.266-0.374 1.997-0.374s1.397 0.125 1.997 0.374c0.6 0.245 1.113 0.587 1.537 1.025 0.429 0.434 0.76 0.948 0.992 1.544 0.237 0.591 0.355 1.233 0.355 1.925zM37.795 23.713c0-0.499-0.066-0.946-0.197-1.34-0.131-0.399-0.322-0.736-0.572-1.012-0.245-0.28-0.545-0.493-0.9-0.637-0.35-0.149-0.749-0.223-1.196-0.223s-0.848 0.074-1.202 0.223c-0.355 0.145-0.657 0.357-0.907 0.637-0.245 0.276-0.434 0.613-0.565 1.012-0.131 0.394-0.197 0.841-0.197 1.34 0 0.504 0.066 0.955 0.197 1.353 0.131 0.394 0.32 0.729 0.565 1.005 0.25 0.276 0.552 0.488 0.907 0.637 0.355 0.145 0.756 0.217 1.202 0.217s0.845-0.072 1.196-0.217c0.355-0.149 0.655-0.361 0.9-0.637 0.25-0.276 0.44-0.611 0.572-1.005 0.131-0.399 0.197-0.85 0.197-1.353z"></path>
<path d="M50.576 18.95l-3.837 9.533h-1.787l-3.837-9.533h1.59c0.171 0 0.309 0.042 0.414 0.125 0.11 0.079 0.191 0.182 0.243 0.309l2.063 5.492c0.079 0.206 0.155 0.431 0.23 0.677 0.079 0.241 0.151 0.495 0.217 0.762 0.057-0.267 0.118-0.521 0.184-0.762 0.070-0.245 0.145-0.471 0.223-0.677l2.050-5.492c0.044-0.11 0.12-0.208 0.23-0.296 0.114-0.092 0.254-0.138 0.421-0.138h1.596z"></path>
<path d="M54.756 20.494v2.451h3.18v1.491h-3.18v2.503h4.087v1.544h-6.071v-9.533h6.071v1.544h-4.087z"></path>
<path d="M69.798 18.95v9.533h-1.018c-0.153 0-0.283-0.024-0.388-0.072-0.105-0.053-0.208-0.14-0.309-0.263l-4.75-6.044c0.013 0.153 0.022 0.304 0.026 0.453 0.009 0.149 0.013 0.287 0.013 0.414v5.512h-1.741v-9.533h1.038c0.083 0 0.153 0.004 0.21 0.013 0.061 0.004 0.116 0.020 0.164 0.046 0.048 0.022 0.094 0.053 0.138 0.092s0.092 0.092 0.145 0.158l4.783 6.071c-0.017-0.167-0.031-0.326-0.039-0.48-0.009-0.158-0.013-0.307-0.013-0.447v-5.453h1.741z"></path>
<path d="M75.079 22.885h0.388c0.324 0 0.558-0.101 0.703-0.302l2.411-3.226c0.114-0.153 0.239-0.258 0.375-0.315 0.136-0.061 0.302-0.092 0.499-0.092h1.708l-3.035 3.909c-0.197 0.254-0.401 0.436-0.611 0.545 0.153 0.061 0.291 0.142 0.414 0.243 0.123 0.096 0.241 0.226 0.355 0.388l3.114 4.448h-1.754c-0.114 0-0.212-0.009-0.296-0.026-0.079-0.017-0.149-0.042-0.21-0.072s-0.114-0.068-0.158-0.112c-0.044-0.048-0.085-0.103-0.125-0.164l-2.451-3.43c-0.083-0.118-0.182-0.201-0.296-0.25-0.114-0.053-0.274-0.079-0.48-0.079h-0.552v4.133h-1.971v-9.533h1.971v3.935z"></path>
<path d="M92.308 23.713c0 0.696-0.118 1.342-0.355 1.938-0.232 0.596-0.563 1.11-0.992 1.544-0.425 0.434-0.937 0.775-1.537 1.025-0.6 0.245-1.266 0.368-1.997 0.368s-1.397-0.123-1.997-0.368c-0.6-0.25-1.115-0.591-1.544-1.025s-0.762-0.948-0.999-1.544c-0.232-0.596-0.348-1.242-0.348-1.938s0.116-1.34 0.348-1.932c0.236-0.596 0.569-1.11 0.999-1.544s0.944-0.773 1.544-1.018c0.6-0.25 1.266-0.374 1.997-0.374s1.397 0.125 1.997 0.374c0.6 0.245 1.112 0.587 1.537 1.025 0.429 0.434 0.76 0.948 0.992 1.544 0.237 0.591 0.355 1.233 0.355 1.925zM90.291 23.713c0-0.499-0.066-0.946-0.197-1.34-0.131-0.399-0.322-0.736-0.572-1.012-0.245-0.28-0.545-0.493-0.9-0.637-0.35-0.149-0.749-0.223-1.196-0.223s-0.847 0.074-1.202 0.223c-0.355 0.145-0.657 0.357-0.907 0.637-0.245 0.276-0.434 0.613-0.565 1.012-0.131 0.394-0.197 0.841-0.197 1.34 0 0.504 0.066 0.955 0.197 1.353 0.131 0.394 0.32 0.729 0.565 1.005 0.25 0.276 0.552 0.488 0.907 0.637 0.355 0.145 0.756 0.217 1.202 0.217s0.845-0.072 1.196-0.217c0.355-0.149 0.655-0.361 0.9-0.637 0.25-0.276 0.44-0.611 0.572-1.005 0.131-0.399 0.197-0.85 0.197-1.353z"></path>
</symbol>

<symbol id="close-icon" viewBox="0 0 30 32">
<path d="M16.94 15.439l7.958-7.945c0.238-0.238 0.372-0.56 0.372-0.897s-0.134-0.659-0.372-0.897c-0.238-0.238-0.56-0.372-0.897-0.372s-0.659 0.134-0.897 0.372l-7.945 7.958-7.945-7.958c-0.238-0.238-0.56-0.372-0.897-0.372s-0.659 0.134-0.897 0.372c-0.238 0.238-0.372 0.56-0.372 0.897s0.134 0.659 0.372 0.897l7.958 7.945-7.958 7.945c-0.118 0.118-0.212 0.257-0.277 0.411s-0.097 0.319-0.097 0.486c0 0.167 0.033 0.332 0.097 0.486s0.158 0.294 0.277 0.411c0.117 0.118 0.257 0.212 0.411 0.277s0.319 0.097 0.486 0.097c0.167 0 0.332-0.033 0.486-0.097s0.294-0.158 0.411-0.277l7.945-7.958 7.945 7.958c0.118 0.118 0.257 0.212 0.411 0.277s0.319 0.097 0.486 0.097c0.167 0 0.332-0.033 0.486-0.097s0.294-0.158 0.411-0.277c0.118-0.117 0.212-0.257 0.277-0.411s0.097-0.319 0.097-0.486c0-0.167-0.033-0.332-0.097-0.486s-0.158-0.294-0.277-0.411l-7.958-7.945z"></path>
</symbol>
</defs>
</svg>
